<?xml version="1.0" standalone="no"?>
<!DOCTYPE svg PUBLIC "-//W3C//DTD SVG 1.1//EN" "http://www.w3.org/Graphics/SVG/1.1/DTD/svg11.dtd" >
<svg xmlns="http://www.w3.org/2000/svg">
<metadata></metadata>
<defs>
<font id="segoe_scriptbold" horiz-adv-x="1496" >
<font-face units-per-em="2048" ascent="1638" descent="-410" />
<missing-glyph horiz-adv-x="819" />
<glyph unicode="&#xfb01;" horiz-adv-x="1493" d="M24 -347q0 21 14.5 33t44.5 12q22 0 41 -6.5t21 -6.5q18 0 31.5 26.5t23 62.5t15.5 73.5t8 58.5q17 163 23 339t7 366q-8 -1 -9.5 -1.5t-4.5 -1t-10 -0.5h-27q-22 0 -52 3t-58 12t-47.5 27t-19.5 48q0 27 6.5 45t24.5 29t49.5 15.5t81.5 4.5h34.5t34.5 2q2 41 5 87 t8.5 94t14 96.5t20.5 93.5q26 98 66.5 169t89.5 117.5t102 69t104 22.5q49 0 86.5 -10t62.5 -33t38 -60t13 -91q0 -14 -4 -42t-15 -56q-12 -35 -25.5 -53.5t-33.5 -18.5q-16 0 -31.5 16t-26.5 49q-4 18 -9.5 37t-13 35t-16.5 26t-21 10q-45 0 -79 -38t-57 -108.5t-35 -170.5 t-14 -224q62 3 133.5 10t134.5 19q88 17 161.5 38.5t145.5 52.5q15 7 25.5 12t32.5 5q33 0 59 -29.5t26 -90.5q0 -12 -3 -49t-7 -86t-9.5 -103.5t-9.5 -103t-7 -84.5t-3 -48q0 -31 8 -49.5t28 -18.5q28 0 64 18t76.5 46.5t81.5 64t79.5 71.5t70.5 69t54 56q33 34 57 63 t43.5 50.5t37 33.5t36.5 12q14 0 22 -6.5t12.5 -16t6 -21t1.5 -21.5q0 -18 -13 -45.5t-31 -55.5t-36.5 -53t-29.5 -38q-35 -43 -80.5 -92.5t-97 -98t-107 -93t-112 -78.5t-112 -54.5t-105.5 -20.5q-57 0 -92 21t-54.5 56t-26.5 80.5t-7 94.5q0 16 3 45t7.5 65t9.5 75.5 t10 76t9 66.5t5 48q-55 -11 -120 -23t-132 -22t-132 -18t-121 -12q-1 -49 -3.5 -120t-5.5 -142q-6 -138 -16.5 -268t-28.5 -240t-44.5 -195t-64.5 -133q-9 -11 -23 -20.5t-31 -16t-35 -10t-33 -3.5q-39 0 -70.5 14.5t-53 38.5t-33 55t-11.5 64zM1086 1330q3 18 13.5 40 t23.5 44.5t27.5 42t26.5 32.5q37 40 80 40q19 0 37.5 -7t33.5 -18.5t24 -26t9 -29.5q0 -10 -2.5 -20t-9 -24.5t-19 -35t-33.5 -52.5q-9 -6 -24 -14t-30.5 -14.5t-31 -11.5t-26.5 -5q-35 0 -58.5 15t-40.5 44z" />
<glyph unicode="&#xfb02;" horiz-adv-x="1659" d="M-140 -358q0 12 6.5 23t16 19.5t21.5 14t23 5.5q15 0 30 -5.5t31 -12.5t35 -12.5t43 -5.5q27 0 48.5 9.5t38.5 23.5t29.5 30.5t20.5 30.5q17 28 33.5 126.5t24.5 253.5q8 158 11 278t3 179q0 22 -2.5 30.5t-12.5 8.5q-9 0 -24 -1t-31 -2t-32.5 -2t-28.5 -1 q-19 0 -40 10.5t-39 26.5t-29.5 35.5t-11.5 36.5q0 26 15.5 38.5t47.5 14.5q48 3 99.5 16t91.5 25q6 2 13.5 23.5t15.5 54.5t16 73t15.5 78t13.5 70t10 49q15 64 50 125.5t83 109.5t106 77.5t119 29.5q54 0 91.5 -19.5t60.5 -48t33 -61t10 -58.5q0 -18 -8 -52t-22.5 -67.5 t-35.5 -58t-47 -24.5q-13 0 -21.5 7t-13 19t-6.5 26.5t-3 29.5q-1 19 -6 41t-15.5 41t-25.5 31.5t-36 12.5t-39.5 -23.5t-33.5 -62t-27 -88t-21 -101.5t-14.5 -102.5t-8.5 -90.5q27 5 58 10t61.5 10.5t59 11t49.5 10.5q42 9 89.5 23.5t94 33.5t87 43t67.5 54q9 47 18.5 97 t21.5 98.5t27 91.5t35 76t45 52t57 19q22 0 44.5 -9.5t41 -25.5t30 -36t11.5 -41q0 -27 -8.5 -65.5t-21 -77.5t-25.5 -74.5t-22 -56.5q-16 -38 -31 -66t-19 -48q-11 -61 -21 -135.5t-17.5 -147t-11.5 -135t-4 -99.5q0 -63 1.5 -117t9 -93.5t22 -62t40.5 -22.5q48 0 98.5 27 t105 72.5t113.5 104.5l123 123q46 46 83 74.5t60 28.5q4 0 10 -1t11 -5t9 -13t4 -26q0 -41 -24 -77q-23 -35 -57 -77.5t-72 -85.5t-78 -84.5t-75 -75.5q-33 -31 -72 -65t-82.5 -61.5t-89.5 -45.5t-94 -18q-72 0 -122 32t-81 90.5t-45 139.5t-14 179q0 101 10.5 210t28.5 218 q-34 -22 -80 -43t-95 -39.5t-95.5 -33t-80.5 -23.5q-28 -7 -50.5 -12.5t-46 -10.5t-49.5 -10t-61 -10q-8 -81 -14 -199.5t-9 -273.5q-1 -64 -7.5 -127t-17 -119.5t-24 -105.5t-28.5 -86q-26 -62 -63.5 -114t-87 -90t-110.5 -59t-133 -21q-22 0 -49.5 14.5t-51.5 38t-40.5 52 t-16.5 56.5z" />
<glyph horiz-adv-x="0" />
<glyph unicode="&#xd;" horiz-adv-x="819" />
<glyph unicode=" "  horiz-adv-x="819" />
<glyph unicode="&#x09;" horiz-adv-x="819" />
<glyph unicode="&#xa0;" horiz-adv-x="819" />
<glyph unicode="!" horiz-adv-x="664" d="M110 141q0 20 11.5 48.5t31 54.5t45 44.5t54.5 18.5q17 0 40.5 -9.5t44.5 -23t36 -29t15 -27.5q-1 -19 -15 -87q-3 -35 -62 -77q-50 -35 -91 -35q-110 0 -110 122zM204 589q0 72 6 157.5t25 174.5q20 91 34.5 175.5t14.5 158.5q0 28 10 75q4 24 9 42t13.5 32.5t21.5 27 t34 26.5t39 21.5t37 7.5q40 0 73 -27q19 -14 29.5 -31t10.5 -36q0 -12 -6.5 -46t-16 -80.5t-22 -100t-24.5 -104.5q-24 -103 -52 -207.5t-42 -207.5q-2 -24 -2.5 -43t-3 -38t-9 -39.5t-21.5 -47.5q-56 0 -92 10.5t-63 30.5q-2 13 -2.5 31t-0.5 38z" />
<glyph unicode="&#x22;" horiz-adv-x="827" d="M103 901q0 25 8.5 56.5t16.5 63.5q4 16 8 39t7.5 46t6.5 43.5t5 31.5q3 17 9.5 50t12.5 66.5t11 60.5t6 33q3 19 10.5 37t20 32t30 22.5t38.5 8.5q22 0 40.5 -10.5t32.5 -26.5t22 -34.5t8 -34.5q0 -63 -10.5 -129.5t-33.5 -130.5q-17 -48 -18 -72q-5 -70 -11 -122.5 t-18.5 -87.5t-35.5 -52.5t-62 -17.5q-29 0 -50.5 11.5t-33.5 36.5q-20 38 -20 80zM477 884q0 59 35 188q17 59 26 92.5t11 42.5q4 27 9.5 59.5t11.5 64.5t12 59.5t11 43.5q9 28 32 42.5t57 14.5q43 0 73 -27q37 -32 37 -67q0 -3 -3.5 -22t-9 -45.5t-12 -57.5t-12.5 -58.5 t-10 -46.5t-5 -23q-10 -52 -16.5 -98t-12.5 -86.5t-13.5 -77t-19.5 -71.5q-8 -23 -35 -39t-59 -16q-28 0 -48.5 10.5t-33.5 28t-19 41t-6 48.5z" />
<glyph unicode="#" horiz-adv-x="1632" d="M33 457q0 20 17 40t42 35.5t54.5 25.5t54.5 10q22 0 56 -2t68.5 -4.5t63.5 -4.5t40 -2q7 19 15 48.5t13 56.5q8 34 15.5 62t16.5 52q-30 -3 -64.5 -8.5t-70 -11.5t-71.5 -10.5t-70 -4.5q-156 0 -156 78q0 33 27.5 52t69.5 30.5t93 18t97 15.5q42 8 89 15.5t85 9.5 q26 26 49.5 72.5t46.5 107.5q15 41 30 71t32.5 49.5t40 28.5t52.5 9q65 0 65 -72q0 -48 -48 -156q-15 -35 -25 -55.5t-15 -35.5q25 5 54.5 8.5t59.5 5.5q43 6 68.5 9.5t50.5 6.5q7 22 15.5 59t17 77.5t17 80.5t14.5 68q14 63 25.5 97.5t16.5 40.5q12 19 38 34t55 15 q40 0 64 -26.5t24 -61.5q0 -19 -8.5 -49.5t-20 -62t-22 -59t-14.5 -40.5q-5 -17 -9.5 -39t-16.5 -53q-4 -16 -8 -30.5t-9 -28.5q41 6 76.5 11t68.5 8.5t65.5 5.5t66.5 2t59.5 -3t42.5 -12.5t25.5 -28t8.5 -49.5q0 -10 -4 -24t-12.5 -26.5t-20.5 -21t-29 -8.5 q-126 0 -221.5 -6t-170.5 -24q-6 -25 -15 -57.5t-18.5 -65t-18.5 -62.5t-14 -50l18.5 4t46.5 9.5t60.5 12t61 12t49 9.5t23.5 4q25 0 49.5 -2t45.5 -8.5t36.5 -20.5t22.5 -38q12 -31 12 -61q0 -15 -8.5 -30t-23.5 -26.5t-35.5 -19t-43.5 -7.5q-12 0 -24.5 4.5t-25 9.5 t-24 9.5t-20.5 4.5q-34 0 -64.5 -5t-61 -11.5t-64.5 -11.5t-76 -5q-20 -59 -34.5 -97t-14.5 -64q0 -6 2 -23t2 -30q0 -19 -6.5 -41t-20 -40.5t-34 -31t-47.5 -12.5q-20 0 -37 13.5t-29.5 32.5t-19.5 39.5t-7 33.5q0 19 1 35t4 32t7.5 34.5t11.5 43.5q3 10 4.5 13.5t2.5 6 l2 5t2 11.5l-52.5 -7.5l-63 -9t-59 -9t-42.5 -6.5q-88 -294 -171 -294q-35 0 -57.5 21.5t-22.5 50.5q0 107 52 220q-14 1 -29 1h-35q-7 0 -20 -0.5t-28.5 -1.5t-31.5 -1.5t-29 -0.5q-36 0 -66.5 3t-53 12t-35.5 25t-13 42zM614 572q41 3 65.5 4t43 2t36 3t44.5 8 q15 5 27 8.5t23 9.5l48 146q6 18 11.5 37.5t9.5 39.5q-75 -7 -134.5 -15t-106.5 -20q-19 -46 -36 -101.5t-31 -121.5z" />
<glyph unicode="$" horiz-adv-x="1124" d="M7 192q0 42 18 69t48 44.5t70 26.5t84 14t89 9t85 10l11.5 2t26 6.5t26 11t11.5 15.5q12 97 21 169.5t9 126.5q-14 7 -43 20t-60 24q-14 5 -34 12.5t-40 16.5t-37.5 17.5t-25.5 14.5q-56 45 -84 89t-28 102q0 36 37 72t94.5 67t129 54t140.5 33q1 10 1.5 23t0.5 24v212 q0 45 55 70q17 11 37 15.5t40 4.5q43 0 72.5 -32.5t29.5 -102.5q0 -12 -4.5 -40.5t-9.5 -58.5t-9.5 -54.5t-4.5 -27.5h40t31 1t27 3t28 6q17 5 32 6.5t28 1.5q103 0 103 -104q0 -38 -11.5 -58.5t-44.5 -30.5t-92 -11.5t-154 -1.5q-5 -48 -10.5 -92t-10 -81t-7 -64.5 t-2.5 -43.5q41 -31 75 -48.5t60.5 -31t45.5 -27.5t30 -37q13 -23 20 -54t7 -70q0 -43 -22 -81t-61 -69.5t-91.5 -57t-113.5 -44.5q-1 -14 -3 -40.5t-5 -58.5t-6 -65.5t-5 -61t-4 -45l-2 -17.5q0 -10 3 -32t7 -46t7 -44.5t3 -26.5q0 -13 -9.5 -25t-24.5 -21t-33 -14.5 t-36 -5.5q-72 0 -96 36q-25 32 -25 92q0 24 3 66.5t6.5 87t6.5 82t3 52.5q-23 -5 -48 -8t-50 -8q-21 -7 -51.5 -14.5t-61.5 -14.5t-58 -11.5t-42 -4.5q-26 0 -51.5 6t-45.5 16.5t-32.5 24.5t-12.5 31zM395 964q4 -6 23.5 -18t42 -25t42 -22.5t22.5 -9.5l13 138 q-57 -14 -92 -30t-51 -33zM686 464q9 9 22.5 16.5t25.5 13.5t20.5 12.5t8.5 13.5q0 10 -10 23.5t-22 26t-21.5 21t-8.5 7.5q-5 -37 -9 -71t-6 -63z" />
<glyph unicode="%" horiz-adv-x="1495" d="M110 955q0 14 6.5 42t16.5 60t22 64t23 54q26 51 64.5 93.5t85.5 72.5t101 46.5t111 16.5q55 0 111 -53q30 -4 74.5 -8.5t95.5 -9t103.5 -8.5t97.5 -7.5t78.5 -6t47.5 -3.5q14 -18 22 -33t8 -29q0 -52 -63 -88q-21 -39 -42 -75t-44 -72.5t-48 -74t-53 -78.5l1 1 q-2 -4 -11 -18t-21 -32.5t-25.5 -39.5t-26 -40t-22 -33.5t-12.5 -19.5q-32 -51 -57.5 -93.5t-45.5 -79.5q-19 -35 -44 -87t-52 -113q-29 -66 -51.5 -114t-39.5 -82q-3 -9 -39 -41q-30 -30 -58 -30q-88 0 -88 95q0 11 6.5 36t18.5 63q21 65 49 131.5t61 132t70 127t76 115.5 q26 35 50 72.5t53.5 86t69 112.5t94.5 151q-27 6 -44 10t-32 6.5t-31.5 3.5t-42.5 1q-11 0 -23 -0.5t-27 -0.5q8 -35 8 -67q0 -43 -15 -91t-42 -93t-64.5 -84t-82.5 -65q-29 -14 -52.5 -24t-43.5 -18q-37 -14 -88 -14q-50 0 -86.5 18t-60.5 49.5t-35.5 74t-11.5 91.5z M295 961q0 -11 3.5 -20.5t8.5 -16.5q5 -8 11 -13q18 -9 36.5 -13.5t30.5 -4.5q35 0 75 58q41 64 41 121q0 36 -23 126h-18q-37 0 -67.5 -27t-52 -65t-33.5 -78.5t-12 -66.5zM788 269q0 36 11 76.5t30.5 81t45.5 77.5t56 66q31 29 63 44t64 16q59 0 120 -15.5t110.5 -46.5 t81 -77t31.5 -108q0 -20 -3.5 -45t-11 -49.5t-20 -47t-30.5 -38.5q-40 -35 -82.5 -63.5t-77.5 -47.5q-34 -17 -79.5 -26t-98.5 -9q-128 0 -169 75q-41 76 -41 137zM1001 278q0 -26 3 -41q8 1 15 1h15t12 -0.5t7 -1t7.5 -1t14.5 -1.5q3 0 17 8t32 18.5t35 21.5t25 17 q9 14 14.5 33t5.5 42q0 18 -12 29t-30 19.5t-38 17t-35 20.5q-15 0 -30.5 -13.5t-28 -37.5t-21 -57.5t-8.5 -73.5z" />
<glyph unicode="&#x26;" horiz-adv-x="1892" d="M168 303q0 74 25.5 141t70 126.5t104 111t127.5 94.5q13 8 18 17t5 18q0 13 -9 37.5t-20 61t-20 84t-9 106.5q0 84 26 157.5t74 127.5t115.5 85.5t150.5 31.5q73 0 126.5 -29.5t88 -76t51.5 -102t17 -108.5q0 -63 -20.5 -118.5t-55.5 -106t-83 -96.5t-104 -89 q-19 -14 -25.5 -26t-6.5 -23q0 -16 11 -42.5t31 -56.5q57 -84 115 -154.5t109 -112.5q21 21 45.5 53t46.5 67t38.5 69t22.5 60q-19 2 -37 3.5t-36 5.5q-67 8 -92.5 41.5t-25.5 80.5q0 21 10 39.5t24 31.5t31 20.5t30 7.5q23 0 45.5 -6.5t50.5 -15t65.5 -15t89.5 -6.5 q48 0 87.5 3t72 7t59.5 7t50 3q78 0 78 -63q0 -44 -22.5 -75.5t-66.5 -40.5q-37 -11 -70 -13.5t-60 -7.5q-35 -7 -54 -43q-23 -44 -51.5 -90t-59.5 -89t-62.5 -80t-60.5 -63q49 -35 106.5 -54.5t107.5 -19.5q26 0 43 4t29.5 8.5t22 8t21.5 3.5q28 0 44 -23t16 -57 q0 -16 -13.5 -44.5t-39.5 -56t-65 -47.5t-90 -20q-106 0 -197.5 36.5t-172.5 97.5q-43 -32 -98 -61t-116.5 -51t-127 -34.5t-130.5 -12.5q-90 0 -164 27t-126.5 76.5t-81 118t-28.5 152.5zM420 312q0 -37 13 -69t40 -55t68 -36.5t96 -13.5q76 0 140.5 26t113.5 61 q-86 88 -157.5 188t-124.5 197q-40 -27 -74.5 -60t-60 -71t-40 -80t-14.5 -87zM687 1124q0 -58 11 -113t30 -101q35 27 64.5 59.5t51.5 67.5t34.5 71.5t12.5 71.5q0 22 -5.5 45t-17 41.5t-27.5 30.5t-37 12q-23 0 -44.5 -15t-37.5 -40.5t-25.5 -59t-9.5 -70.5z" />
<glyph unicode="'" horiz-adv-x="473" d="M98 886q0 9 0.5 21t3 33.5t7.5 55.5t14 86q1 9 2.5 17.5t3.5 16.5q5 41 20.5 95t39.5 119q27 72 61.5 109.5t72.5 37.5q47 0 73 -30t26 -72q0 -29 -24 -85q-10 -22 -14.5 -34t-8.5 -25.5t-10 -34.5t-19 -62q-10 -34 -16 -57t-9 -43.5t-4 -42.5t-1 -55q0 -46 -3 -83.5 t-14 -64t-32.5 -41t-57.5 -14.5q-27 0 -48 15t-35 38t-21 50t-7 50z" />
<glyph unicode="(" horiz-adv-x="823" d="M44 437q0 72 1.5 114.5t5.5 70.5q4 29 13 67t25 86q40 118 101 240.5t136 253.5q5 11 38 42t91 84q51 47 85 79.5t63.5 53.5t61 30.5t76.5 9.5q80 0 80 -79q0 -14 -10.5 -31t-25.5 -34t-31.5 -32.5t-28.5 -27.5q-20 -20 -48.5 -48t-57 -57t-53.5 -56t-38 -45 q-34 -47 -68.5 -97t-66.5 -110q-29 -54 -55 -110.5t-46 -118.5q-20 -60 -30 -115.5t-10 -110.5q0 -27 9 -92q0 -33 9.5 -69t14.5 -84v1q8 -42 14 -72.5t8 -47.5q13 -60 29.5 -109t34.5 -88.5t36 -69t34 -50.5q14 -17 34 -37t45 -41q32 -27 54 -48.5t35.5 -40t20 -36 t6.5 -35.5q0 -21 -10.5 -36.5t-29 -26.5t-42.5 -16.5t-51 -5.5q-35 0 -72.5 23t-75.5 59.5t-74 81.5t-68 90q-22 31 -39 61.5t-31 63t-24.5 68.5t-19.5 78q-12 60 -22 118.5t-18 112.5q-15 116 -15 189z" />
<glyph unicode=")" horiz-adv-x="745" d="M-12 1495q0 11 10 27t27.5 30t39.5 24t46 10q48 0 107.5 -51.5t122.5 -148.5q35 -55 65 -100t51 -80q22 -37 39 -74t28 -75q10 -35 23.5 -75t27 -82t26.5 -85t22 -85q20 -90 26 -173t6 -151q0 -165 -49.5 -312.5t-141.5 -289.5q-3 -6 -19.5 -28t-36.5 -49t-38.5 -53.5 t-26.5 -41.5q-16 -33 -31 -59t-31 -44t-34.5 -27.5t-42.5 -9.5q-49 0 -84 27q-41 31 -41 66q0 32 34.5 82t88.5 117q5 6 14 19t21 30.5t25.5 38.5t26.5 44q17 36 41 91.5t53 133.5q57 153 57 192q0 75 -7 169.5t-29 197.5q-22 104 -56 192t-72 175q-75 176 -157 261 q-15 18 -43.5 46.5t-63.5 60.5q-24 23 -24 60z" />
<glyph unicode="*" horiz-adv-x="1053" d="M16 1025q0 8 4 17.5t10 19t13 17t13 11.5q8 6 29.5 13t47 14t49.5 11.5t38 4.5q48 0 83.5 1.5t60.5 5.5q-4 6 -15 19t-22 25.5t-19 22t-7 8.5q-76 100 -76 144q0 10 6.5 22t16.5 22t22.5 17t24.5 7q71 0 205 -179q4 4 24.5 28t45 53.5t47 57l31.5 38.5t17.5 22.5t20 21.5 t26 16t33.5 6t36.5 -5t31.5 -15t22.5 -23.5t8.5 -31.5q0 -14 -6.5 -25t-16 -20.5t-20.5 -19t-19 -20.5q-21 -38 -40 -65t-33 -42q-5 -6 -12.5 -13.5t-18.5 -16.5q31 6 68 8.5t74 13.5q41 8 71.5 11.5t57.5 3.5q46 0 65 -43q19 -36 19 -58q0 -49 -65 -64h2q-8 -2 -30 -4 t-51.5 -4.5t-62 -4.5t-62 -4t-52.5 -3.5t-33 -2.5q-12 0 -21 -3q43 -52 78.5 -93.5t61.5 -74t40.5 -56.5t14.5 -40q0 -19 -8 -36.5t-21 -30.5t-30 -20.5t-36 -7.5q-16 0 -33.5 9.5t-33 22.5t-27 27t-15.5 22q-10 11 -34.5 39t-51.5 66q-20 29 -32.5 47.5t-34.5 38.5 q-2 -3 -4 -5.5t-4 -5.5q-2 -5 -14.5 -31t-30.5 -60.5t-38.5 -72t-38.5 -66.5q-49 -79 -93 -79q-13 0 -24 4.5t-21 11.5q-29 21 -47 39.5t-18 49.5q0 6 16.5 34t41.5 66t55 79.5t57 74.5q-29 0 -52.5 -2.5t-44.5 -6.5t-41.5 -9.5t-43.5 -11.5q-29 -8 -44 -11.5t-31 -3.5 t-27 10t-18.5 23t-11 26t-3.5 19z" />
<glyph unicode="+" horiz-adv-x="1169" d="M73 554q0 11 6 27t17 30t26.5 24t34.5 10q15 0 35.5 -1t40 -2.5t34 -3t16.5 -1.5h161l33 4q2 11 3 23t1 23q0 23 -1.5 51t-4.5 65q-2 27 -3.5 46t-2 32t-1 21t-0.5 13q0 10 2 37t12 55.5t32.5 50.5t62.5 22q41 0 68 -47q23 -38 23 -63q0 -22 -2.5 -60t-6 -76t-6 -69.5 t-2.5 -41.5v-32v-19t2 -24q14 -1 33 -1h44q13 0 33.5 0.5t45.5 1.5t53 1.5t56 0.5q56 0 91.5 -7t55 -23.5t26.5 -42.5t7 -64l-8 -17q-28 -37 -119 -37q-7 0 -32 2t-54 5t-55.5 5t-35.5 2h-147q-5 -19 -8.5 -45t-3.5 -59q0 -77 -1 -119t-2 -62t-2 -24t-1 -5q0 -45 -19.5 -63 t-72.5 -18q-32 0 -52.5 5t-32 17t-16 31.5t-4.5 47.5q0 17 3 39.5t7.5 56.5t9.5 82t10 117h-19q-16 0 -35.5 -0.5t-40.5 -1.5t-42 -1.5t-40 -0.5l-106 -11q-21 0 -40 7.5t-33.5 20.5t-23.5 30t-9 36z" />
<glyph unicode="," horiz-adv-x="700" d="M114 -178q0 26 23 49q69 17 122.5 44t88.5 60q8 9 17 27t17 37.5t13.5 35t5.5 19.5q0 11 -0.5 26t-2.5 31.5t-6 32t-11 25.5q-19 29 -19 52q0 12 5.5 28.5t15 32t24 26t32.5 10.5t43.5 -7t49 -17t41.5 -21.5t21 -21.5q41 -109 41 -178q0 -11 -11 -40.5t-26 -62.5 t-31.5 -63.5t-28.5 -42.5q-15 -15 -33.5 -32t-42 -32.5t-51 -27.5t-59.5 -18q-13 -2 -20 -4.5t-13 -4.5q-39 -17 -74.5 -26.5t-64.5 -9.5q-66 0 -66 73z" />
<glyph unicode="-" horiz-adv-x="1313" d="M198 584q0 26 15.5 44t39.5 30t53 19t56.5 10.5t50 4.5t32.5 1q12 0 34 -3.5t39 -7.5q69 0 120.5 1t90.5 2.5t68 4t52 5.5q42 6 89 6q14 0 36 -6t45 -14.5t44 -18t32 -16.5q7 -4 13.5 -12.5t11 -19t7 -21.5t2.5 -20q0 -46 -26 -69.5t-90 -23.5q-10 0 -27.5 4t-36.5 8.5 t-35.5 8.5t-23.5 4q-6 0 -17 -1t-24 -2t-26.5 -2t-23.5 -1q-13 0 -40.5 2t-57 4t-56 4t-37.5 2q-18 0 -55 -2t-78 -4t-78.5 -4t-56.5 -2q-32 0 -58 3.5t-45 12.5t-29 25.5t-10 43.5z" />
<glyph unicode="." horiz-adv-x="514" d="M95 173q0 28 0.5 47t3.5 33q9 69 175 69q40 0 63.5 -10t42.5 -32q19 -19 19 -49q0 -22 -10 -69q-3 -14 -21 -35t-53 -49q-32 -26 -58.5 -39t-44.5 -13q-38 0 -61 8.5t-35.5 26t-16.5 45.5t-4 67z" />
<glyph unicode="/" horiz-adv-x="1178" d="M-40 -29q0 16 10 39q42 98 94 188t107 169q15 22 38.5 56.5t48 70.5t47.5 69t37 52q5 6 21.5 30.5t38.5 58t47.5 72t47.5 71.5t37.5 57t19.5 29q40 57 79.5 119t80.5 126.5t83.5 129t88.5 126.5q15 20 35 45.5t43.5 49t48 39.5t46.5 16q20 0 40.5 -13.5t37 -32t27 -39 t10.5 -34.5q0 -13 -22 -54.5t-63.5 -105.5t-101.5 -147.5t-137 -181.5q-4 -6 -26 -36.5t-54 -77.5t-72.5 -105t-81.5 -117.5t-80.5 -116.5t-70.5 -102t-50.5 -73t-20.5 -30q-38 -55 -65.5 -104t-56.5 -102q-21 -39 -49 -82t-56.5 -79.5t-53.5 -60t-41 -23.5q-22 0 -42 10.5 t-35.5 26t-25 34t-9.5 33.5z" />
<glyph unicode="0" d="M9 370q0 124 50 272q24 70 58.5 138.5t79.5 134.5q42 63 90.5 115t99.5 93q57 45 120 85t130 72q70 34 133.5 50.5t129.5 16.5q50 0 103.5 -13t106.5 -35q44 -19 87 -46t78.5 -53.5t60 -49t32.5 -32.5q50 -62 74 -147t24 -194q0 -130 -88 -267q-41 -63 -97.5 -124 t-125.5 -117q-66 -53 -137.5 -99t-148.5 -83q-75 -36 -144 -58t-132 -31q-75 -11 -131 -16.5t-95 -5.5q-88 0 -155 31.5t-112 85.5t-68 125.5t-23 151.5zM271 420q0 -27 3.5 -56t10.5 -54t16 -44t21 -27q74 -46 164 -46q47 0 103 17.5t114 45t113 61t100 64.5 q23 16 54.5 40.5t66 55.5t68.5 65.5t61 70t44 70t17 64.5q0 24 -5 57t-13 64.5t-17 57.5t-18 36q-10 13 -25.5 30.5t-33 35.5t-35 35t-32.5 29q-27 -17 -74 -17q-8 0 -20.5 6.5t-26 15t-26 15t-19.5 6.5q-49 0 -86.5 -7.5t-71 -23.5t-67 -42t-74.5 -62q-132 -115 -224 -267 q-88 -143 -88 -296z" />
<glyph unicode="1" d="M146 84q0 31 22 52.5t59.5 37t87.5 27t107 21.5q51 10 107 22t104 30q5 52 8 104.5t8 89.5q7 58 16.5 124.5t20 133.5t21 129.5t18.5 111t13.5 79t6.5 34.5q-16 -7 -44.5 -23.5t-61 -35t-63.5 -36.5t-52 -28q-14 -7 -40.5 -17t-58 -19t-63.5 -15t-57 -6q-32 0 -57 17.5 t-25 52.5q0 33 14.5 52.5t43.5 35.5t72 33.5t100 45.5q10 5 31.5 16.5t49.5 27t58.5 33t58 33t49.5 28t31 18.5q30 19 58 35t51.5 27.5t40.5 18t26 6.5q57 0 86 -56q27 -51 27 -89q0 -32 -30 -65q-23 -99 -42.5 -197t-37.5 -204q-17 -101 -25.5 -186t-8.5 -149 q0 -12 -1.5 -46t-1.5 -70q31 5 78.5 16.5t95 24.5t87 23.5t53.5 12.5q35 5 75 7.5t87 2.5q17 -34 26 -54.5t9 -39.5q0 -54 -34 -70q-28 -13 -54.5 -22.5t-55 -16.5t-59.5 -13t-67 -11q-53 -8 -108 -18t-103 -27l3 -39q0 -79 -169 -79q-15 0 -27.5 9t-22.5 19.5t-16 19.5 t-9 9q-11 0 -38.5 -8t-59 -18t-60.5 -19.5t-43 -11.5q-59 -19 -104.5 -28t-74.5 -9q-34 0 -60 11t-42.5 27.5t-25 34.5t-8.5 33z" />
<glyph unicode="2" d="M51 -5q0 45 14.5 83t39.5 70.5t57 60t66 50.5q50 34 109.5 68.5t120.5 71.5t119.5 77t107.5 83q41 36 69 63t48.5 48t34.5 38t26 32q23 30 44 58.5t37 56.5t25.5 55.5t9.5 55.5q0 36 -14.5 68t-40.5 56.5t-63 39t-82 14.5q-40 0 -134 -56q-32 -19 -58.5 -37t-49 -35.5 t-42 -36.5t-38.5 -41q-13 -15 -26 -25t-29.5 -16.5t-38 -9t-50.5 -2.5q-21 0 -39.5 15.5t-31.5 37t-20.5 45t-7.5 38.5q0 21 8.5 35t26 28t43 30.5t59.5 40.5q50 36 91.5 64.5t79.5 50.5t75 38.5t79 29.5q32 10 77.5 14.5t102.5 4.5q69 0 137 -33t122.5 -85t88 -116.5 t33.5 -128.5q0 -38 -10 -87.5t-45 -106.5q-31 -51 -70.5 -105.5t-83.5 -104.5q-46 -52 -104.5 -102.5t-123 -96t-131.5 -84.5t-131 -70q30 8 72.5 13t91.5 9t101.5 5.5t102.5 1.5q37 0 77.5 -4.5t80.5 -9.5t78 -9.5t70 -4.5q24 0 43.5 4t36.5 8.5t32.5 8.5t33.5 4t36 -10.5 t31.5 -25.5t22 -31t8.5 -28q0 -23 -14 -59q-7 -17 -27.5 -33t-49.5 -28.5t-66 -20t-78 -7.5q-49 0 -85.5 2.5t-60.5 9.5q-32 9 -76.5 16.5t-94.5 12.5t-102 8t-100 3q-42 0 -97 -4t-110 -14t-102.5 -26t-74.5 -40q-20 -18 -36 -36.5t-30 -28.5q-14 -11 -35.5 -17t-52.5 -6 q-113 0 -113 95z" />
<glyph unicode="3" d="M122 165q0 60 35.5 90.5t97.5 30.5q10 0 16 -1.5t12 -4t14 -6.5t21 -10q54 -22 107.5 -40t104.5 -18q52 0 115 7.5t127.5 23t125.5 40t108.5 58.5t76 78.5t28.5 100.5q0 46 -20.5 72.5t-60.5 38.5q-103 33 -235 33q-173 0 -300 -71q-121 0 -121 70q0 6 2.5 18.5t8 27.5 t14 30.5t21.5 28.5t36.5 33.5t53.5 46.5q31 27 80.5 66t107.5 80.5t120 81t118 68.5q-11 0 -52.5 -7t-98.5 -17t-122 -21.5t-122.5 -21.5t-100.5 -16.5t-55 -6.5q-97 0 -150 45t-53 135q0 41 30.5 65t75.5 24q16 0 33 -5t32.5 -11.5t30 -13.5t25.5 -12q11 -4 24.5 -6 t30.5 -2q24 0 58 2.5t82 7l112 10.5t146 12q10 1 29 2t42.5 2.5t48.5 3t46.5 2.5t36.5 2t19 1q157 0 157 -106q0 -32 -11.5 -56.5t-37 -47.5t-64.5 -48t-95 -59q-37 -22 -75.5 -43t-73 -40.5t-63.5 -39.5t-49 -41q13 1 31.5 3t39.5 4.5t42.5 4.5t39.5 2q86 0 164 -16 t137 -52.5t94 -95t35 -142.5q0 -69 -26.5 -129.5t-70.5 -111.5t-102 -93.5t-121.5 -75.5t-128 -57.5t-122.5 -39.5q-160 -42 -296 -42q-28 0 -58.5 1t-68.5 6q-42 5 -76 11.5t-63 14.5q-23 7 -41.5 21.5t-31.5 34t-20 42t-7 44.5z" />
<glyph unicode="4" d="M57 507q5 18 22.5 44t44 57.5t60 66.5t69.5 69.5t72.5 67.5t69.5 60q102 84 175.5 145t125 104.5t84.5 71t54 45.5t34 28t25 18q18 12 48 35.5t62.5 46.5t62 40t46.5 17q53 0 84.5 -19t31.5 -52q-3 -11 -9 -34t-14 -50.5t-16 -57.5t-15 -54q-24 -73 -40.5 -139 t-27.5 -124.5t-18.5 -109.5t-15.5 -94q31 0 78 -3.5t106 -3.5q68 0 109 -9.5t64 -27.5t30.5 -45.5t7.5 -63.5q0 -17 -8 -32.5t-21.5 -27.5t-30.5 -19t-36 -7q-38 0 -63 14q-46 17 -105 26t-119 9h-46q-11 -45 -16.5 -91t-7.5 -86q-1 -21 -1 -39.5v-36.5q0 -49 3 -108 q20 -22 35 -47t15 -35q0 -24 -12.5 -47t-31.5 -41t-41.5 -29t-43.5 -11q-12 0 -33.5 2.5t-44 10.5t-42.5 23t-29 41q-15 48 -15 92q0 18 2 51.5t5 70t5.5 69t3.5 48.5q2 38 6 77t11 77q-116 0 -200 -9t-145 -24q-71 -18 -136.5 -28.5t-123.5 -10.5q-17 0 -36 7.5t-38.5 20 t-37.5 28.5t-32 33zM390 632q27 3 65.5 8.5t82.5 11.5t90 13t88 12.5t76 10t54 5.5q3 19 7 37.5t9.5 41t12.5 50.5t16 65l46 199q-31 -25 -66.5 -51.5t-70 -53.5t-66 -53.5t-55.5 -52.5q-19 -21 -54.5 -52t-77 -65.5t-83.5 -68t-74 -57.5z" />
<glyph unicode="5" d="M126 177q0 121 154 121q24 0 45 -10t47 -30q53 -31 105 -45t104 -14q50 0 110.5 15t119 40.5t107.5 60.5t75 75q6 8 6 34q0 58 -27 95.5t-71.5 60.5t-101 34t-116 17t-117 9.5t-102.5 10.5q-30 5 -62.5 19.5t-59 34t-44 42t-17.5 43.5q0 40 42 90q5 7 26 37t58 84 q77 114 133.5 182t93.5 77q23 5 58.5 9t84.5 7t113.5 5t146.5 5q45 2 78 1.5t63.5 1.5t63 7.5t77.5 18.5q37 11 61.5 15.5t36.5 4.5q21 0 50.5 -7t57 -20t46.5 -31.5t19 -41.5q0 -16 -12 -38.5t-30.5 -44t-42.5 -38.5t-48 -22q-39 -9 -91 -13t-118 -4q-9 0 -48.5 1.5 t-90 3.5t-101 3.5t-81.5 1.5q-61 0 -120.5 -4.5t-96.5 -15.5q-17 -17 -33 -35.5t-34 -42t-39 -54t-48 -71.5q24 -11 65 -18.5t86.5 -14t90 -12.5t74.5 -14q96 -17 166.5 -44t117.5 -70t70 -104t23 -147q0 -44 -19.5 -89t-50.5 -87t-70 -77.5t-77 -59.5q-59 -38 -114.5 -66 t-112.5 -46t-118.5 -26.5t-132.5 -8.5q-106 0 -191 23.5t-163 78.5q-14 10 -27.5 20t-24 21.5t-16.5 25t-6 30.5z" />
<glyph unicode="6" d="M143 363q0 80 10.5 144t32.5 122.5t54.5 115.5t75.5 122q20 30 55.5 72.5t81 91.5t97.5 101t105 100t115.5 78.5t124.5 30.5q51 0 87 -30q42 -33 42 -78q0 -51 -23.5 -74t-70.5 -31q-65 -10 -124 -47t-113.5 -89.5t-105.5 -115.5t-100 -126q-22 -29 -42 -72t-35 -91 t-24 -95.5t-9 -85.5q0 -26 5 -46t12.5 -34t15 -22.5t12.5 -12.5t12 -8.5t12 -9.5q2 61 10.5 111t28.5 89q31 60 66.5 106.5t75.5 80.5q38 32 84 53.5t101 33.5q97 22 244 22q60 0 118.5 -22t104.5 -60.5t74.5 -91t28.5 -114.5q0 -46 -19.5 -89t-52.5 -82.5t-75.5 -75 t-89 -67t-93 -58.5t-87.5 -49q-54 -29 -144 -43t-214 -15q-51 0 -90 6t-67 13q-52 12 -106.5 48t-99 84.5t-73 103.5t-28.5 106zM635 211q28 -2 51.5 -3.5t45.5 -1.5t43 2.5t43.5 8.5t48.5 17t57 28q48 26 93.5 58t86.5 70q30 29 47.5 58t21.5 53q-21 26 -48 39.5t-56 20.5 t-57.5 8t-51.5 1q-81 0 -139.5 -26t-97.5 -73t-60.5 -113t-27.5 -147z" />
<glyph unicode="7" d="M167 1190q0 19 10 39.5t26.5 37.5t37.5 28t42 11q6 0 35.5 -1t71 -3t89.5 -4t91.5 -4t76.5 -3t44 -1q40 0 90.5 1t105.5 4t112 7t110 10q41 5 79.5 8t86.5 3q42 0 69.5 -22t27.5 -65q0 -15 -2.5 -29t-10.5 -24q-14 -19 -31.5 -40.5t-35.5 -43t-36 -42t-32 -37.5 q-18 -21 -43 -56.5t-52 -76t-53 -80t-45 -68.5q-36 -54 -77.5 -125t-78.5 -149q-14 -30 -22.5 -47.5t-13.5 -28t-7.5 -16t-4.5 -9.5q-20 -42 -36 -76.5t-27 -65.5t-17 -60t-6 -60q0 -22 -7 -45t-22.5 -42t-39.5 -31t-58 -12q-32 0 -56.5 15.5t-41 39t-25 51t-8.5 51.5 q0 38 53 151q70 148 145.5 292.5t168.5 278.5q22 32 48 68.5t53 72.5t54.5 69.5t51.5 57.5q-15 -1 -54.5 -2.5t-94.5 -4t-121.5 -5.5t-134.5 -5.5t-133.5 -5.5t-119 -5t-90.5 -3t-48 -1q-22 0 -39.5 10t-29.5 25t-18.5 33t-6.5 35z" />
<glyph unicode="8" d="M258 233q0 25 3 44t12.5 39t26.5 44.5t45 60.5q29 38 69.5 70.5t81.5 58.5q14 10 23.5 15.5t18.5 10.5t19.5 12t26.5 20q-60 32 -110.5 62t-80.5 56q-19 17 -39 44t-36 56t-26 56t-10 44q0 63 32 110.5t82 87t111 73t118 67.5q95 56 226 56q24 0 63.5 -13t79 -32 t72 -40.5t43.5 -38.5q8 -13 15 -34t13 -50l2 -30q1 1 8 9t15.5 17t15 16.5t7.5 8.5q33 -9 51 -24t26 -32.5t9.5 -35t1.5 -31.5q0 -22 -22.5 -58t-53 -73.5t-62.5 -70t-51 -48.5q-5 -3 -19 -12.5t-32 -21.5t-38 -25.5t-37 -25.5t-29 -20t-14 -10q25 -12 52 -27t50 -33 q41 -32 74.5 -66.5t57.5 -69t37.5 -68t13.5 -65.5q0 -21 -2.5 -47t-8.5 -52.5t-15.5 -50t-24.5 -40.5q-18 -21 -52.5 -40.5t-78.5 -36.5t-94 -30.5t-98 -22.5q-96 -18 -160 -18q-36 0 -86 7.5t-100 20t-92.5 28.5t-63.5 34q-66 59 -66 165zM502 231q0 -15 14 -26t33 -17.5 t38.5 -10t29.5 -3.5q24 0 60.5 2t75.5 6t74 9.5t55 11.5q5 2 15.5 8t22.5 14t24 16.5t20 15.5q7 9 7 31v20q0 20 -13 44t-32.5 47.5t-42.5 44t-43 34.5q-25 17 -43.5 29t-35.5 19q-36 -25 -81 -62t-84.5 -78t-66.5 -81.5t-27 -73.5zM526 939q0 -29 26 -59t63 -56 q14 -7 33.5 -20.5t40.5 -27.5l40.5 -27t32.5 -20q35 30 73.5 62t71.5 64t54.5 62.5t21.5 56.5q0 32 -13.5 58.5t-36 45.5t-51 29.5t-58.5 10.5q-19 0 -59 -13t-84.5 -35t-85 -51.5t-60.5 -62.5q-9 -12 -9 -17z" />
<glyph unicode="9" d="M246 747q0 101 55 196q25 42 56.5 77t66.5 67q67 59 187 145q11 8 36 18.5t58 22t71 22t75 19t70 14t56 5.5q43 0 74.5 -8t58 -22.5t51 -35t52.5 -46.5l8.5 -8.5t8.5 -7.5q51 -38 58 -47q5 -8 12 -24.5t13 -40.5l1 -6q0 -17 -7 -41.5t-19 -53.5q-29 -69 -52 -129 t-36 -102q-21 -69 -54.5 -190.5t-76.5 -295.5q-5 -21 -9 -50t-4 -58q0 -173 -103 -173q-70 0 -98 44q-9 14 -17 33.5t-13.5 39.5t-9 39t-3.5 33q0 16 7.5 47t19 70.5t26.5 84t29 87.5t26 80.5t19 62.5q-32 -19 -67 -37t-69.5 -33t-65.5 -26t-55 -16q-101 -19 -181 -19 q-48 0 -93.5 21t-81.5 56.5t-58 83.5t-22 102zM484 777q0 -50 30 -82t78 -32q29 0 71.5 12t90 32t94.5 45.5t85 52.5q27 19 41.5 33t22.5 26t12 23.5t9 26.5l49 152q-9 17 -23 27.5t-31 16.5t-35 8t-35 2q-42 0 -75.5 -3.5t-65 -14t-64.5 -29t-73 -49.5q-24 -19 -55.5 -48.5 t-59.5 -64t-47 -69.5t-19 -65z" />
<glyph unicode=":" horiz-adv-x="610" d="M153 193q0 20 1.5 34.5t7.5 27.5t18.5 25t33.5 26q43 29 78 29q27 0 56 -6t53 -19t39.5 -33t15.5 -48q0 -11 -2.5 -27t-6.5 -39q-2 -13 -20 -37.5t-43 -48t-52 -41t-48 -17.5q-44 0 -70 10.5t-39.5 32.5t-17.5 54.5t-4 76.5zM171 880q0 10 7.5 28t19.5 37.5t26 36.5 t26 26l-1 -1q30 22 86 22q9 0 21 -5t24 -11t21.5 -11.5t11.5 -6.5q25 -18 38.5 -29.5t20 -21t7.5 -21.5t1 -32v-9q0 -24 -13.5 -51t-39 -49t-60.5 -36.5t-79 -14.5q-47 0 -84 61v-1q-33 53 -33 89z" />
<glyph unicode=";" horiz-adv-x="676" d="M-27 -170q0 13 5.5 27t14.5 27q142 32 216 106q1 1 9 16t17.5 33.5t17 36.5t7.5 26q0 14 -0.5 32t-2 35t-5 32.5t-10.5 25.5q-11 15 -15 27.5t-4 23.5q0 13 5.5 30t16.5 32t27.5 25.5t37.5 10.5t43.5 -4.5t41.5 -12.5t33.5 -20.5t19.5 -28.5q18 -58 27.5 -103t9.5 -80 q0 -12 -9 -39t-23 -58.5t-29.5 -61t-29.5 -45.5q-12 -15 -30 -28.5t-44 -28t-60.5 -31t-79.5 -37.5q-79 -36 -143 -36t-64 68zM209 872q0 12 7 33t17.5 43.5t23.5 42t25 27.5v-1q20 14 52 14q17 0 72 -26h-1q57 -25 66 -32q35 -33 35 -91q0 -27 -17.5 -51t-45.5 -43 t-62.5 -30t-68.5 -11q-23 0 -42 13t-32.5 32t-21 40.5t-7.5 39.5z" />
<glyph unicode="&#x3c;" horiz-adv-x="1098" d="M90 622q0 45 36 87t102 96q59 48 112 103.5t107 103.5q15 14 51.5 41.5t78 58.5t79.5 59.5t57 44.5q8 8 19 22.5t26.5 28.5t37 24.5t49.5 10.5q21 0 40 -6.5t34 -18t23.5 -27.5t8.5 -36q0 -22 -26.5 -58t-76.5 -84t-121 -107t-160 -126q-26 -20 -75.5 -68.5 t-124.5 -117.5q16 -10 31.5 -18t28 -13.5t20 -9l7.5 -3.5q13 -5 28.5 -15t30 -20.5t27 -19.5t18.5 -12q11 -4 41 -17t68.5 -30t81.5 -36t80.5 -35.5t63.5 -28t32 -14.5q75 -36 75 -106q0 -17 -10 -37t-27 -37t-38.5 -28.5t-45.5 -11.5q-16 0 -81 36q-102 57 -181 95.5 t-136 61.5q-28 11 -68 31t-83.5 45t-86.5 52.5t-77 53.5t-55 48.5t-21 37.5z" />
<glyph unicode="=" horiz-adv-x="1282" d="M127 896q0 43 30 69t74 40t94 18.5t91 4.5l126 -8q53 0 96.5 1t80 3.5t67.5 6t59 8.5q6 2 14 2.5t22 0.5h50q10 0 40 -4.5t63 -18.5t59.5 -41.5t28.5 -73.5v-1q0 -18 -5 -38t-18 -36t-34 -26.5t-54 -10.5q-31 0 -75 19q-33 12 -45 12q-4 0 -14 -1.5t-22.5 -4t-25.5 -4 t-24 -1.5q-15 0 -40 2t-52 4t-51.5 4t-38.5 2l-371 -28q-30 0 -53.5 3t-39 13.5t-24 30.5t-8.5 53zM145 466q0 28 22.5 45t67.5 27q38 9 68 13t59 4q18 0 42.5 -0.5t51 -1t52.5 -1.5t47.5 -1.5t35 -1t15.5 -0.5q14 0 38.5 2.5t51.5 5t53 5t41 2.5q70 0 132.5 -7t110 -23 t75.5 -40.5t29 -59.5v-1q0 -15 -5.5 -33t-16 -34t-25.5 -28t-34 -14q-35 0 -101 12q-30 5 -54.5 7.5t-41.5 2.5q-60 0 -124.5 -0.5t-127.5 -1t-121 -1.5t-105 -1.5t-80 -1.5t-45 -2q-16 0 -35.5 14.5t-36.5 34.5t-28 42t-11 37z" />
<glyph unicode="&#x3e;" horiz-adv-x="1174" d="M144 1188q0 32 22 54t63 22q32 0 61 -19q21 -13 72 -54q24 -18 39 -28.5t20 -14.5q11 -7 45.5 -29t81 -51t99.5 -61.5t100 -61.5t83.5 -50.5t49.5 -28.5q64 -33 103.5 -54t61 -39t29 -36.5t7.5 -45.5t-52 -70q-67 -54 -120 -89.5t-87 -64.5q-14 -13 -23.5 -20t-17.5 -14 q-31 -34 -105 -114q-30 -41 -63 -73t-55 -55q-23 -26 -47.5 -48.5t-48.5 -43.5q-23 -20 -70 -20q-23 0 -44.5 10t-38 25t-26.5 33.5t-10 34.5q0 20 10.5 36.5t26 31.5t32.5 28t30 25q51 60 99 111.5t97 99.5q11 10 36.5 31t56.5 45.5t61.5 50t50.5 45.5q-44 54 -89 76 q-12 6 -34.5 18t-49.5 26.5t-56 30.5t-55 30.5t-46.5 26t-30.5 16.5q-2 2 -13.5 7.5t-15.5 6.5q-33 16 -60 31.5t-56 38.5q-36 35 -60 60t-38 47t-19.5 42.5t-5.5 44.5z" />
<glyph unicode="?" horiz-adv-x="1055" d="M141 85q0 25 21 50t59 51q15 10 24 17.5t17.5 12t20.5 7t34 2.5q6 0 16.5 -3t22 -8t23 -11t19.5 -12q91 -6 91 -85q0 -36 -22.5 -64t-54 -47.5t-65.5 -29.5t-57 -10q-29 0 -56 9t-47.5 26t-33 41t-12.5 54zM245 1230q0 27 16 59t44 64t65.5 62t80.5 53h-1 q34 20 58.5 29.5t48.5 13.5t51 4.5t66 1.5q26 1 50 2t36 1q15 0 35.5 -3.5t41 -9.5t38.5 -13.5t27 -15.5q57 -38 90.5 -71t51 -70t23 -82.5t6.5 -110.5v-1q0 -131 -45.5 -217.5t-122.5 -137.5q-32 -21 -73 -39.5t-88.5 -36t-98.5 -34.5t-103 -35q-14 -37 -25.5 -78.5 t-21.5 -89.5q-6 -30 -19.5 -50t-34 -31.5t-49 -16t-65.5 -4.5q-17 0 -28.5 14t-18.5 34t-10 41t-3 36q0 24 3 43t12 45t27 64t48 100q31 26 63 47t65 37q19 9 60 25.5t86 34t85.5 33.5t58.5 24q16 9 29.5 26.5t23.5 39t15.5 45.5t5.5 46q0 15 -4 37.5t-9.5 44.5t-10.5 40 t-8 24q-6 15 -22 26t-35.5 17.5t-40.5 10t-38 3.5q-31 0 -56 -1t-46 -7t-40.5 -17.5t-39.5 -32.5q-5 -5 -8 -22q-2 -14 -9.5 -30t-24 -29t-45.5 -21.5t-75 -8.5q-92 0 -92 88z" />
<glyph unicode="@" horiz-adv-x="1686" d="M89 475q0 38 9.5 88.5t25.5 107.5t37 116t44.5 113.5t47.5 100.5t45 76q63 89 140.5 166t166 133t188.5 88t208 32q69 0 132.5 -18t120.5 -51t107 -79.5t92 -103.5q28 -38 50.5 -84t39.5 -97q37 -109 37 -195q0 -62 -17.5 -126t-50 -121t-79.5 -102t-106 -71 q-5 -2 -24.5 -8t-46.5 -14q-58 -19 -80 -19q-47 0 -88.5 20.5t-73.5 51.5q-31 -21 -73.5 -42t-86.5 -38t-85.5 -28t-71.5 -11q-43 0 -84 18.5t-72.5 47.5t-51 64t-19.5 68q0 34 6.5 69t22.5 74t42 84t66 98q24 32 56.5 67.5t69.5 65t78 49t82 19.5q69 0 118 -13t90 -50 q11 -8 18 -21t7 -30v-10q5 2 10.5 3t13.5 1q92 0 92 -80q0 -8 -12 -43.5t-36 -89.5q-9 -22 -14.5 -37t-8.5 -27.5t-3.5 -25t-0.5 -28.5q0 -8 5 -11.5t21 -3.5q28 0 62.5 20.5t64.5 54t50.5 77.5t20.5 90q0 99 -70 220q-25 43 -38.5 68t-25.5 41.5t-26.5 29t-40.5 29.5 q-20 16 -44.5 30t-49 24.5t-47 16.5t-38.5 6q-66 0 -141 -27.5t-147.5 -73t-137 -104t-109.5 -120.5q-20 -28 -42 -68t-42 -86.5t-38 -97t-31.5 -99t-21.5 -93t-8 -79.5q0 -45 19.5 -84t53.5 -73q38 -38 81.5 -69.5t89.5 -54.5q60 -29 130.5 -43.5t148.5 -14.5q42 0 90 7 t97 18t97 25.5t91 30.5q45 17 88 37.5t73 39.5q11 11 27 22.5t32.5 22t30.5 17t21 6.5q19 0 35.5 -7t29 -17.5t19.5 -22t7 -20.5q0 -56 -22 -99q-41 -42 -99.5 -76t-127 -60t-142.5 -44.5t-147.5 -30.5t-141.5 -17.5t-124 -5.5q-75 0 -150.5 15.5t-151.5 44.5 q-155 61 -255 176q-104 122 -104 275zM696 589q0 -26 16 -33t50 -7q8 0 25.5 5.5t39 15.5t45.5 24t45 31q12 10 19.5 19.5t7.5 16.5l-5 95q0 18 5.5 38.5t19.5 45.5q14 31 17 31q-8 5 -15.5 13t-16.5 13q-13 -1 -23 -4.5t-21 -8.5q-9 -5 -27 -16.5t-39 -28.5q-5 -4 -18 -20 t-30 -39.5t-35.5 -53.5t-35.5 -63q-24 -48 -24 -74z" />
<glyph unicode="A" horiz-adv-x="1714" d="M15 62q0 34 29 47.5t80 22.5q0 1 11 15t26 32t29.5 35.5t20.5 26.5q39 54 81.5 112.5t93.5 134.5v-1q26 38 42.5 63t31.5 47t31.5 45t40.5 57q62 87 108.5 147.5t76.5 100.5q36 56 68 107q14 22 27 44.5t25 43.5t21.5 39.5t14.5 31.5q119 291 204 291q37 0 60 -5.5 t35.5 -19t17 -35.5t4.5 -55v-48.5t-1 -30.5t-1.5 -26t-2.5 -35q24 -51 46.5 -105t42.5 -107q4 -12 17.5 -50.5t32 -90.5t39 -110t38 -109t30.5 -88t17 -47q13 -56 73 -185q8 -16 13.5 -28t13 -25t19.5 -30t32 -44q69 -94 69 -138q0 -25 -9.5 -47t-26 -38.5t-40 -26.5 t-50.5 -10q-25 0 -49 16t-46.5 41t-43 56.5t-37 63.5t-29.5 61t-21 48q-11 27 -22 50t-23 59l-10.5 30t-6 15.5t-4 9t-3.5 10.5q-20 -9 -43 -10.5t-51 -1.5q-5 0 -17 -3.5t-27.5 -8.5t-32 -10.5t-31.5 -9.5q-48 -12 -104 -23t-117 -21.5t-124.5 -21t-127.5 -21.5 q-7 -1 -12 -4t-14 -15.5t-27 -38.5t-51 -74q-38 -55 -72 -95.5t-64 -69.5q-29 -29 -61.5 -44t-67.5 -15q-46 0 -82 11.5t-60.5 29.5t-37 39t-12.5 39zM699 538q30 3 63 4.5t53 7.5q27 8 48.5 14t43 11t44.5 10t53 11q44 11 89.5 23t84.5 24q-16 49 -33 102t-35.5 105.5 t-37.5 102t-40 90.5q-85 -116 -170.5 -244t-162.5 -261z" />
<glyph unicode="B" horiz-adv-x="1546" d="M205 255q0 1 3 22.5t7.5 54t10 71.5t10.5 74t8.5 62.5t4.5 36.5q1 4 3.5 30.5t6.5 64t8 80.5t8 81t7 65t3 32q9 77 9 92q0 11 -2 25t-4.5 28.5t-4.5 26t-2 15.5q0 39 7 73t23 63q40 77 86 83q29 4 57.5 11.5t53.5 15.5q125 40 197.5 65t95.5 32q30 9 61 15.5t66 10 t76.5 5t93.5 1.5q32 0 70.5 -11t74.5 -30t66.5 -44.5t46.5 -54.5q7 -12 13.5 -30.5t12 -38.5t8.5 -39.5t3 -34.5q0 -76 -59.5 -155.5t-173.5 -175.5q68 -21 129 -56t107 -80t73 -96t27 -103q0 -48 -9 -91.5t-27 -86t-45 -85.5t-63 -90q-21 -26 -43 -50.5t-43 -45.5t-41 -38 t-36 -28q-32 -23 -83 -45.5t-115 -42.5q-62 -20 -121 -30.5t-110 -10.5q-52 0 -93.5 9.5t-70.5 29.5t-44.5 50.5t-15.5 72.5q0 27 12 49t32.5 37.5t48 24t58.5 8.5q19 0 32.5 -1.5t25.5 -4.5t23.5 -8t26.5 -12q48 -21 74 -21q13 0 35.5 4.5t46.5 12t46 16.5t34 17 q39 27 79 66.5t72.5 85t53 93t20.5 89.5q0 35 -15.5 63t-39.5 50t-54 38t-58 26t-52 15t-37 5q-36 0 -61 -2.5t-44.5 -7t-37 -11.5t-37.5 -16q-24 -11 -41 -16t-35 -5q-25 0 -46 8.5t-35.5 22.5t-22.5 32t-8 36q0 33 10.5 60t28.5 46.5t41 32t48 17.5q14 3 31.5 4t34 1.5 t29 0.5t15.5 1q22 13 52.5 33t63.5 44.5t66 51.5t59.5 53.5t42.5 50.5t16 42q0 37 -33.5 55.5t-109.5 18.5q-60 0 -136.5 -12t-149.5 -35q-31 -10 -62 -24t-58.5 -30t-49.5 -34t-36 -36q-3 -4 -5 -20t-3 -46t-3 -76t-4 -111q-2 -42 -3.5 -69t-3.5 -51t-5 -50t-8 -67 q-8 -57 -14.5 -109t-6.5 -91v-183q0 -99 -37 -144.5t-109 -45.5q-38 0 -63 14t-39.5 42t-20 70t-5.5 97z" />
<glyph unicode="C" horiz-adv-x="1510" d="M124 373q0 86 20 176t55.5 178t83.5 170t103 151q32 40 76 83.5t93 85.5t99 78.5t95 63.5q32 19 81 42.5t102.5 44t105.5 34.5t90 14q68 0 108 -9t71 -32q15 -11 34 -34t36 -50t29 -53.5t12 -44.5q0 -12 -7.5 -32.5t-19.5 -44.5t-27 -49.5t-29.5 -48.5t-27.5 -41t-20 -27 q-45 -53 -113 -53q-57 0 -88.5 32t-31.5 80q0 15 17 47.5t56 71.5q19 19 33 37.5t22 32.5q-25 9 -51 9q-31 0 -77.5 -15.5t-97 -39t-98.5 -52.5t-81 -56q-92 -75 -174 -169t-136 -205q-21 -44 -40 -94t-33 -101.5t-22 -103t-8 -97.5q0 -51 11 -94t36.5 -75t66.5 -50t101 -18 q71 0 149 19.5t158 53t160.5 77t155 91.5t141 97t120.5 93q21 17 46.5 40t52 48t52 51t46.5 48q23 -12 36.5 -21t20 -18.5t8.5 -20.5t2 -25q0 -35 -27 -79t-73 -92.5t-107 -100.5t-129 -104q-92 -70 -195.5 -134t-210.5 -113.5t-213 -79t-202 -29.5q-115 0 -199 32.5 t-139 92.5t-81.5 144.5t-26.5 187.5z" />
<glyph unicode="D" horiz-adv-x="1778" d="M224 265q0 6 2 17.5t4 23.5l4 24t2 19q0 11 1.5 26t4 31l5 32t4.5 29q26 134 45.5 272.5t50.5 283.5q3 14 7 31t8 34.5t7 33t3 25.5q0 17 -7.5 22.5t-20.5 14.5q-14 11 -24 19.5t-16.5 17t-9.5 18.5t-3 24q0 22 11.5 47.5t31 47t45 36t53.5 14.5q21 0 55 -2.5t68 -6 t61.5 -6t35.5 -2.5q73 0 164.5 6t182.5 6q131 0 245 -25.5t208 -79.5q21 -12 46 -29t51 -41.5t51.5 -58.5t47.5 -82q26 -56 40.5 -104.5t14.5 -83.5q0 -128 -100 -254q-91 -115 -240 -215q-66 -45 -143 -86.5t-153 -76.5q-77 -35 -145.5 -61t-127.5 -44q-41 -13 -89 -32.5 t-111 -52.5q-28 -15 -58 -24.5t-56.5 -15.5t-47.5 -8.5t-30 -2.5q-60 0 -103 34t-56 90q-10 42 -14.5 71t-4.5 44zM494 396q0 -25 2 -44t7 -36q92 16 194 50.5t227 76.5q66 22 124.5 45t106 45.5t83 44t56.5 40.5q7 6 21.5 23t33 41t38 52.5t35.5 58t26.5 57t10.5 49.5 q0 66 -25.5 112.5t-67 78.5t-94.5 50t-108 27q-67 11 -134 16.5t-136 5.5q-29 0 -62.5 -2.5t-69.5 -6t-72.5 -7t-71.5 -4.5q-17 -86 -33.5 -171.5t-30.5 -159t-24 -129.5t-13 -82q-8 -57 -15.5 -118.5t-7.5 -112.5z" />
<glyph unicode="E" horiz-adv-x="1536" d="M152 150q0 43 11.5 95.5t25.5 125.5q14 70 27 128t24.5 113t21 109.5t14.5 117.5q1 7 3 34t4.5 64t5.5 79t6 79t4.5 64t1.5 35q0 7 -2 20t-2 21q0 23 8.5 50.5t26.5 56.5q9 15 31 30.5t48 28.5t52.5 21t45.5 8q11 0 34.5 -4t49 -9t48.5 -9t33 -4q23 0 62.5 -1t86.5 -1 q88 0 177.5 6.5t181.5 21.5q41 7 77 18t70.5 21.5t69.5 18t74 7.5q19 0 38 -8.5t34.5 -23t25.5 -32.5t10 -37q0 -10 -5.5 -26.5t-15 -33.5t-21.5 -31.5t-25 -20.5q-26 -13 -50.5 -19t-59.5 -13q-92 -18 -180 -30t-166.5 -19.5t-143.5 -10.5t-110 -3h-148h-59t-52 2 q-3 -33 -5.5 -80t-5.5 -96t-6 -94.5t-8 -76.5q27 -3 63.5 -4t70.5 -1q49 0 97.5 3.5t80.5 6.5q16 2 50 4t72.5 5t75 7t57.5 9q20 9 37.5 16t34 11.5t34 6.5t37.5 2q27 0 45 -10.5t28 -28t14 -40t4 -46.5q0 -30 -16.5 -49t-40.5 -31.5t-50.5 -19t-45.5 -10.5q-17 -4 -60.5 -8 t-100.5 -8.5t-120.5 -8.5t-120.5 -6.5t-101.5 -4.5t-63.5 -2q-31 0 -57 -5t-55 -13q-12 -48 -19 -104t-21 -117q-5 -24 -10.5 -49t-10 -47.5t-7.5 -41.5t-4 -31q21 0 48.5 1t57.5 3t60.5 4.5t57.5 5.5q71 6 121.5 10.5t91 8t75 7.5t74.5 10q21 3 50.5 6t61 6.5t63 8 t57.5 11.5q16 4 32.5 10.5t33.5 12.5t34.5 10t35.5 4q21 0 40.5 -9t34.5 -25t24 -38.5t9 -48.5q0 -9 -9.5 -25.5t-26 -33t-39.5 -30.5t-50 -19q-88 -17 -177 -26.5t-196 -23.5l-154 -18t-143 -17.5t-116 -15t-74 -11.5q-23 -4 -49 -11.5t-52.5 -14.5t-50.5 -12t-43 -5h-2 q-36 0 -63 8.5t-45 30t-27.5 58t-9.5 91.5z" />
<glyph unicode="F" horiz-adv-x="1193" d="M159 57q0 116 13 226.5t23 201.5q1 7 5.5 39t11.5 80.5t16 109t18 123t17.5 123t15.5 109.5t11 81.5t4 39.5q0 13 -4 26.5t-9 27.5t-9 28.5t-4 29.5q0 19 12.5 40t31 38.5t40 29t39.5 11.5q41 0 70 -7t55 -7q38 0 91.5 9t121.5 23q59 12 118 22.5t115.5 19t108.5 13.5 t97 5q17 0 41 -8.5t46.5 -22t38 -30.5t15.5 -33q0 -30 -16.5 -62t-63.5 -64l1 1q-12 -10 -30.5 -12.5t-40.5 -2.5q-44 0 -83 -1.5t-58 -1.5q-25 0 -67 -4t-91 -10t-100 -14.5t-95 -17.5t-75.5 -18.5t-41.5 -17.5q-6 -10 -19 -57.5t-26 -115t-23 -146.5t-10 -153 q55 11 113 24.5t126 25.5q37 6 79.5 18t85.5 24t83.5 21t73.5 9q36 0 60.5 -2.5t40 -10.5t22 -24.5t6.5 -45.5q0 -26 -12.5 -50.5t-32.5 -45.5q-14 -15 -52.5 -28t-83 -23.5t-85 -18t-58.5 -10.5q-70 -12 -138.5 -26.5t-123.5 -28.5t-90.5 -26.5t-39.5 -20.5 q-7 -16 -11.5 -43t-7.5 -60.5t-4 -70.5t-1 -73q0 -59 -0.5 -99t-0.5 -81q0 -25 -3 -48t-13.5 -40.5t-31.5 -28t-56 -10.5h-10.5t-10.5 1q-6 1 -28 9t-46 25.5t-42.5 43.5t-18.5 63z" />
<glyph unicode="G" horiz-adv-x="1645" d="M98 374q0 144 66 298t200 310q56 65 115 123.5t113 104.5q38 32 85 64.5t99 62.5t107 56t110 47q59 22 112 39t104.5 28t104.5 17t112 6q38 0 73.5 -14t63.5 -39t44.5 -57.5t16.5 -70.5q0 -55 -33 -86.5t-96 -31.5q-26 0 -47 11t-38.5 23.5t-33 23.5t-32.5 11 q-54 0 -125.5 -15t-163.5 -54q-87 -37 -167 -88.5t-156 -114.5q-74 -61 -142.5 -138t-120.5 -154q-20 -30 -37.5 -69t-30.5 -83.5t-20.5 -92t-7.5 -94.5q0 -46 26.5 -75.5t64.5 -46.5t80 -23.5t73 -6.5q58 0 123 14t130.5 38.5t127.5 57.5t113 70q13 10 37 32.5t47 49 t40.5 52t17.5 41.5q0 9 -2.5 21l-5 24t-5 23.5t-2.5 18.5q0 65 125 65q32 0 62.5 -15t54.5 -36t39.5 -43.5t16.5 -37.5q0 -3 -8.5 -22.5t-22 -47.5t-29.5 -60.5t-30 -60.5t-24.5 -48.5t-12.5 -25.5q-15 -36 -32 -87t-31.5 -102.5t-23.5 -97t-9 -69.5q0 -9 4.5 -16.5t9.5 -14 t9.5 -12.5t4.5 -12q0 -29 -11 -54t-30.5 -44t-46 -29.5t-57.5 -10.5q-36 0 -59.5 11t-38 31t-20 48.5t-5.5 63.5q0 20 11 56t26 76.5t31 80t26 65.5q-67 -45 -129 -84t-129.5 -68t-146 -45.5t-178.5 -16.5t-188.5 27t-154.5 74.5t-104.5 111.5t-38.5 137z" />
<glyph unicode="H" horiz-adv-x="1687" d="M157 84q0 21 4.5 49t10.5 56t11 51.5t6 34.5q13 61 26.5 141t27 173.5t27 196.5t26 209.5t24.5 212.5t22 205q2 15 11.5 31.5t25 30t35.5 22.5t42 9q5 0 9 -0.5t9 -1.5q38 -7 61 -19.5t35 -31.5t16 -45t4 -60q0 -64 -9 -133.5t-25 -141.5q-7 -33 -13.5 -69t-11.5 -72 t-8 -69.5t-3 -62.5q2 -3 10.5 -5t19.5 -3t22.5 -1.5t19.5 -0.5q15 0 51 0.5t84 2.5t104.5 4.5t114 6.5t111.5 9.5t98 12.5t72.5 16t35.5 20q5 7 13 40.5t17.5 84.5t19 115.5t17.5 134.5t13 141t5 135q0 12 10 30t27 35.5t41 29.5t51 12q18 0 41 -6t43.5 -18t34.5 -31t15 -45 q0 -51 -11.5 -132t-31.5 -190q-22 -118 -46 -255.5t-35 -280.5q0 -7 -2 -35t-5 -71t-6.5 -97.5t-6.5 -115t-5 -123.5t-2 -123q0 -34 -12.5 -60.5t-33.5 -45t-49 -28t-59 -9.5q-18 0 -39.5 7.5t-40 22t-31.5 36.5t-13 52q0 20 4.5 56t11 81t14.5 96t14.5 101t11 95t4.5 78 q0 18 -3 32t-17 14q-30 0 -81 -3.5t-106.5 -8t-108 -8t-85.5 -3.5q-7 0 -34.5 -1.5t-65 -3.5t-80.5 -5.5t-81 -6.5t-65.5 -6.5t-34.5 -6.5q-5 -5 -11.5 -41t-13 -83.5t-11.5 -96t-7 -78.5q0 -63 -7.5 -123t-26 -107t-48.5 -75.5t-75 -28.5q-28 0 -50.5 14t-38.5 36t-25 47.5 t-9 47.5z" />
<glyph unicode="I" horiz-adv-x="637" d="M126 199q0 48 2.5 91.5t7.5 85.5q8 68 23 159t32 193q3 16 9.5 51t15 80.5t18 96t18.5 96.5t16 82.5t10 54.5q6 33 9 51t6 33.5t7 34.5t11 53l-1 -2q2 16 12 35.5t24.5 37t33 29t36.5 11.5q42 0 71 -19.5t46.5 -47.5t25 -59.5t7.5 -55.5v-15q0 -14 -5.5 -49.5 t-27.5 -88.5q-17 -43 -27 -73t-12 -45q-18 -114 -34.5 -245t-36.5 -284q-5 -42 -10.5 -87.5t-9.5 -85.5t-6.5 -70.5t-2.5 -41.5q0 -8 4 -19.5t9 -23.5t9 -23t4 -19q0 -23 -14 -46t-46 -45q-26 -19 -52 -28.5t-52 -11.5q-48 0 -74.5 24t-39 57t-14.5 69t-2 60z" />
<glyph unicode="J" horiz-adv-x="1255" d="M44 192q0 57 38.5 86t98.5 29q32 0 136 -43q33 -13 58.5 -23t48 -17t44.5 -10t49 -3q190 0 280.5 166.5t90.5 500.5q0 96 -3.5 189t-8.5 169q-4 54 -5.5 91.5t-1.5 63.5q0 18 14 35.5t34.5 31.5t43 22.5t38.5 8.5q43 0 75 -20.5t40 -52.5q2 -7 5.5 -36t7.5 -69t8 -84.5 t7.5 -82t6 -62.5l2.5 -25q0 -178 -9 -313t-29 -223q-16 -68 -46.5 -139t-75.5 -136t-103.5 -119t-130.5 -89q-43 -21 -96 -31t-116 -11q-85 0 -172 12q-48 6 -93 17.5t-84 27.5t-71 36t-55 43q-26 28 -26 60z" />
<glyph unicode="K" horiz-adv-x="1599" d="M232 275q0 33 1.5 91.5t4 133t5.5 159.5l6 170t6 165t5.5 145t4 108.5t1.5 56.5q0 5 -1 13.5t-2.5 18.5t-2.5 20t-1 16q0 41 38 79q36 34 85 34q40 0 79 -21q58 -29 58 -69q0 -14 -3.5 -34t-5.5 -35q-5 -36 -8 -73.5t-6 -78.5q-5 -102 -8 -217.5t-7 -247.5q7 4 18.5 10 t24.5 13.5t26 15.5t23 15q81 49 161.5 117.5t158.5 161.5q52 62 95 111.5t81 92t72.5 80.5t70.5 75q7 7 18 17.5t24.5 20t28.5 16t31 6.5q15 0 35 -14t37.5 -33t30 -39.5t12.5 -34.5q0 -17 -16 -49l-17 -35q-3 -5 -5.5 -13t-4.5 -13q-3 -9 -6 -16t-9 -14t-15.5 -14 t-25.5 -15q-10 -5 -21.5 -9t-22 -8.5t-18 -9t-9.5 -9.5q-34 -53 -57 -82.5t-40 -51.5q-28 -35 -65 -73.5t-75 -73.5t-78.5 -69.5t-78.5 -62.5q-16 -12 -32.5 -22.5t-35 -22.5t-39.5 -25.5t-45 -30.5q118 -41 244 -95.5t262 -104.5q44 -16 68 -25t40 -13.5t28.5 -5.5t33.5 -1 q10 0 29 2t42 5t48.5 7t48.5 7q17 -28 26.5 -55.5t9.5 -53.5q0 -28 -12 -53.5t-34 -44t-53 -29.5t-69 -11q-61 0 -184 42q-103 36 -211.5 81.5t-222.5 102.5q-54 27 -133.5 51t-173.5 36q-4 -8 -7.5 -28.5t-6 -45.5t-3.5 -51t-1 -46q0 -44 7 -74.5t21 -61.5q19 -37 28 -64.5 t9 -43.5q0 -39 -40 -67t-117 -48q-51 30 -82 66t-48 79t-22.5 92.5t-5.5 104.5z" />
<glyph unicode="L" horiz-adv-x="1386" d="M183 57q0 50 12 122.5t28 150.5q4 21 14.5 81.5t24 140.5t28 171t27.5 173t22 146.5t12 91.5q5 49 7.5 93t7 80.5t12.5 65.5t24.5 49.5t43.5 31t69 10.5q38 0 62 -13t38 -34t19.5 -47.5t5.5 -53.5q0 -10 -6 -46.5t-16 -90t-22.5 -119t-25.5 -133.5t-24.5 -133t-20.5 -117 q-8 -48 -20.5 -104t-22.5 -113q-7 -42 -14.5 -84.5t-13.5 -80.5t-9.5 -69.5t-3.5 -51.5q0 -11 2 -20.5t8 -9.5q21 0 55 6.5t74 16.5t82.5 22t78.5 23q9 2 34 7.5t58.5 12.5t71 14t71 13t59.5 9.5t36 3.5q14 0 51 5t87 5q80 0 116 -19.5t36 -68.5q0 -20 -6.5 -40.5 t-20.5 -36.5q-11 -15 -27 -26t-34 -18.5t-36.5 -11t-33.5 -3.5h-151q-46 0 -101.5 -8t-112.5 -20t-113.5 -27t-105.5 -28q-81 -23 -151.5 -40t-121.5 -17q-44 0 -75 11.5t-50.5 31t-28.5 44.5t-9 52z" />
<glyph unicode="M" horiz-adv-x="2058" d="M111 245q0 11 7.5 44.5t19 80.5t25.5 101.5t28.5 107t27 99t20.5 75.5q14 50 29 104t29.5 109t29 109.5t26.5 103.5q6 50 12 73q6 27 16 57.5t24.5 56t35 42.5t48.5 17q81 0 129.5 -18t78 -55.5t46.5 -96.5t35 -142q5 -23 12 -40.5t15 -38.5q34 -104 82.5 -206.5 t112.5 -202.5q26 21 47.5 53.5t47.5 79.5q23 41 46.5 77.5t53.5 69.5q11 12 35 41.5t55.5 69t66.5 83.5t66 83.5t55 70t34 43.5q11 13 17 20.5t15 17.5q11 16 36 49t52.5 70t53 70.5t37.5 50.5q14 21 53 21q21 0 45 -12.5t44.5 -30.5t34 -38t13.5 -35l1 5q0 -15 -4 -22.5 t-10 -16.5t-13.5 -23t-13.5 -41q-6 -28 -11.5 -49t-9.5 -40t-6.5 -38.5t-2.5 -45.5q0 -45 -2 -89t-6 -91.5t-9.5 -99t-12.5 -111.5q-10 -85 -20 -180t-10 -196v-63t1.5 -77t4 -83.5t7.5 -82.5q5 -5 8.5 -6.5t10.5 -6.5q36 -23 52 -40t16 -46q0 -21 -13 -44.5t-34.5 -43.5 t-49 -33t-56.5 -13q-58 0 -96 36t-59.5 92.5t-30 126t-8.5 137.5v35q0 28 5.5 85t14 130t19 155t22 160.5t22 146.5t18.5 112q-12 -15 -33.5 -43.5t-48 -63.5t-56 -74t-57 -76.5t-52 -70.5t-41.5 -56q-38 -52 -73 -103t-73 -105q-3 -3 -9.5 -13t-14.5 -22.5t-16 -24.5 t-14 -18q-70 -94 -154 -118q-54 17 -86.5 37t-53.5 43.5t-35.5 51.5t-33.5 59q-20 34 -36 62t-28 50q-26 47 -49 99t-43 106q-14 45 -24.5 77t-19.5 60t-18 57t-20 68q-2 -7 -8 -34t-15 -67t-20 -89t-22 -100t-21.5 -99.5t-19 -87.5t-14.5 -64.5t-7 -30.5q-20 -80 -20 -152 q0 -15 -1 -46.5t-2 -67t-1.5 -68.5t-0.5 -51q0 -15 -9 -37t-25 -42t-37 -34.5t-44 -14.5q-33 0 -57 3t-41.5 12t-30.5 26t-24 44q-4 9 -6 19.5t-3.5 26.5t-2 39.5t-0.5 59.5z" />
<glyph unicode="N" horiz-adv-x="1715" d="M165 84q0 17 3.5 44.5t9.5 60.5t14 67.5t16 64.5q12 44 27.5 112.5t32.5 148.5t34 167t31 169.5t24.5 154t14.5 121.5v55q0 18 5.5 43.5t21 49t43.5 39.5t74 16q37 0 60.5 -14t39.5 -39.5t27 -61t23 -79.5q11 -41 38 -101.5t65.5 -133.5t87 -155t102.5 -165t111.5 -164 t114.5 -152q13 53 25.5 113t24 121t22 119.5t19 108.5t15 89t10.5 60q14 82 25.5 144t19 116t11.5 106t4 114q0 16 3 35t8.5 37t14 34t18.5 25q18 17 33 26t28.5 13t27.5 5t31 1q36 0 56.5 -16.5t31 -42.5t13 -56.5t2.5 -59.5q0 -9 -4 -33t-9.5 -54t-12.5 -61t-13 -54 q-42 -159 -72.5 -301t-53 -266.5t-38 -231t-26.5 -193.5q-1 -13 -2.5 -24t-2 -24.5t-1 -31.5t-0.5 -45q0 -52 -16.5 -80.5t-41 -42t-52 -16t-48.5 -2.5q-43 0 -69 18.5t-48.5 52t-47 79.5t-65.5 100q-112 152 -227 324.5t-234 386.5q-19 -89 -35 -186.5t-29.5 -192.5 t-24 -182t-19.5 -156q0 -26 -3.5 -57t-8 -58.5t-9 -47.5t-6.5 -25q-5 -12 -16.5 -30t-27 -34.5t-35 -28t-40.5 -11.5q-39 0 -63 11t-38 32t-19 52.5t-5 72.5z" />
<glyph unicode="O" horiz-adv-x="1646" d="M101 429q0 95 29.5 208.5t84.5 228.5t132.5 222.5t173 191t207 133.5t233.5 50q63 0 123.5 -7.5t114.5 -22t100.5 -35.5t81.5 -48q72 -54 113.5 -102.5t62.5 -99t26.5 -106t5.5 -123.5q0 -63 -20.5 -141t-58 -161t-90.5 -164.5t-119 -151.5q-103 -109 -194 -180.5 t-181 -114t-185.5 -59t-208.5 -16.5q-60 0 -115.5 22t-103 59t-87 87t-67 105t-43 113t-15.5 112zM354 438q0 -64 20.5 -117t54.5 -90.5t77 -58.5t89 -21q75 0 146 21t136.5 57.5t124.5 85.5t108.5 105.5t89 118t67.5 121.5q27 59 46.5 137t19.5 158q0 33 -3.5 64t-14.5 60 q-9 27 -36 59.5t-71.5 60.5t-106 47t-140.5 19q-63 0 -120 -26t-108.5 -68.5t-98 -96t-88.5 -108.5q-37 -49 -72 -110.5t-61.5 -130.5t-42.5 -142t-16 -145z" />
<glyph unicode="P" horiz-adv-x="1599" d="M202 1235q0 41 17 71.5t54.5 54.5t96 42.5t142.5 35.5q48 10 104 19.5t113 17t111 12.5t98 5q53 0 102.5 -1t97.5 -5t95.5 -11t96.5 -19q110 -27 176 -80q80 -62 80 -159q0 -16 -8 -44.5t-20.5 -61t-27.5 -63t-29 -50.5q-34 -48 -93.5 -101t-140.5 -108 q-75 -51 -155 -98.5t-158 -86.5q-94 -48 -194.5 -90.5t-197.5 -73.5v-48q0 -13 1.5 -42t4 -67t5 -81t5 -84t4 -76t1.5 -57q0 -51 -32.5 -79.5t-86.5 -28.5q-144 0 -144 487q0 43 2.5 87t8 94.5t13.5 108.5t19 130q9 60 18.5 115t21.5 107.5t28.5 103.5t39.5 103 q-32 -9 -65.5 -20.5t-70.5 -23.5q-11 -5 -22 -8t-24 -3q-38 0 -62.5 21t-24.5 55zM579 669q33 14 75 31.5t85.5 36t85 37t73.5 33.5q17 9 38.5 20t44 23t45.5 24.5t42 24.5q48 29 99.5 68.5t94.5 84.5t70.5 91.5t27.5 87.5q0 21 -51 34q-75 20 -153.5 25.5t-140.5 5.5 q-79 0 -172.5 -9.5t-184.5 -24.5q30 -30 30 -81q0 -6 -7.5 -31.5t-16.5 -55.5t-17.5 -56t-11.5 -32q-5 -13 -9.5 -32.5t-9 -42.5t-8.5 -47.5t-8 -47.5q-6 -31 -9.5 -54.5t-5.5 -42t-3.5 -35.5t-2.5 -35z" />
<glyph unicode="Q" horiz-adv-x="1701" d="M96 418q0 90 24 185t67 188.5t101.5 182.5t128 168.5t147 146.5t157 115.5t159.5 75.5t154 27q28 0 63 -16.5t67 -43.5t55.5 -62t28.5 -71q69 -54 133.5 -126t114 -151.5t79 -160.5t29.5 -152q0 -58 -16.5 -112.5t-44.5 -105.5t-63.5 -97t-73.5 -86q-53 -56 -111.5 -98 t-121.5 -80q21 -23 47 -56.5t54 -71t54.5 -76t47.5 -72.5t33.5 -61t12.5 -40q0 -21 -17 -38.5t-40 -30t-45.5 -19.5t-33.5 -7q-35 0 -60.5 17.5t-38.5 32.5q-14 30 -35.5 65t-45 70.5t-47 68.5t-43 58t-31.5 40.5t-13 15.5q-11 0 -43 -8.5t-79.5 -18.5t-108.5 -18.5 t-130 -8.5q-57 0 -117.5 10.5t-118 33t-108 57t-89 82.5t-60.5 109.5t-22 138.5zM347 434q0 -70 24.5 -117t62 -75.5t82.5 -41t86 -12.5q8 0 31.5 1t55 3.5t67 7.5t68.5 12q-18 22 -41.5 45t-45 44.5t-36.5 40t-15 31.5q0 37 20 62t48 40t57 21.5t48 6.5q29 0 54 -16.5 t42 -56.5q9 -21 25 -42.5t32 -39.5t29 -29.5t16 -11.5q28 0 62.5 20.5t70 54.5t69 78t59.5 90t42 91.5t16 81.5q0 60 -25 124.5t-64 125.5t-87 115.5t-93.5 95.5t-83.5 65t-57 24q-27 0 -55 -4t-52 -17q-67 -35 -131 -90.5t-121 -123.5t-105 -145.5t-82.5 -156.5 t-53.5 -156.5t-19 -145.5z" />
<glyph unicode="R" horiz-adv-x="1794" d="M199 1228q0 52 90 96q35 17 70.5 31t70.5 25q39 12 93 23t119 21q62 9 118 14.5t100 5.5q152 0 293 -36q74 -19 136 -51t111 -77q108 -97 108 -251q0 -100 -77 -197q-65 -80 -149 -139.5t-185 -114.5l64 -46t69 -48q55 -38 102.5 -72t89.5 -63t92.5 -64t111.5 -77 q58 -39 106.5 -70.5t80.5 -51.5l18 -25q-1 -26 -17 -47t-45 -36q-20 -11 -45.5 -17t-51.5 -6q-60 0 -118 24.5t-125 69.5q-33 22 -84 58.5t-117 87.5q-16 12 -63 48.5t-125 98.5q-72 57 -115 89.5t-49 35.5q-12 5 -23.5 5.5t-42.5 0.5h-14t-16.5 -0.5t-25 -1.5t-41.5 -3 q-61 43 -61 117q0 36 17 59t49 34l12 3t8.5 1.5t12.5 2t23 2.5q29 0 56 7t52.5 17.5t49 23t45.5 23.5q32 16 66.5 37t69.5 44q31 21 60.5 46t58.5 54q23 23 33.5 46.5t10.5 46.5q0 35 -22 67t-55.5 58t-73 45t-74.5 29q-69 20 -136 20q-20 0 -50 -2t-67 -6 q-34 -4 -66.5 -7.5t-62.5 -8.5q-14 -2 -22 -3t-16 -2.5t-18.5 -3.5t-28.5 -6q8 -19 14 -40t11 -46q9 -39 11.5 -71.5t2.5 -58.5q0 -30 -0.5 -57t-2.5 -53q-3 -53 -12 -106q-9 -52 -24 -135q-12 -71 -20 -125.5t-13 -96.5q-5 -40 -7.5 -78t-2.5 -72q0 -31 3 -59t9.5 -54.5 t18 -52.5t28.5 -54q-10 -16 -25.5 -30t-33 -25t-35.5 -17.5t-34 -6.5q-81 0 -118 34q-42 36 -51 84q-5 24 -6.5 54t-1.5 68q0 55 6 106q5 45 11.5 86.5t14.5 82.5q5 18 8 34t5.5 33.5t5.5 38t7 47.5q13 82 21 158t8 139q0 48 -2.5 100.5t-8.5 109.5q-32 -9 -54 -13.5 t-30 -4.5q-53 0 -70.5 25.5t-17.5 71.5z" />
<glyph unicode="S" horiz-adv-x="1253" d="M20 32q0 16 6 39t17.5 44.5t27 37t33.5 15.5q25 0 47 -6l49.5 -13.5t64 -14t90.5 -6.5t112.5 11.5t115.5 31t109 44.5t94 52q18 12 39.5 27.5t40 34t31 38.5t12.5 41q0 24 -36 46v-1q-53 32 -105 49t-91 28q-110 28 -268 89h1q-66 26 -128 67t-107 86q-100 111 -100 256 q0 57 32 111t87 101.5t127.5 87.5t154.5 68.5t167.5 44.5t165.5 16q25 0 62.5 -3.5t77 -10t75.5 -16t57 -21.5h-1q58 -31 91.5 -74t33.5 -84q0 -14 -3.5 -34t-10.5 -41.5t-15.5 -41t-19.5 -31.5h1q-32 -38 -151 -38q0 43 -3.5 74.5t-11.5 50.5q-7 16 -25 27t-40.5 18 t-45.5 10.5t-40 3.5q-43 0 -84 -2t-80.5 -8t-80 -17t-82.5 -28q-30 -12 -63.5 -30t-62.5 -40.5t-49.5 -49t-25.5 -56.5l1 2q0 -24 16 -53.5t43.5 -58t63.5 -52t76 -34.5q3 -1 17 -6t34 -11.5t42.5 -14.5t42 -14.5l33 -11t15.5 -5.5q232 -59 344 -142t112 -204 q0 -39 -17 -77.5t-43 -73.5t-56.5 -64.5t-57.5 -49.5l1 1q-29 -23 -65.5 -47t-78.5 -47t-87 -43t-92 -35q-44 -14 -92.5 -26.5t-96.5 -21.5t-92.5 -14t-80.5 -5q-19 0 -46.5 4.5t-58 12.5t-61 19t-54.5 25t-39 30t-15 34z" />
<glyph unicode="T" horiz-adv-x="1436" d="M17 1154q0 17 3 33t11 29.5t23.5 23.5t39.5 16q56 14 125 21.5t138 7.5q13 0 48.5 4t83 10t102 13.5t104 14.5t88.5 13t57 9q65 12 130 26t130 27t129.5 21.5t127.5 8.5q8 0 26 -0.5t41 -2.5t48.5 -6t47.5 -11q17 -5 30 -18t22.5 -29t14.5 -31.5t5 -25.5 q0 -31 -9.5 -49.5t-24.5 -29t-32.5 -14t-33.5 -3.5q-36 0 -64.5 0.5t-55.5 1.5t-56.5 1.5t-68.5 0.5q-25 0 -57.5 -3t-67.5 -8t-70 -12t-65 -14t-52.5 -14.5t-32.5 -13.5q-7 -4 -12.5 -22.5t-5.5 -32.5l-26 -240q-15 -140 -28.5 -275.5t-13.5 -267.5q0 -18 3 -51.5t7 -66.5 t7 -58t3 -27q0 -24 -7.5 -49t-21.5 -45t-34.5 -32.5t-46.5 -12.5q-17 0 -36 8.5t-37 23t-32 34t-22 41.5q-9 25 -14 58t-8 67.5t-4 68t-1 60.5q0 45 5 113.5t12.5 147t16.5 160t17.5 153t15 124.5t8.5 75q-32 0 -81 -5.5t-106 -12.5q-72 -9 -148 -17t-144 -8q-14 0 -39 2.5 t-49 10t-42 21t-18 35.5q-2 8 -2.5 10.5t-0.5 12.5z" />
<glyph unicode="U" horiz-adv-x="1582" d="M165 622q0 34 4 75.5t10 86t14 89t15 84.5q10 53 17 100.5t15 92.5q12 69 22.5 137t29.5 122t52 87.5t88 33.5q20 0 40 -17.5t35.5 -41t25.5 -47.5t10 -37q0 -6 -4.5 -27t-12 -49t-16 -60t-16 -60t-13 -49t-6.5 -27q-4 -21 -10 -58t-13.5 -82t-15 -95t-13 -96.5t-9.5 -86 t-4 -64.5q0 -148 50 -267q12 -30 42.5 -59.5t67.5 -53.5t75 -38.5t65 -14.5q150 0 251 42.5t152 138.5q24 45 37.5 93t21.5 95.5t13 93t12 85.5q10 102 16.5 195t14.5 174t20 146.5t32.5 112.5t52.5 72.5t80 25.5q30 0 50 -11t32 -29.5t17 -43t5 -51.5q0 -37 -6.5 -88.5 t-15 -105.5t-17.5 -104.5t-15 -84.5q-5 -32 -9 -77.5t-7 -94.5q-4 -66 -12.5 -143t-24.5 -162q-21 -109 -82 -200.5t-153 -157.5t-209.5 -103t-250.5 -37q-44 0 -96 12.5t-101.5 32t-91.5 43.5t-68 48q-51 48 -88 108t-60 126.5t-34 135.5t-11 135z" />
<glyph unicode="V" horiz-adv-x="1495" d="M31 1437q36 78 110 78q43 0 99 -41q2 -2 9.5 -19t18.5 -46q10 -26 24.5 -61t34.5 -82q21 -52 45.5 -110.5t49.5 -118.5q22 -53 43 -115t45 -122q64 -160 114.5 -297t102.5 -246q27 54 66 114t80.5 121t81.5 121t71 112q42 71 67.5 126t50.5 103q40 77 97 203 q29 63 51.5 113.5t37.5 88.5q10 24 27 36.5t44 12.5q64 0 95 -69q12 -26 14 -54t2 -50q0 -82 -134 -327q-36 -64 -79 -132q-40 -64 -76.5 -117t-76.5 -111q-28 -42 -57 -83.5t-61 -86.5q-29 -42 -54 -79.5t-43 -66.5q-35 -57 -64.5 -118.5t-43.5 -125.5q-47 0 -86 4t-71 13 q-22 6 -49 41t-57 94q-13 27 -29 59.5t-33 68.5t-33.5 73.5t-31.5 73.5q-33 79 -67.5 161.5t-66.5 164.5q-66 171 -68 173q-45 108 -83 195t-69 156q-35 77 -48 172z" />
<glyph unicode="W" horiz-adv-x="2074" d="M112 1310q0 17 8.5 35.5t23 33.5t34 25t41.5 10q23 0 46 -17t45 -52q39 -62 62 -138q8 -25 17.5 -68t23 -105t32 -144.5t43.5 -187.5q23 -99 39 -174t28 -131t21 -94.5t18 -64.5q50 85 92 161t75 140t58 115t41 85q26 54 54 122.5t72 162.5q6 12 17 24t26 21.5t32.5 15.5 t34.5 6q29 0 60 -32.5t60 -95.5q3 -7 13.5 -33.5t24.5 -63.5t30.5 -80t32 -83t28 -72.5t19.5 -48.5q56 -131 87 -208.5t49 -101.5q38 69 73 149.5t66 166t58 172.5t49 168q23 83 38.5 165t26 159.5t16.5 147.5t9 130q1 10 10 25t24 29t33.5 24t37.5 10q72 0 97 -52 q22 -40 22 -80q0 -25 -3.5 -61.5t-10 -81t-15.5 -95t-20 -104.5q-23 -109 -47 -204.5t-50 -165.5q-26 -69 -47 -130.5t-43 -112.5q-5 -13 -21 -49.5t-37 -84.5t-45 -102.5t-45 -102.5t-36.5 -83.5t-20.5 -47.5q-4 -10 -17 -21t-30 -20t-35.5 -14.5t-32.5 -5.5 q-30 0 -57.5 13.5t-52 37.5t-45.5 57t-37 73l-233 572q-21 -48 -49.5 -109.5t-60 -126t-63 -127.5t-58.5 -114q-76 -145 -142 -252v1q-71 -119 -117 -119q-59 0 -97.5 37.5t-65.5 100.5t-47.5 144t-44.5 168q-77 278 -160 682q-2 9 -11 41t-22 82v-1q-15 53 -22 90t-7 60z " />
<glyph unicode="X" horiz-adv-x="1503" d="M-9 123q0 78 81 183q36 46 82 95.5t105 105.5q48 45 99.5 92.5t94 87.5t70 68.5t27.5 36.5q0 10 -32 60t-78 131q-81 145 -128 233.5t-47 123.5q0 20 7.5 49t22.5 57t37 47.5t50 19.5q45 0 73.5 -40t54.5 -120q18 -37 31 -66.5t24 -56t23.5 -51t28.5 -53.5 q13 -21 23.5 -43t21.5 -44.5t23.5 -45.5t28.5 -47q19 21 43.5 46t44.5 45l130 129q6 6 19.5 20.5t30.5 33t36 39t35.5 39t29 32.5t16.5 19q12 14 35 40t52.5 51.5t63 44.5t65.5 19q37 0 60.5 -10.5t37 -29t18.5 -44t5 -54.5q0 -17 -10 -33t-26.5 -28t-38.5 -19.5t-46 -7.5 q-5 0 -19.5 -12t-31.5 -29.5t-34 -37t-28 -34.5q-37 -51 -74.5 -87.5t-74.5 -71.5q-6 -6 -21.5 -20.5t-36.5 -35t-45.5 -44.5t-48.5 -48t-45.5 -46.5t-36.5 -39.5q20 -25 43.5 -53t47.5 -56.5t47.5 -55t42.5 -49.5q41 -47 83 -90.5t93 -91.5q61 -59 118 -99t95 -52 q48 -15 69 -32.5t21 -54.5q0 -22 -14 -46.5t-37.5 -45.5t-53 -34.5t-59.5 -13.5q-63 0 -251 158q-58 50 -112 112t-119 138q-11 14 -32.5 41.5t-45.5 59t-47 62t-38 49.5q-38 -32 -81 -78.5t-81 -89.5q-45 -51 -89 -99.5t-84 -101.5q-12 -15 -31 -38.5t-40 -50.5t-42.5 -55 t-37.5 -52q-8 -14 -17.5 -30.5t-21 -30.5t-25 -23t-28.5 -9q-24 0 -43 13.5t-32 36.5t-19.5 52.5t-6.5 60.5z" />
<glyph unicode="Y" horiz-adv-x="1395" d="M52 1375q0 17 16 38.5t52 41.5q31 17 53 20.5t38 3.5q29 0 57 -15.5t61 -47t72 -79t89 -110.5q88 -111 151.5 -176t96.5 -76q-2 1 13 24t41 60t59.5 84t69 96.5t69.5 96.5t60.5 84.5t43 60.5t16.5 24q24 32 49 66t51 71l25 37.5t24 27.5t29 16.5t38 5.5q44 0 75 -17 q24 -12 37 -31.5t13 -40.5q0 -6 -2 -19.5t-5 -24.5q-25 -57 -72.5 -124t-105 -139t-119 -146.5t-113.5 -146.5q-21 -29 -38.5 -57.5t-45.5 -72.5q-8 -13 -21 -34t-27.5 -44.5t-29.5 -46t-27 -38.5q-8 -130 -14 -265.5t-14 -278.5q-5 -73 -7 -116.5t-5 -54.5 q-10 -45 -49.5 -67t-92.5 -22q-24 0 -45 13t-36.5 32t-24.5 40.5t-9 39.5q0 17 2 47t5.5 66.5t7 77t7.5 78.5t7.5 70.5t5.5 52.5q10 98 15 162.5t5 96.5q0 17 -3 33t-8 28q-49 29 -95 71.5t-87 87.5q-11 13 -29 33.5t-38 43.5t-40 47t-36 44l-26 32.5t-10 14.5 q-35 41 -67.5 75.5t-57 62.5t-39.5 49t-15 34z" />
<glyph unicode="Z" horiz-adv-x="1737" d="M117 137q0 19 16 42t42 48.5t60 53.5t70.5 56.5t73 57.5t67.5 56q23 20 46 38t46 36.5t46.5 39.5t48.5 46q16 17 42.5 45t59 62.5t67 72.5t67 73t59 64.5t42.5 47.5q12 14 40.5 44.5t62.5 64t66.5 64t51.5 44.5q-18 -2 -27.5 -4.5t-23.5 -4.5q-18 -3 -55 -9.5 t-84.5 -14.5t-102.5 -17t-108.5 -16.5t-102.5 -12t-85 -4.5q-92 0 -177 11.5t-157 38.5q-22 8 -37.5 16t-25.5 18t-14.5 23.5t-4.5 32.5q0 8 2.5 22.5t6 30.5t8.5 31t10 22q9 13 28.5 25.5t45.5 12.5q12 0 30 -5q76 -25 143 -40.5t124 -15.5q8 0 32 1t56 3t68.5 4t68.5 3.5 t57 3t34 1.5q45 2 115 9.5t143 16t136 15.5t94 7q24 0 49 -9.5t45 -25t33 -36t13 -43.5q0 -13 -9.5 -27.5t-23 -29t-27 -27t-22.5 -20.5q-114 -114 -228 -237.5t-214 -241.5q-48 -56 -96 -106t-95.5 -97t-93.5 -91.5t-90 -88.5q56 5 117.5 15.5t127 23.5t133 27t134.5 26 q174 32 333.5 49.5t310.5 17.5q13 0 25.5 -9t22.5 -23t16 -31t6 -34q0 -22 -12.5 -41.5t-37.5 -27.5q-6 -1 -20.5 -4t-34.5 -6t-43 -6.5t-46 -6.5q-21 -3 -64 -10t-99 -16.5t-121.5 -20t-131.5 -22t-129.5 -22t-114.5 -19t-87 -14t-47 -7.5q-109 -16 -225.5 -26.5 t-230.5 -15.5q-9 -5 -21.5 -14t-26.5 -20q-35 -27 -71.5 -44t-81.5 -17q-20 0 -37 14t-29.5 33t-19.5 39t-7 32z" />
<glyph unicode="[" horiz-adv-x="831" d="M158 -430l15 163q-2 30 -5 61q-2 26 -3.5 55.5t-1.5 53.5q0 21 1.5 50.5t3.5 63.5t4.5 70t5.5 68.5t5 59.5t4 43q0 4 0.5 7t0.5 5q1 11 3.5 44.5t5.5 82t7 107t8 118t7.5 115.5t6.5 100.5t4.5 72.5t1.5 30q1 26 1.5 57t0.5 61q0 21 -2 56t-6.5 73t-11 74.5t-15.5 61.5 q-11 33 -15.5 56t-6.5 36q0 30 9 54.5t32.5 41.5t63 26.5t100.5 9.5q30 0 74 1t86 2t75 2t43 1q199 0 199 -125q0 -18 -12 -36t-35.5 -32.5t-58 -23.5t-80.5 -9h-57t-51 0.5t-52 1t-60 0.5q-1 0 -1 -4v-7q0 1 2 -7t3.5 -19.5t3 -23.5t1.5 -20q-1 -26 -4 -96t-8.5 -168 t-12 -214.5t-13 -235.5t-12.5 -232.5t-11 -203.5t-8 -148.5t-3 -69.5q0 -6 3 -38.5t3 -89.5q0 -30 -5 -30q11 -8 39 -8q27 0 53.5 2.5t67.5 12.5q33 8 51.5 12t21.5 4q117 0 117 -104q0 -42 -15.5 -66.5t-45 -38.5t-73 -20.5t-99.5 -12.5q-31 -4 -51 -6.5t-34 -5.5 t-24.5 -6.5t-23.5 -7.5q-26 -9 -52.5 -14.5t-53.5 -5.5q-25 0 -46 10.5t-35 27t-22 36.5t-8 39z" />
<glyph unicode="\" horiz-adv-x="1124" d="M8 1515q0 17 12 34.5t32 32.5t45 24.5t51 9.5q27 0 47 -12t37.5 -33t33 -49.5t32.5 -62.5q16 -30 25.5 -49.5t14.5 -25.5q31 -40 59 -85t55 -92t53 -94.5t53 -93.5l-1 2q9 -15 19 -33.5t25 -46t35.5 -68t48.5 -98.5l14.5 -29t27 -55t34 -68t35 -69l29 -58t17.5 -34 q64 -115 121 -220.5t112 -215.5q36 -72 36 -125q0 -18 -4.5 -34.5t-15 -30.5t-28.5 -24.5t-46 -16.5q-18 -4 -32 -4.5t-25 -0.5q-23 0 -40 12t-26 26q-20 42 -49 101t-62.5 127t-69.5 141t-71 144t-67.5 136t-58 116.5t-42.5 85.5t-22 43q-49 95 -89 171.5t-84 141.5 q-14 26 -35.5 57t-40.5 60l1 -1q-11 16 -20.5 30t-16.5 25l1 -1q-8 11 -15 23t-18 29q-41 63 -66 105.5t-38.5 71t-18 47t-4.5 34.5z" />
<glyph unicode="]" horiz-adv-x="858" d="M-43 -408q0 57 20 103q11 27 35 42t60 15q15 0 34 -1t37.5 -2.5t34 -2.5t23.5 -1q4 0 23 2.5t43 5.5t48.5 5.5t38.5 2.5l16 2t19 1q0 92 1 181.5t2 171t3 152t4 125.5t3.5 92t3.5 51q17 152 34 283t31 229.5t24 159t13 72.5q0 2 5.5 14.5t11.5 28t11.5 29.5t6.5 20 q-81 -1 -144 -12q-19 -3 -78 -19q-30 -8 -55 -12t-44 -4q-17 0 -41.5 6.5t-47 18.5t-38.5 28t-16 35q0 20 12.5 46.5t32.5 50.5t44.5 41t49.5 17q8 0 20 -1t24.5 -2.5t23 -3t15.5 -1.5t30 3t54.5 7t57.5 8t39 5q24 4 53 8t56 7t48.5 5t30.5 2q26 0 49.5 -12t41.5 -30 t28.5 -39t10.5 -39q0 -60 -35 -122q-7 -12 -14.5 -41t-15.5 -68t-16.5 -85t-16 -91t-14 -86t-11.5 -71q-14 -85 -25.5 -151t-16.5 -117q-5 -49 -8.5 -104t-5.5 -110.5t-3.5 -108t-2 -95t-1 -72t-1.5 -39.5q-2 -21 -3.5 -52.5t-3 -67t-3 -71.5t-2.5 -65.5t-1.5 -49.5 t-0.5 -24q0 -13 2 -32.5t5 -45.5q9 -53 9 -85q0 -110 -123 -110l-159 17q-38 0 -133 -12q-45 -5 -78 -8t-53 -3t-40 7t-36 18t-26 24.5t-10 26.5z" />
<glyph unicode="^" horiz-adv-x="1178" d="M59 664q0 31 46 87q33 46 62 80.5t55 77.5q8 14 24.5 38t36.5 52.5t41.5 58.5t40 55.5t31.5 44t16 24.5q3 4 5 8t5 9q4 6 7.5 11.5t7.5 10.5q24 37 42.5 63.5t36.5 43.5t39 25t49 8q27 0 43.5 -8.5t31.5 -28t33 -50t46 -74.5t71.5 -102t110.5 -132q32 -35 66.5 -79.5 t63 -89.5t47 -85t18.5 -66q0 -14 -9 -33t-23 -36.5t-32 -29.5t-36 -12q-19 0 -38 11t-35.5 27.5t-29.5 35.5t-21 35q-11 20 -33 51.5t-55 76.5q-71 97 -128 173.5t-105 133.5q-11 -12 -23.5 -27t-25.5 -33q-27 -37 -49 -65t-40.5 -53t-36 -51t-35.5 -60q-3 -7 -10.5 -20 t-16.5 -28.5t-19 -32.5t-18.5 -31t-14 -23.5t-6.5 -11.5q-26 -44 -52.5 -70.5t-70.5 -26.5q-28 0 -49 11.5t-35 29t-21.5 38.5t-7.5 39z" />
<glyph unicode="_" horiz-adv-x="854" d="M-63 -139q0 24 17.5 41.5t43.5 17.5q5 0 22 1.5t46 3.5t50.5 3.5t35.5 1.5q18 0 43.5 -1t57.5 -3t62.5 -3t59.5 -1q46 0 134 9q45 4 79.5 6t58.5 2q16 0 101 -9q43 -5 69 -7.5t35 -2.5q26 0 43.5 -19t17.5 -55q0 -30 -12.5 -40.5t-48.5 -10.5q-24 0 -104 9q-40 4 -66 6 t-39 2q-47 0 -110 -4t-129 -8.5t-129 -8.5t-111 -4q-8 0 -29 1t-54 3t-54 3t-29 1q-31 0 -46 19.5t-15 46.5z" />
<glyph unicode="`" horiz-adv-x="643" d="M39 1406q0 13 11 29t26.5 30t32.5 23.5t29 9.5q21 0 48 -10t56 -31q28 -20 49.5 -40t41.5 -37q22 -19 47 -40.5t59 -45.5q38 -26 60.5 -48t42.5 -36q65 -45 65 -93q0 -35 -23.5 -58.5t-69.5 -23.5q-7 0 -31 9t-45 26q-5 3 -11 8t-12 11q-16 13 -36.5 28t-40 29t-35.5 25 t-24 17q-6 5 -30 22t-58 39q-77 49 -114.5 87t-37.5 70z" />
<glyph unicode="a" horiz-adv-x="1343" d="M61 261q0 66 19.5 134.5t50 133.5t68 124t73.5 105q38 48 91 95.5t111 85t114.5 60.5t100.5 23q24 0 49.5 -1.5t50.5 -4.5t48 -9t41 -15q12 -8 26.5 -28.5t27 -44t21.5 -46.5t9 -36q0 -28 -8.5 -66.5t-19 -80.5t-19.5 -86t-9 -84q0 -28 8 -57t23 -52.5t36 -38.5t47 -15 q59 0 117 22t116 60.5t116 91t117 113.5q2 0 16 15t33.5 33t41 33t37.5 15q29 0 38 -17t9 -52q0 -12 -4.5 -28.5t-11.5 -33t-15.5 -32t-16.5 -26.5q-5 -7 -16 -19.5t-25 -28t-31.5 -33.5t-35.5 -36q-58 -54 -117.5 -106.5t-124.5 -93t-136 -65.5t-151 -25q-34 0 -69 15 t-65 41t-52.5 62.5t-31.5 78.5q-18 -30 -47 -64.5t-63.5 -68.5t-71.5 -64.5t-69 -52.5q-22 -15 -53.5 -31t-66.5 -29.5t-70.5 -22t-65.5 -8.5q-48 0 -84 27.5t-59.5 67.5t-35 85t-11.5 81zM266 266q0 -12 1.5 -23.5t6 -20.5t12.5 -15t21 -6q38 0 86 24.5t96.5 64t94 91 t76.5 105.5q38 66 65 138t27 150q0 9 -3.5 21t-9 22.5t-12.5 18t-13 7.5q-66 0 -120.5 -35.5t-113.5 -96.5q-33 -33 -70.5 -89t-69.5 -119t-53 -126t-21 -111z" />
<glyph unicode="b" horiz-adv-x="1389" d="M204 178q0 3 1 25t2 53.5t2.5 67.5t2.5 67t2 52.5t1 23.5q3 59 7.5 115.5t10 115.5t12 121t15.5 131q17 131 33.5 254.5t47.5 240.5q2 9 10 31t21.5 45.5t33.5 41.5t45 18q47 0 73.5 -15t39 -36t15.5 -44t3 -40q0 -16 -10 -53t-24 -102q-23 -102 -45 -217t-36 -225 q-3 -22 -6.5 -54.5t-7 -68.5t-7 -71.5t-6.5 -64.5q55 100 118.5 178.5t144.5 138.5q56 40 114.5 61.5t110.5 21.5q60 0 113.5 -29t93.5 -75.5t63 -104.5t23 -115q0 -10 -2.5 -29t-9 -42t-18 -47.5t-29.5 -47.5q85 53 161 103t154 97q38 23 62 40t43 28q52 32 72 32 q38 0 54 -23t16 -50q0 -19 -10.5 -41.5t-37 -50.5t-71.5 -63t-114.5 -80.5t-166.5 -102.5t-226 -129q-58 -32 -98.5 -56t-61.5 -38q-13 -8 -31.5 -26t-43.5 -44q-38 -36 -77 -74t-80 -68.5t-85 -50t-93 -19.5q-55 0 -89.5 18.5t-34.5 57.5q0 20 16 44t40.5 48.5t54.5 48 t58.5 44t51.5 35.5t34 23q48 30 75.5 49.5t29.5 21.5q54 39 98.5 82.5t77.5 86.5q30 39 45 87.5t15 102.5q0 17 -5.5 44.5t-15.5 53t-24.5 44t-32.5 18.5q-45 0 -94.5 -33t-97.5 -79t-95.5 -106.5t-98.5 -132.5q-35 -51 -55 -93.5t-30 -77.5t-13 -64t-4 -52 q-1 -27 -12 -52.5t-28 -45.5t-38 -32t-43 -12q-63 0 -86 40.5t-23 124.5z" />
<glyph unicode="c" horiz-adv-x="1075" d="M90 338q0 131 55 263.5t151 260.5q24 32 56.5 67t68.5 63.5t74 47t74 18.5q24 0 46.5 -13.5t44 -36.5t40.5 -53.5t35 -65.5q32 -70 32 -102q0 -17 -3.5 -41.5t-13 -46.5t-25.5 -37.5t-41 -15.5q-37 0 -61 23.5t-40 54.5t-25.5 61t-17.5 43q-24 -9 -50.5 -35t-52.5 -64 t-49 -85.5t-40.5 -101t-28 -109.5t-10.5 -111q0 -51 37 -89q42 -42 78 -42q114 0 219.5 42t203.5 112q66 47 138 105.5t158 140.5q31 30 62.5 57.5t62 48.5t58 34t51.5 13q52 0 52 -55q0 -20 -5.5 -34.5t-17 -29t-29.5 -31.5t-44 -43l-88 -88q-28 -28 -49 -47t-40.5 -35.5 t-40.5 -34l-51 -42.5q-65 -55 -128 -103t-123 -86q-90 -57 -193 -88t-218 -31q-75 0 -133 27.5t-98 74t-60.5 109t-20.5 131.5z" />
<glyph unicode="d" horiz-adv-x="1448" d="M57 211q0 47 4 80.5t12 56.5q43 123 95.5 233.5t129.5 217.5q48 68 95 120t99.5 87.5t113.5 53.5t137 18q64 0 105 -47t58 -131q7 38 13.5 86t12.5 101t11 110t9 113q5 78 13 132t20 74q16 26 40 43t65 17q25 0 47.5 -7.5t40 -19t27.5 -26t10 -28.5q0 -13 -5 -39 t-13.5 -68.5t-20.5 -104t-27 -145.5q0 -6 -2.5 -22t-6 -36.5t-7 -42.5t-7 -41.5t-6 -33.5t-3.5 -17q-12 -78 -20 -145t-8 -134q0 -30 0.5 -64t1.5 -68.5t3 -68.5t6 -65q1 -7 5 -16.5t10.5 -18t15.5 -14.5t20 -6q14 0 30 5.5t33.5 14t34 18t29.5 18.5q53 35 104.5 75.5 t103.5 88.5q51 47 102 91.5t90 86.5q15 15 38 15q16 0 26.5 -15t10.5 -52q0 -18 -5 -35.5t-18.5 -39t-36 -50.5t-58.5 -71v1q-37 -43 -78.5 -85.5t-89.5 -87.5q-46 -44 -92 -81t-89 -64t-81 -42.5t-68 -15.5q-69 0 -110 32t-65.5 87t-37.5 129.5t-24 158.5 q-27 -41 -57.5 -87.5t-64 -92.5t-70 -89t-74.5 -78q-100 -91 -205.5 -136.5t-217.5 -45.5q-39 0 -68 20t-48 51.5t-28.5 69t-9.5 72.5zM279 259q0 -60 22 -60q20 0 52 14t75 43q45 31 81.5 59.5t62.5 55.5q56 57 91 96.5t56 63.5q8 9 17.5 22t19 28t19 30.5t15.5 28.5 q-21 14 -30.5 37.5t-9.5 47.5q0 10 1.5 23t3.5 26.5t3.5 25.5t1.5 18q0 13 -8 27.5t-19.5 26.5t-25 20t-24.5 8q-24 0 -56 -28.5t-67 -71.5t-69.5 -94t-63.5 -95q-32 -50 -55 -93.5t-40 -78.5q-53 -114 -53 -180z" />
<glyph unicode="e" horiz-adv-x="1078" d="M146 417q0 78 11 153.5t36.5 149t66.5 144.5t101 138q22 25 51.5 48t63 41t70 29t72.5 11q53 0 91.5 -20t63.5 -53.5t37 -77t12 -91.5q0 -89 -66 -184.5t-183 -195.5q-38 -32 -88 -69.5t-112 -84.5q2 -25 14.5 -47t34 -38.5t51.5 -26t68 -9.5q49 0 104 12.5t109 33.5 t105 48.5t93 57.5q74 53 142.5 114.5t132.5 125.5l53 53q55 49 94 49q20 0 27.5 -13.5t7.5 -23.5q0 -18 -27 -66q-52 -75 -115.5 -148.5t-135.5 -139.5t-150 -122.5t-158 -97.5t-159.5 -64.5t-155.5 -23.5q-171 0 -266.5 96.5t-95.5 291.5zM361 534q47 35 94.5 73.5t86 80.5 t63 88.5t24.5 98.5q0 22 -4.5 42t-14.5 25q-34 0 -72.5 -29t-73.5 -82.5t-62.5 -129t-40.5 -167.5z" />
<glyph unicode="f" horiz-adv-x="816" d="M-52 -431q0 16 7 38.5t20 42.5t30 34.5t38 14.5q6 0 15.5 -1.5t20 -4t21 -4t18.5 -1.5q17 12 29.5 36t22 54t17.5 63.5t14 65.5q13 67 23.5 128t19.5 119t16 114.5t11 114.5q2 14 4.5 35t5 45t4 47.5t1.5 42.5q0 7 -10 17t-22 23t-22 28t-10 31q3 25 61 97q25 31 37 52.5 t17 43.5t7.5 48t8.5 65q9 57 17 104t19.5 89.5t28.5 83.5t43 86q21 36 51.5 73t68 67t79.5 48.5t85 18.5q90 0 149 -59q66 -63 66 -145q0 -100 -77 -214q-48 -74 -107 -74h-18q13 49 19 92t6 79q0 16 -2 42.5t-8 51.5t-16 43.5t-25 18.5q-10 0 -24 -14t-28.5 -35t-28.5 -46 t-25 -48q-13 -28 -28 -78.5t-28 -108t-23 -115t-14 -101.5v-40q0 -6 14 -9.5t37.5 -5.5t53.5 -2.5t61 -0.5q52 0 99.5 2t94.5 6.5t95.5 11.5t101.5 17q8 1 15.5 1.5t16.5 0.5q50 0 50 -40q0 -10 -8 -24.5t-20 -29.5t-27.5 -28.5t-30.5 -21.5q-15 -7 -50 -17t-81.5 -19.5 t-100 -17.5t-104.5 -13q-45 -4 -77.5 -7.5t-58.5 -6t-49 -4t-50 -1.5q-2 -20 -8 -66.5t-13.5 -106t-16 -126t-17 -127t-15 -109t-10.5 -72.5q-9 -55 -21 -114t-27 -99q-19 -51 -48.5 -97.5t-67.5 -89.5q-78 -87 -187 -87q-24 0 -48.5 8.5t-44 22t-31.5 30.5t-12 34z" />
<glyph unicode="g" horiz-adv-x="999" d="M-74 -146q0 22 13.5 37t33.5 15q9 0 22.5 -7.5t26.5 -17t23 -18t12 -11.5q86 -81 179.5 -120t189.5 -39q58 0 97 37.5t64 93.5t39.5 122t23.5 123q9 59 15.5 131.5t12.5 140.5q-46 -47 -101 -91t-115 -77.5t-122.5 -54t-123.5 -20.5q-32 0 -60.5 14t-49.5 39.5t-33 61.5 t-12 81q0 56 20 121.5t51 131.5t69 127.5t74 109.5t88.5 100.5t113.5 96t126 71.5t126 28q36 0 73 -10t67 -30.5t49 -51t19 -71.5q0 -16 -1.5 -35.5t-4 -40.5t-5 -41t-4.5 -37v-1q-8 -66 -12.5 -146.5t-12.5 -177.5q-3 -36 -7.5 -83.5t-10 -97t-11.5 -97t-12 -84.5 q-9 -58 -23 -122.5t-36.5 -128t-54 -121t-76 -102t-103.5 -70.5t-135 -26q-47 0 -95 11t-94 30t-88 44.5t-77 54.5q-86 71 -123 136q-12 21 -18.5 37t-6.5 35zM296 337q0 -16 11 -21.5t25 -5.5q30 0 67 15t74.5 36.5t72 45.5t59.5 42q9 6 24.5 21t31 34.5t27.5 42t14 43.5 q5 31 9.5 73t9.5 106q2 34 4.5 51t2.5 28q0 22 -3 32q-3 12 -15 16.5t-38 5.5q-45 -30 -89.5 -72t-85 -91t-76 -102t-62.5 -103q-29 -54 -46 -106.5t-17 -90.5z" />
<glyph unicode="h" horiz-adv-x="1632" d="M169 4q0 11 3.5 39.5t9 64.5t11 75t9.5 72q8 64 16.5 140t16 153t14 150.5t9.5 132.5q1 19 3 50.5t4.5 70t4.5 80t4.5 81.5t4 75t2.5 59q1 28 3.5 52.5t8 48.5t14 48.5t22.5 53.5q5 11 16 24t26.5 24t34 18.5t37.5 7.5q42 0 71.5 -29.5t29.5 -82.5q0 -15 -3.5 -40t-8 -49 t-8 -43.5t-3.5 -24.5q-3 -14 -8 -50.5t-11.5 -86t-13.5 -108t-14.5 -118t-14.5 -115.5l-12.5 -100t-8.5 -72t-4 -32q-3 -20 -7.5 -56.5t-10 -75t-10 -72.5t-6.5 -49q9 13 23.5 35.5t30 46t29.5 44.5t21 31q16 24 37.5 54t45.5 61.5t50 62t50 55.5q31 32 70 66t82 62t88 46 t87 18q11 0 27.5 -5t33 -14.5t30.5 -23.5t20 -32q13 -36 22 -87.5t16.5 -107t15.5 -110t18 -98t23.5 -70.5t33.5 -27q27 0 50.5 2t46 7t45.5 13t49 21q55 27 95 51t75.5 50.5t72 59t83.5 75.5q50 46 87.5 74.5t54.5 28.5q12 0 19.5 -5t11.5 -12.5t5.5 -16.5t1.5 -16 q0 -14 -9.5 -33.5t-26.5 -45.5q-10 -16 -26.5 -37t-35 -43t-36.5 -43t-33 -36q-57 -58 -121.5 -112t-135 -96t-145.5 -67.5t-155 -25.5q-69 0 -120.5 25t-80.5 80q-10 18 -20.5 57t-19.5 83.5t-15 87.5t-8 70q-1 18 -3 41.5t-5.5 44.5t-9 35.5t-14.5 14.5q-10 0 -19 -5 q-18 -9 -59.5 -46.5t-94.5 -95t-112 -131t-112 -154.5q-20 -30 -41 -66.5t-41.5 -74t-40 -72.5t-35.5 -62q-11 -16 -26 -27.5t-29.5 -18.5t-26.5 -10t-18 -3q-22 0 -41.5 10t-34 25.5t-23 35.5t-8.5 40z" />
<glyph unicode="i" horiz-adv-x="954" d="M190 509q0 21 3 63t8.5 88.5t12 90t13.5 68.5q15 49 69 93q52 42 116 42q65 0 65 -78q0 -37 -6.5 -78.5t-14.5 -81.5q-13 -73 -18 -131.5t-5 -103.5q0 -51 6 -99t17.5 -85.5t29 -60.5t41.5 -23q30 0 62 5.5t77 29.5q86 47 183 127q34 28 77.5 66.5t86.5 79t81 79.5t60 67 q3 5 8.5 12.5t12.5 15.5t15.5 13.5t16.5 5.5q16 0 23.5 -4.5t16.5 -27.5q11 -25 11 -42q0 -23 -17.5 -58.5t-48 -79t-72.5 -93t-91 -101.5q-53 -57 -115 -112t-132 -106q-69 -50 -136 -77.5t-127 -27.5q-70 0 -121.5 23.5t-88 64t-59.5 93t-36.5 111t-18.5 118.5t-5 114z M318 1366q0 31 16 65.5t41.5 64t56 49t58.5 19.5q35 0 62 -4.5t45.5 -15.5t28.5 -31t10 -50q0 -33 -10 -62.5t-29 -55.5q-38 -53 -117 -53q-28 0 -57 5t-52 14t-38 23t-15 32z" />
<glyph unicode="j" horiz-adv-x="623" d="M-222 -316q0 29 12.5 40t39.5 11q8 0 31 -8t55 -17.5t70 -17.5t76 -8q36 0 62.5 19.5t45.5 53t31 79t19 97.5t9.5 108t2.5 111q0 26 -0.5 61t-1.5 74t-2 80t-2 78t-1.5 68t-0.5 50q0 222 45 331t145 109q45 0 74 -23.5t29 -65.5q0 -10 -5 -24.5t-12 -31l-14 -33 t-11 -30.5q-14 -56 -14 -188q0 -22 1 -56t1.5 -70.5t1.5 -72t1 -59.5q0 -163 -10.5 -301.5t-38.5 -244.5q-16 -63 -44.5 -116.5t-68.5 -92.5t-92.5 -61t-118.5 -22q-57 0 -113.5 20t-101.5 47.5t-72.5 57t-27.5 48.5zM405 1448q0 20 13 40.5t32.5 37.5t42.5 28t44 11 q26 0 53.5 -8.5t50 -24t36.5 -37.5t14 -49q0 -5 -7 -19t-18 -32t-24.5 -37t-27 -34.5t-25.5 -26t-20 -10.5q-29 0 -47.5 5.5t-33 16.5t-26.5 29t-28 43q-15 24 -22 39t-7 28z" />
<glyph unicode="k" horiz-adv-x="1422" d="M165 60q0 26 3.5 57.5t8.5 64.5t10.5 64.5t9.5 57.5q1 5 4.5 32.5t8.5 69.5t12 94.5t13.5 106.5t13 105.5t11.5 92.5t8.5 67t3.5 29q8 61 15.5 124.5t14 126t11.5 122.5t7 114q1 23 9 48.5t23.5 46.5t38 34.5t52.5 13.5q41 0 64.5 -13t35.5 -31.5t15 -38t3 -32.5 q0 -17 -4 -49t-9.5 -72t-12.5 -82.5t-13.5 -80t-11.5 -65.5t-7 -39q-20 -116 -32.5 -186.5t-19.5 -108.5q-10 -54 -16 -90t-10 -62.5t-7 -47t-8 -43.5q32 41 68.5 85t72.5 87.5t69 83.5t57 73q23 32 57 75.5t75.5 82.5t88 66.5t93.5 27.5q29 0 48 -10t30 -25t15.5 -32.5 t4.5 -32.5q0 -25 -22.5 -56t-55.5 -63.5t-70 -64.5t-66 -60q-75 -72 -130.5 -131t-102.5 -115q26 -18 56 -46t62.5 -58t66.5 -60t67 -53q35 -24 57.5 -37.5t40.5 -20t35 -8t39 -1.5q28 0 62.5 12t71 32t74 45t72 52t64.5 53t52 47q26 24 43 39t37 15q15 0 25 -9t16 -20 t8.5 -21t2.5 -12q0 -11 -28 -48t-75 -86t-107.5 -103t-126.5 -99.5t-131.5 -75t-122.5 -29.5q-45 0 -84 11t-74.5 29t-68 42.5t-62.5 51.5t-60 57t-57.5 58.5t-52 53.5t-45.5 42q-37 -37 -60.5 -63t-37 -48.5t-18.5 -45t-5 -54.5q0 -47 -4.5 -78t-17.5 -50t-37 -26.5 t-63 -7.5q-30 0 -48 5.5t-27.5 17.5t-12.5 31t-3 45z" />
<glyph unicode="l" horiz-adv-x="909" d="M191 471q0 71 7 147.5t17.5 154.5t24 154.5t26.5 146.5q9 48 15 85t11.5 74t12.5 79.5t17 100.5q5 28 17 53.5t30.5 45t43.5 31t55 11.5q74 0 108 -69l-11 -57q-9 -48 -23.5 -112.5t-31 -140.5t-33 -159.5t-30 -169.5t-22 -171t-8.5 -164q0 -60 8.5 -109t27.5 -83.5 t49 -53.5t72 -19t87 17.5t90.5 45.5t89 64t81.5 72.5t68 71t49 59.5q9 12 19.5 25.5t24 25.5t29 20t33.5 8q14 0 24 -11.5t10 -33.5q0 -23 -11.5 -57.5t-38.5 -80t-72 -102.5t-112 -125q-37 -37 -83.5 -74t-98.5 -65.5t-107.5 -46.5t-110.5 -18q-74 0 -138.5 26t-112.5 79.5 t-75.5 134.5t-27.5 190z" />
<glyph unicode="m" horiz-adv-x="2084" d="M219 242q0 41 2 74t6 66.5t9.5 70.5t12.5 85q6 42 9 88.5t6 91t7 82.5t11 63q5 17 13 36.5t23 36t38 28t57 11.5q31 0 50 -11.5t29 -31t13.5 -45t3.5 -53.5q0 -24 -6.5 -65t-16 -90.5t-21.5 -103t-22.5 -102.5t-18.5 -88.5t-11 -61.5q2 4 11.5 20t23 39t28.5 49t28.5 49 t23.5 40t12 21q18 30 42 67.5t50 76t51.5 73.5t46.5 59q45 51 95.5 77t107.5 26q61 0 102 -42t55 -110q5 -25 8 -63t4.5 -79.5t2.5 -83.5t1.5 -75t1.5 -54t4 -21q9 0 26 25t38 63t44 82t44 81q35 59 74 113.5t77.5 96t73.5 66t62 24.5q19 0 39 -4t38.5 -11.5t33.5 -18 t23 -23.5q17 -27 25 -59t11.5 -71t5 -86t7.5 -104q11 -104 32 -163t60 -59q17 0 44.5 12.5t60 32t67 43.5t64.5 48q33 26 63 53.5t59.5 56.5t60 60.5t64.5 66.5q21 21 48 21q32 0 32 -46q0 -9 -4.5 -23.5t-11.5 -31t-16.5 -33.5t-18.5 -32q-16 -25 -43 -58t-60 -69t-70 -72 t-73 -67q-29 -24 -68 -53t-83 -54t-89.5 -41.5t-87.5 -16.5q-39 0 -75.5 15.5t-68 58.5t-55.5 120t-38 200q-1 12 -2.5 37.5l-3 51t-3.5 44.5t-4 19q-8 0 -26.5 -24t-44 -63.5t-55.5 -91t-62 -106.5q-40 -70 -75.5 -125.5t-67 -93t-61 -57.5t-59.5 -20q-46 0 -75 17.5 t-46 54t-24 94t-9 136.5q-3 132 -8.5 206t-15.5 74q-12 0 -40 -31t-66.5 -85t-84 -127t-93.5 -157q-12 -22 -29 -51t-35 -59t-35.5 -58t-31.5 -48q-18 -26 -44 -39.5t-55 -13.5q-41 0 -70 17.5t-47 47.5t-26.5 71t-8.5 87z" />
<glyph unicode="n" horiz-adv-x="1553" d="M177 353q0 54 12 159q6 47 13.5 99t19 104.5t27.5 103t37 93.5q12 24 27 38t30.5 21t32.5 9t34 2q15 0 29 -7.5t25 -21.5t17.5 -34t6.5 -46q0 -23 -4 -44t-11 -43.5t-14.5 -47.5t-15.5 -57q-5 -21 -14.5 -54t-19 -68.5t-17.5 -69.5t-10 -57q18 21 41.5 52.5t49.5 68 t53 74.5t54 72q35 44 69 83t71.5 67.5t81.5 45t99 16.5q65 0 106 -26.5t65.5 -73.5t36.5 -111.5t19 -140.5q4 -39 10.5 -80t19.5 -74.5t34 -55t52 -21.5q46 0 100.5 24.5t114.5 67.5t123 100t126 122q20 21 38.5 41.5t35.5 37t33 26.5t32 10q6 0 14 -1.5t15 -6t11.5 -12.5 t4.5 -22q0 -19 -7 -41.5t-17.5 -44.5t-23 -41.5t-23.5 -32.5q-32 -40 -71.5 -85t-82.5 -89t-88 -84.5t-90 -70.5q-35 -24 -67.5 -44.5t-67 -36.5t-73 -25t-84.5 -9q-75 0 -124.5 30t-80.5 80t-47.5 114.5t-25.5 134.5q-13 95 -29 150.5t-39 55.5q-20 0 -39 -9.5t-47.5 -40.5 t-72 -90.5t-113.5 -158.5q-24 -34 -58.5 -76t-72.5 -80.5t-75.5 -68t-69.5 -40.5q-126 28 -126 241z" />
<glyph unicode="o" horiz-adv-x="1184" d="M71 278q0 80 21.5 154t57.5 143t84 135.5t101 131.5q31 38 71 74t84.5 64.5t90 45.5t87.5 17q35 0 60.5 -8t47 -22.5t41.5 -35.5t42 -47l21 -23q8 -8 43.5 -24t84.5 -31.5t103 -27.5t98 -12q45 0 85 1t80.5 7.5t85 20t98.5 37.5q5 -9 7.5 -23t2.5 -22q0 -18 -7.5 -38 t-20.5 -38.5t-29.5 -34.5t-33.5 -27q-36 -24 -104.5 -42t-165.5 -18q-28 0 -59.5 4t-64 11t-64 17.5t-60.5 23.5q6 -9 10 -24.5t5.5 -32.5t2 -32.5t0.5 -24.5q0 -64 -22.5 -127.5t-59.5 -121.5t-84 -107.5t-96 -85.5q-39 -29 -86.5 -50t-100 -35t-108 -21t-112.5 -7 q-47 0 -90 23t-75.5 59.5t-52 82.5t-19.5 91zM300 310q0 -17 4 -34.5t12 -31.5t21 -23t32 -9q46 0 77 4.5t58 16t54.5 31t66.5 48.5q18 14 36 32.5t36 40t35 45t31 45.5q8 12 13.5 31.5t9 39.5t5 37t1.5 24v1q0 25 -2.5 52t-10.5 50.5t-22 41t-37 23.5q-35 9 -57 19.5 t-35 19.5t-18 15t-7 6q-8 0 -22.5 -13.5t-32 -34.5t-36 -45t-35.5 -45q-21 -26 -39.5 -50.5t-36 -51t-34.5 -55.5t-35 -64q-16 -32 -24 -78.5t-8 -87.5z" />
<glyph unicode="p" horiz-adv-x="1376" d="M101 -402q0 21 2 50.5t5.5 63t7.5 68t8 65t7 54.5t5 36q13 95 24 214.5t17 245.5q2 32 3.5 80t3 96.5t3 89t2.5 58.5q9 105 41 157t93 52q24 0 46 -10.5t38.5 -28t26.5 -38.5t10 -42q0 -19 -4 -49t-9.5 -63t-12 -65t-11.5 -54q21 35 45.5 74t49.5 76.5t50 70t48 54.5 q42 41 85 76.5t88 61.5t94 41t103 15q42 0 83.5 -20.5t74.5 -59t54 -93t21 -123.5q0 -34 -10.5 -73.5t-28.5 -78.5t-43 -75t-55 -64q63 32 133 70t140.5 79t139 82.5t126.5 78.5q29 19 50.5 31.5t44.5 12.5q17 0 26.5 -9.5t9.5 -26.5q0 -8 -1 -16t-1 -14q0 -7 -4 -20.5 t-15.5 -33t-33 -44t-56.5 -53.5q-33 -27 -85.5 -60t-117 -68.5t-136.5 -73t-143 -72.5t-138 -67t-121 -57q-35 -16 -69.5 -38.5t-67 -43t-63 -35t-57.5 -14.5q-29 0 -55.5 7t-47 21.5t-32.5 37.5t-12 56q0 27 19 46.5t46.5 34t58 25t52.5 18.5q30 11 56.5 18.5t43.5 16.5 q27 15 51 38.5t45.5 52t40.5 60t36 60.5q11 18 19 41t14 46t9 43.5t3 35.5q0 53 -18 84.5t-45 31.5q-22 0 -52 -16.5t-61 -40t-59 -49.5t-45 -44q-40 -43 -84.5 -96.5t-85 -111t-74 -117t-52.5 -116.5q-12 -34 -18 -78t-9.5 -92t-5.5 -97.5t-5 -95.5q-5 -75 -5.5 -149.5 t-12.5 -136.5q-4 -20 -14 -38t-25.5 -32t-36.5 -22.5t-47 -8.5q-16 0 -36.5 7.5t-38.5 21t-30.5 31t-12.5 37.5z" />
<glyph unicode="q" horiz-adv-x="1331" d="M93 322q0 109 70 253q32 67 76 133t101 134q54 64 113 115.5t122 93.5q65 44 127.5 63.5t122.5 19.5q33 0 62 -12.5t52 -33t39 -48t22 -57.5q-7 -22 -7 -42q0 -11 4 -25t11 -34q13 -26 18.5 -47t5.5 -37q0 -8 -7 -37t-15.5 -62t-16.5 -61.5t-10 -36.5 q-11 -34 -31.5 -109.5t-54.5 -187.5q-4 -13 -11.5 -38.5t-17 -57t-20 -65.5t-19.5 -63.5t-15.5 -51t-8.5 -28.5q36 32 76.5 66t79.5 66.5t75 63t64 54.5q91 81 173.5 157.5t154.5 148.5q23 24 52 53.5t73 77.5q15 14 28 21.5t30 7.5q5 0 10.5 -2t10 -9t7.5 -19.5t3 -33.5 q0 -45 -39.5 -105.5t-102.5 -131.5t-142.5 -149t-159.5 -158q-5 -5 -33 -32.5t-67.5 -66.5t-85 -83.5t-84.5 -83t-66 -66t-31 -31.5q-18 -20 -29 -29t-18 -16.5t-12 -16.5t-12 -28q-8 -23 -17.5 -46.5t-20.5 -44t-24.5 -36t-29.5 -22.5q-22 5 -49.5 17t-51.5 29t-40 38.5 t-16 46.5q0 22 8.5 61t22 88t30.5 104.5t35 109.5q5 14 15.5 43t23.5 66t27.5 77.5t27.5 76.5t23 64t14 41q-42 -39 -96.5 -85t-116 -85.5t-128 -66t-132.5 -26.5q-81 0 -126.5 53t-45.5 164zM301 367q0 -36 11.5 -51t28.5 -15q16 0 40 9.5t51 23t54 30t48 29.5q20 12 54 39 t70.5 58.5t68.5 62t47 51.5q22 29 36.5 71.5t18.5 93.5q-22 11 -39.5 29t-17.5 50q0 22 6.5 45.5t6.5 31.5q0 12 -6 12q-29 0 -94.5 -40.5t-149.5 -118.5q-14 -13 -37 -40.5t-49 -63.5t-52.5 -77.5t-47.5 -83t-34.5 -79.5t-13.5 -67z" />
<glyph unicode="r" horiz-adv-x="1048" d="M175 176q0 26 0.5 49t2 46.5t3.5 49t5 57.5q4 47 11 111.5t15 131t17.5 128.5t19.5 105q12 53 40.5 83t83.5 30q16 0 32.5 -8.5t29.5 -20.5t22 -26t10 -25l1 -18q0 -28 -5 -66t-13.5 -80.5t-18 -86t-19 -83t-17 -73t-11.5 -55.5q35 74 75 142.5t86 127t99 104.5t114 74 q48 22 88 33.5t72 11.5q38 0 78.5 -8t74 -23.5t55.5 -37.5t22 -50q0 -9 -4 -24t-12 -30t-20.5 -26t-30.5 -12q-4 0 -17 0.5t-28 1.5t-28 1.5t-19 0.5q-167 -9 -289 -120q-28 -25 -57.5 -59t-58 -74.5t-54.5 -86.5t-47 -96q-17 -41 -33 -84.5t-28 -91.5q-7 -26 -10.5 -45.5 t-11.5 -45.5q-5 -16 -17 -27.5t-28 -19t-33.5 -11.5t-34.5 -5q-64 0 -88 58t-24 173z" />
<glyph unicode="s" horiz-adv-x="854" d="M13 -116q0 35 13 62.5t40.5 51.5t70 46.5t100.5 46.5q38 15 68.5 29t53 30.5t34.5 37.5t12 51q0 7 -9.5 26t-24.5 44t-33.5 54.5t-36.5 58t-34 53.5t-25 42q-41 76 -41 155q0 34 6 70t20 73q13 46 42.5 90t65.5 78.5t72.5 55.5t63.5 21q36 0 59 -6.5t35.5 -20t17.5 -34 t5 -49.5q0 -24 -12 -47t-29 -43t-36 -37t-33 -30q-21 -19 -40 -35.5t-30 -28.5q1 -63 31 -116q15 -26 37.5 -64t46 -77.5t44.5 -75.5t33 -57q15 7 43.5 26.5t66.5 47t81.5 61.5t87.5 70t85 71.5t74 67.5q28 27 46.5 46.5t32 32t23.5 19t22 6.5q13 0 21.5 -9.5t13.5 -21 t7 -21.5t2 -12q0 -27 -24 -67.5t-60.5 -85.5t-81.5 -91.5t-87 -87.5q-25 -24 -74 -66.5t-109.5 -93.5t-126.5 -105.5t-124.5 -101.5t-103.5 -82t-64 -48q-62 -41 -115.5 -63t-95.5 -22q-35 0 -59 6.5t-39 17t-22 24t-7 27.5z" />
<glyph unicode="t" horiz-adv-x="764" d="M-22 744q0 24 17 38.5t42 22t52 10t48 2.5q10 0 35 2.5t54.5 5t57 5t42.5 2.5q5 0 12.5 19t15.5 49t16.5 66.5t16.5 72t14.5 65.5t10.5 47q11 42 18.5 94t22.5 98.5t42.5 78t78.5 31.5q54 0 80 -23.5t26 -77.5q0 -25 -4.5 -59t-15.5 -68q-24 -77 -41 -144t-27.5 -116.5 t-15.5 -77.5l-4 -28q41 0 78.5 0.5t76.5 2t81.5 4.5t92.5 9q58 7 98 14t70.5 13t55.5 10t52 4q14 0 26.5 -7.5t12.5 -35.5q0 -19 -8 -34.5t-20 -28t-26.5 -22.5t-27.5 -18q-45 -20 -96.5 -35t-102.5 -25.5t-99.5 -17.5t-89.5 -12q-28 -3 -58.5 -6.5t-59.5 -6.5t-54 -6 t-43 -6q-22 -85 -41.5 -163t-33.5 -147q-2 -12 -6 -33t-8.5 -46t-8.5 -52.5t-7.5 -52t-5.5 -44t-2 -29.5q0 -35 11 -49.5t22 -23.5q20 -16 33.5 -31t13.5 -41q0 -20 -14 -37.5t-35 -30.5t-45 -21t-45 -8q-36 0 -65 17.5t-50 46.5t-32 66t-11 76q0 66 10 145t29 159 q8 35 17.5 77t17.5 80t14 67.5t8 39.5q-21 -1 -60.5 -6t-93.5 -5q-45 0 -76 5.5t-51 20.5t-29 41t-9 68z" />
<glyph unicode="u" horiz-adv-x="1565" d="M191 258q0 38 6.5 78.5t14.5 82t15.5 82t10.5 78.5q2 29 4 62t4 66.5t5.5 67t8.5 62.5q4 21 11.5 40t21.5 33.5t35.5 23t52.5 8.5q63 0 88.5 -37.5t25.5 -113.5q0 -23 -3 -53t-8 -62.5t-11.5 -65.5t-14.5 -63q-17 -67 -32 -130.5t-15 -113.5q0 -32 11.5 -53t28.5 -21 q43 0 89.5 26.5t90.5 66t83.5 86t67.5 85.5q26 36 52.5 89t52 111.5t49.5 116t43 101.5q26 59 60 91t66 32q38 0 56 -15t18 -55q0 -16 -4 -49t-9 -69.5t-9 -70t-4 -50.5q0 -16 0.5 -39t1.5 -47.5t3.5 -47.5t5.5 -39q4 -17 13 -44t22.5 -52.5t29.5 -44t34 -18.5 q52 0 110.5 27t119.5 70.5t122.5 98.5t119.5 110q24 23 47.5 46.5t45.5 42t41 30.5t33 12q16 0 25.5 -10t9.5 -18q0 -56 -39.5 -123.5t-103 -135.5t-142 -132t-157 -113.5t-148.5 -79.5t-116 -30q-64 0 -108.5 27.5t-74 73t-46.5 104t-25 120.5q-15 -36 -40 -78t-54 -83 t-58.5 -77.5t-54.5 -62.5q-35 -37 -77 -71.5t-90 -60.5t-101.5 -41.5t-111.5 -15.5q-49 0 -86.5 20.5t-62.5 53.5t-37.5 75.5t-12.5 85.5z" />
<glyph unicode="v" horiz-adv-x="1194" d="M211 750q0 30 8.5 63.5t26 61.5t44 46t63.5 18q58 0 88 -32.5t30 -86.5q0 -29 -6 -61.5t-6 -58.5q0 -14 2 -42.5t7.5 -64t16 -75.5t27.5 -77q8 -17 18 -41t21 -51.5t21 -55.5t18 -52.5t13 -43.5t5 -28v-1q6 12 18 41.5t27 69t32.5 85t34.5 91t31 86t24 69.5 q16 49 31.5 91t36.5 73.5t49.5 49.5t71.5 18q29 0 50 -12.5t41 -27.5q10 -7 26.5 -18.5t37.5 -22t44.5 -18t47.5 -7.5q41 0 77.5 5t69.5 13.5t63 19t60 22.5q29 11 48 18t43 7q20 0 28.5 -14t8.5 -22q0 -42 -59 -92q-36 -31 -79.5 -56.5t-89.5 -44t-91.5 -29t-85.5 -10.5 q-45 0 -103 13.5t-106 33.5q-9 -18 -22.5 -48t-28.5 -64.5t-30 -68t-27 -59.5q-24 -52 -46 -98t-43 -88t-41 -81.5t-40 -77.5t-40 -62t-38.5 -37.5t-35 -19t-29.5 -5.5q-32 0 -60.5 17.5t-59.5 57.5q3 16 4 26t1 18q0 39 -25.5 115.5t-78.5 185.5q-28 58 -54 119.5t-46 120 t-32 110t-12 89.5z" />
<glyph unicode="w" horiz-adv-x="1837" d="M221 783q0 75 30 108t102 33q31 0 49.5 -19t29 -48.5t15 -66.5t6 -72.5t2.5 -65.5t5 -47q4 -36 12.5 -83t18.5 -96.5t21.5 -97t22 -85t19 -60.5t13.5 -23q6 0 15 17.5t21.5 49.5t29 77.5t38.5 100.5q21 56 41 107t39.5 100.5t41 98.5t45.5 101q7 17 21.5 34.5t33.5 31.5 t39.5 22.5t39.5 8.5q79 0 90 -91q10 -80 25 -158.5t32.5 -149t36 -130t36 -103t32.5 -68t26 -24.5q9 0 20.5 22t24 57t25.5 78.5t25 85.5t22 78.5t18 58.5q11 31 24.5 71t29.5 82t34.5 82t40.5 71.5t46.5 50.5t52.5 19q29 -2 47.5 -7t31.5 -13.5t23 -19.5t20 -25 q10 -13 33.5 -26.5t51 -24.5t54 -18t41.5 -7q72 0 145 12t139 44q10 5 24 11.5t22 6.5q3 0 7.5 -1t8.5 -5.5t7 -14t3 -26.5q0 -26 -13 -49.5t-33 -43.5t-45.5 -37t-50.5 -30q-51 -26 -117 -43t-149 -17q-69 0 -127.5 15t-102.5 32q-32 -54 -61 -127t-59 -158 q-4 -11 -12 -34.5t-17.5 -53t-20 -62t-20.5 -62t-18 -53.5l-12 -36q-26 -72 -68 -100t-92 -28q-54 0 -98.5 34.5t-73.5 84.5q-29 51 -53 106.5t-43 111.5t-34.5 111.5t-27.5 106.5q-3 13 -6 28t-8 15q-2 0 -10.5 -18.5t-19.5 -47t-24 -63t-25 -68t-21.5 -61t-14.5 -41.5 q-11 -33 -26.5 -72t-34 -77.5t-39.5 -74t-44 -63t-47.5 -44t-49.5 -16.5q-48 0 -84.5 27.5t-56.5 65.5q-41 82 -76 184t-60.5 209.5t-40 212t-14.5 192.5z" />
<glyph unicode="x" horiz-adv-x="1386" d="M163 -65q0 28 10 60t26 64t37 63t43 57q23 28 75 79t121 115q-18 21 -39.5 46t-42.5 50.5t-38.5 49t-27.5 41.5q-45 80 -63 134t-18 98q0 27 7.5 51.5t24.5 43t44.5 30t67.5 11.5q36 0 56.5 -15t31.5 -37t15 -45.5t6 -41.5q8 -67 25.5 -109.5t34.5 -71.5q11 -20 31 -45.5 t37 -44.5q29 29 59.5 63t57.5 66q30 34 55 79t45 97q14 30 27 49t28 30.5t33.5 16t41.5 4.5t44.5 -9.5t38 -27t27 -40.5t10.5 -50q0 -22 -13.5 -48t-36 -55.5t-50.5 -62.5t-57 -69q-29 -37 -73 -80.5t-90 -92.5q27 -24 63 -50t75 -47.5t76 -36t65 -14.5q64 0 145.5 47 t170.5 142q37 39 77.5 87t91.5 114q104 134 138 134q25 0 37.5 -12.5t12.5 -32.5q0 -22 -18 -58.5t-46 -80t-63.5 -91.5t-71 -92t-66.5 -81t-52 -60q-39 -43 -86 -83t-99.5 -70.5t-110.5 -48.5t-120 -18q-41 0 -84 15.5t-89 43.5t-96 68t-104 88q-30 -27 -55 -58 t-45.5 -61.5t-35 -59t-23.5 -49.5q-10 -24 -24 -60t-26 -68q-21 -68 -57 -115q-91 4 -141 42t-50 113z" />
<glyph unicode="y" horiz-adv-x="1289" d="M128 -238q0 18 3 36.5t11 33.5t21.5 24.5t35.5 9.5q16 0 28 -7t23 -18q38 -40 78 -68.5t84.5 -47t95 -27t108.5 -8.5q33 0 63 20.5t56 55t48.5 79t40.5 93.5t31.5 99t22.5 94q11 52 17 103t12 111q-31 -26 -71.5 -54.5t-85 -56t-92 -52.5t-94 -44t-89.5 -30.5t-78 -11.5 q-57 0 -98.5 23.5t-68.5 61t-40 85.5t-13 97q0 33 5 75.5t12.5 86t17.5 85t20 73.5q2 5 9 27.5t15 50t15.5 52t9.5 31.5q12 36 24.5 63t30.5 45.5t44 28t64 9.5q27 0 48 -11t33 -35q12 -23 14 -43t2 -41q0 -8 -11 -33t-25 -54t-27 -54t-16 -33q-30 -73 -49.5 -130.5 t-19.5 -117.5q0 -29 6 -53.5t15 -42.5t20.5 -28t23.5 -10q33 0 77.5 12.5t93 35t97.5 53.5t90 68t71 78t40 83q3 10 4.5 31.5t2.5 49t2 59t3 60t4.5 52.5t6.5 37q17 54 45 82t73 28q37 0 60 -9t35.5 -27t17 -45.5t4.5 -65.5q0 -22 -3 -61.5t-6.5 -83.5t-7 -85.5t-4.5 -67.5 q-3 -64 -10.5 -133t-18 -138.5t-24.5 -138t-29 -130.5q-12 -50 -28 -101.5t-35.5 -101t-42.5 -96t-48 -85.5q-106 -163 -302 -163q-123 0 -243 47q-42 16 -87.5 42t-82.5 55t-61 59.5t-24 57.5z" />
<glyph unicode="z" horiz-adv-x="1236" d="M135 35q60 72 112 130t107 110q53 51 104.5 103.5t115.5 112.5q31 29 67 63.5t70.5 70.5t64 71.5t47.5 65.5q-16 0 -42 -2.5t-53 -6t-50.5 -7t-32.5 -5.5q-12 -3 -38.5 -9t-56.5 -12t-59 -10.5t-46 -4.5q-126 0 -184.5 31t-58.5 101q0 22 9 38.5t24.5 27.5t36 16.5 t43.5 5.5q25 0 53 -5.5t42 -9.5q21 -6 39 -7.5t40 -1.5q15 0 49 3t78.5 7.5t94 9.5t94.5 9.5t80.5 7.5t52.5 3q21 0 45.5 -4.5t45.5 -15.5t35.5 -29t14.5 -45v-8q-27 -52 -53 -92.5t-53.5 -76.5t-58 -70.5t-67.5 -74.5q-41 -45 -88.5 -90.5t-94 -89t-87 -84t-67.5 -75.5 q11 3 26 5.5t30 4.5t28 3t18 1q36 0 67.5 -2.5t67.5 -7.5q25 -3 55 -10.5t63 -15t67 -13.5t67 -6q29 0 55.5 12t51.5 29q19 13 35 21.5t36 8.5q17 0 27.5 -5.5t17.5 -14t9.5 -18t2.5 -17.5q0 -26 -26 -61t-70 -67t-100.5 -54t-118.5 -22q-13 0 -42.5 5t-67.5 12.5 t-81.5 16.5t-83.5 16.5t-73 12.5t-52 5q-29 0 -52.5 -4t-44.5 -12t-41 -20t-42 -28q-13 -10 -26 -18.5t-27.5 -15t-31.5 -10.5t-39 -4t-37 11t-24.5 29t-14 39.5t-4.5 42.5z" />
<glyph unicode="{" horiz-adv-x="866" d="M-8 430q0 47 68 101q19 16 35.5 26t32.5 16.5t33 11.5t36 11q17 7 43.5 25t51 40.5t42.5 46.5t18 43q0 10 -2.5 33t-6 49t-7.5 49.5t-7 34.5q-14 58 -20.5 107.5t-6.5 91.5q0 106 42 193t123 157q8 7 38.5 22t66.5 30.5t69 27t48 11.5q30 0 56.5 -7t46 -19t31 -28.5 t11.5 -36.5q0 -18 -4 -42t-13.5 -46t-26 -37t-42.5 -15q-6 0 -18.5 2t-26 4t-26.5 4t-21 2q-9 0 -24.5 -9.5t-33 -25t-33 -34t-23.5 -36.5q-5 -11 -8.5 -48t-3.5 -98q0 -14 4.5 -42t10 -58t10 -56.5t4.5 -36.5q0 -106 -12 -174t-32 -101q-6 -11 -19.5 -26.5t-30 -31.5 t-35 -29t-36.5 -19q24 -14 40.5 -37t27 -50.5t15 -57.5t4.5 -58q0 -7 -1 -32t-2 -58.5t-2.5 -71.5t-2.5 -72t-2 -59.5t-1 -33.5q0 -242 128 -242q19 0 31.5 0.5t26.5 3.5t32 9.5t48 18.5q10 4 19.5 6.5t18.5 2.5q118 0 118 -74q0 -10 -6.5 -26t-20.5 -37l-1 -1 q-14 -21 -22.5 -35t-20.5 -24.5t-30.5 -18.5t-53.5 -17q-31 -8 -55.5 -11t-47.5 -3q-14 0 -32.5 1.5t-29.5 1.5q-56 0 -103.5 24.5t-85 64.5t-63 90t-38.5 101q-8 34 -11.5 78t-3.5 100q0 36 1 72.5t1 81.5q0 115 -12 166t-26 51q2 0 -15.5 -7t-40.5 -15.5t-44.5 -15.5 t-29.5 -7q-18 0 -37 10.5t-35 26t-26.5 34.5t-10.5 37z" />
<glyph unicode="|" horiz-adv-x="662" d="M201 -874q0 67 0.5 156t1.5 191t2.5 213.5t3 224.5t3 223.5t2.5 210.5t1.5 186t0.5 149q0 22 0.5 74.5t2 124t3 156t3 171.5t2.5 170.5t2.5 152.5t2 117t0.5 65q0 11 -1.5 39.5t-3.5 60t-3.5 59t-1.5 37.5q0 39 7 64.5t30 48.5q16 12 37.5 23t38.5 11q29 0 48.5 -11.5 t31.5 -31t16.5 -46.5t4.5 -57l-15 -1669v-191v-49.5t0.5 -87.5t1 -107.5t1 -111t0.5 -97v-65.5q0 -87 -0.5 -150t-0.5 -107q0 -124 -31.5 -185t-84.5 -61q-20 0 -39 8.5t-34 22.5t-24 32t-9 36z" />
<glyph unicode="}" horiz-adv-x="825" d="M-22 1350q0 112 88 171.5t267 59.5q30 0 65 -10.5t68 -28.5t61 -42.5t45 -52.5q23 -37 37 -85t14 -108q0 -35 -4.5 -71t-12.5 -64l-15 -45t-20.5 -62.5t-20.5 -61t-16 -40.5q-12 -31 -20.5 -59.5t-14.5 -57t-8.5 -58.5t-2.5 -64q14 -15 24.5 -21t21.5 -6q8 0 27.5 1.5 t42.5 3.5t44 3.5t32 1.5q32 0 59.5 -7t47.5 -21.5t32 -36.5t12 -51q0 -17 -10.5 -36.5t-28.5 -36t-41 -27.5t-48 -11q-76 0 -127 15q-8 -14 -14 -30.5t-6 -26.5q0 -17 33 -196v1q12 -53 20 -86t12.5 -60t6 -54.5t1.5 -69.5q0 -36 -5.5 -77t-16.5 -81t-27.5 -75.5 t-39.5 -62.5q-46 -55 -109.5 -83t-150.5 -28q-42 0 -80 5t-72 33h1q-48 39 -48 83q0 24 19.5 43t46.5 32t55 19.5t45 6.5q8 0 29.5 -2.5t37.5 -4.5q77 38 77 234q0 31 -4 69.5t-10 78t-12.5 78.5t-10.5 72q-5 39 -8.5 70t-3.5 55q0 47 20 73.5t48 46.5q-5 2 -18.5 6.5 t-15.5 6.5q-48 35 -76.5 79.5t-28.5 104.5q0 34 5.5 74t19.5 81v-1q3 9 10 32t16.5 53t20.5 63.5t20.5 64t17 54.5t10.5 35q5 22 8 51t3 59q0 26 -11.5 46.5t-29.5 35t-40.5 22t-43.5 7.5q-20 0 -44 -2t-48 -7.5t-45 -15t-36 -24.5q-17 -14 -32 -22.5t-29 -8.5 q-35 0 -50 14.5t-15 36.5z" />
<glyph unicode="~" horiz-adv-x="1593" d="M86 569q0 69 13 119t58 88q10 10 23.5 25t29 31t31.5 30t30 22h-1q17 12 50.5 31t71 36.5t74 30.5t58.5 13q11 0 32 -2t48.5 -8.5t59.5 -20.5t66 -38q23 -16 56 -41.5t64.5 -50.5t56 -44.5t30.5 -24.5q22 -16 34 -26.5t21.5 -16.5t19.5 -8t27 -2q15 0 32.5 2.5t35 6t33 7 t25.5 5.5q11 2 29.5 27t42.5 79q49 92 95 132t100 40q42 0 70 -22.5t28 -59.5q0 -6 -3.5 -23t-14 -42t-29.5 -57.5t-49 -70.5q-20 -25 -47.5 -55.5t-61.5 -59t-72.5 -51.5t-79.5 -33q-61 -15 -106.5 -20.5t-77.5 -5.5q-33 0 -63 11t-58.5 29.5t-57 44t-58.5 54.5 q-36 35 -64.5 60t-52.5 40.5t-47 22.5t-49 7q-11 0 -22.5 3t-20.5 3q-10 0 -28.5 -11.5t-40.5 -32.5t-43.5 -50t-37.5 -64l1 1q-7 -17 -21 -40.5t-34 -52.5q-43 -67 -85 -67q-24 0 -45.5 7.5t-38.5 20.5t-27 31.5t-10 40.5z" />
<glyph unicode="&#xa1;" horiz-adv-x="586" d="M88 -285q0 10 1.5 26.5t4 35t6 38.5t7.5 37q2 16 5 32.5t5.5 31t4 25t1.5 15.5q0 33 2.5 70.5t6 76.5t7.5 77.5t7 73.5q10 49 15 98t15 114q0 7 7 29.5t16 54.5q20 67 34.5 111.5t32.5 71.5t42.5 38.5t63.5 11.5q51 0 61 -32q15 -34 15 -107q0 -23 -1.5 -47.5t-6.5 -50.5 q-2 -22 -7 -51t-11 -63q-2 -14 -7 -41.5t-11 -61.5t-12.5 -71t-11.5 -69.5t-9 -57.5t-4 -35q-4 -82 -10.5 -164t-17 -151t-24.5 -118t-34 -65q-30 -26 -68 -26q-21 0 -43.5 15.5t-40.5 37.5t-29.5 47t-11.5 43zM225 1156q0 18 71 95q22 24 95 24q30 0 52 -3t36.5 -13 t21.5 -27t7 -46q0 -11 -3.5 -19.5t-5.5 -14.5q0 -6 1.5 -15t1.5 -21q0 -23 -14.5 -47t-38.5 -43.5t-55.5 -32t-66.5 -12.5q-33 0 -53 16t-31 41.5t-14.5 56.5t-3.5 61z" />
<glyph unicode="&#xa2;" horiz-adv-x="1042" d="M95 610q0 37 3.5 66.5t12 58t22.5 58.5t35 68q8 15 34.5 36.5t69.5 50.5t73 45.5t54.5 26t48 14t53.5 9.5q2 0 7.5 2.5t12.5 4.5t13.5 4t10.5 2l4 26.5t8.5 66t8.5 84.5t4 81q0 90 117 90q23 0 41.5 -9.5t32 -25t21 -34t7.5 -36.5q0 -25 -4 -48.5t-4 -25.5 q-3 -22 -18 -80q-9 -38 -12 -58q18 -9 51 -24q75 -31 116.5 -63.5t41.5 -78.5q0 -27 -4.5 -45.5t-16 -30t-31.5 -16.5t-50 -5q-31 0 -52 13.5t-49 36.5q-17 14 -23.5 17t-12.5 5q-12 -45 -22.5 -104.5t-21.5 -133.5q-7 -45 -11.5 -73t-4.5 -42q11 3 30.5 12t41 20t41 21 t31.5 14q18 6 37 6q21 0 36 -6q26 -10 38 -27.5t12 -30.5q0 -38 -14.5 -65.5t-44.5 -48.5q-28 -24 -113 -44q-37 -9 -59 -15t-34.5 -13.5t-18 -18.5t-8.5 -30q-12 -68 -14.5 -127.5t-10 -104t-27.5 -70t-68 -25.5q-27 0 -49 12t-37.5 30t-24.5 40t-9 43q0 6 3 23.5t7.5 39.5 t10 46.5t10 45.5t8 35.5t3.5 16.5q-16 0 -36.5 2t-39.5 4t-34.5 5t-23.5 4q-40 8 -77.5 39.5t-67 72.5t-47 85t-17.5 76zM288 609q0 -16 12 -35.5t28.5 -36.5t34.5 -29t31 -12q5 0 16 2t28 5q21 6 25 9.5t5 15.5q4 35 12.5 88t20.5 124q8 42 13 75.5t9 58.5 q-50 -21 -93 -45.5t-74.5 -56t-49.5 -71.5t-18 -92z" />
<glyph unicode="&#xa3;" horiz-adv-x="1370" d="M38 109q0 31 33 80h-1q15 23 34.5 48t41.5 46t45 34.5t44 13.5q5 0 9 -0.5t8 -0.5q14 17 31 42t35 54t35.5 59t30.5 57h-75q-35 0 -72 6.5t-68 19t-50.5 30.5t-19.5 40q0 112 99 112q11 0 27.5 -3.5t34 -7t32.5 -7t22 -3.5q62 0 86 2.5t24 11.5q4 64 7.5 116.5t8.5 89.5 q2 18 7.5 40t13 45t16 46.5t17.5 43.5q24 54 66 100t92 79.5t104 52t102 18.5q40 0 81.5 -13.5t75.5 -36.5t55.5 -55t21.5 -68q0 -7 -4.5 -22.5t-12.5 -32t-19.5 -31t-25.5 -20.5q-17 -7 -33 -9.5t-33 -2.5q-31 0 -53 14t-37.5 30.5t-27 30.5t-22.5 14q-13 0 -29 -9t-32 -24 t-30.5 -34t-25.5 -39q-35 -66 -53 -131t-18 -137v-6q25 8 57 15t61 15h-1q45 10 75.5 18t51.5 14.5t35.5 10.5t27.5 7t27 4t34 1t42 -6t40.5 -16.5t30.5 -24.5t12 -29q0 -12 -3 -26t-9.5 -27.5t-17 -24.5t-24.5 -18h1q-8 -5 -28.5 -11t-49 -13t-63 -14t-71.5 -13l1 1 q-51 -10 -86 -17.5t-60.5 -14t-45.5 -13t-43 -15.5q1 0 1 -4q0 -8 -3.5 -23.5t-8 -32t-8.5 -31t-6 -19.5q-6 -15 -19.5 -36t-30.5 -45t-36 -49.5t-34 -49.5q11 -2 31.5 -8t44 -13.5t46.5 -15t38 -12.5h-1q31 -8 67 -21.5t82 -31.5h-1q34 -13 62.5 -23t55.5 -16.5t53 -10 t55 -3.5q10 0 24 4t27 12t22 22t9 33l-1 19q0 45 30 75t82 30q21 0 35.5 -5.5t25 -15t18.5 -22t14 -25.5q16 -24 16 -75q0 -37 -16 -70t-45 -61.5t-69.5 -51t-90.5 -38.5q-76 -24 -132 -24q-58 0 -158.5 29.5t-233.5 83.5q-7 3 -13 5.5t-12 4.5q-34 14 -60 24.5t-47 18.5 t-38.5 14t-35.5 10q-88 -61 -140 -92t-66 -31q-25 0 -47.5 7.5t-40 19.5t-27.5 27.5t-10 30.5z" />
<glyph unicode="&#xa4;" horiz-adv-x="1493" d="M55 153q2 17 9 29t16.5 22.5t21.5 19.5t22 19q5 5 22 17t40 28.5t48.5 34.5t46.5 34.5t34.5 29.5t13.5 19v15t1 10q-71 135 -71 313q0 82 18 147.5t63 123.5q-9 33 -24 62.5t-32 54t-35 43.5t-34 29l-26 19.5t-25.5 23t-19 27t-7.5 29.5q0 20 11.5 37t39.5 36 q20 14 39 21t39 7q39 0 68.5 -24t56 -61t52.5 -82t58 -86q57 37 93.5 54.5t63.5 22.5q29 3 59 5t67 2q27 0 61 -5.5t68.5 -14t66.5 -18.5t56 -20q15 14 38 39.5t54 60.5q10 13 30 38t45.5 49.5t53.5 42.5t54 18q18 0 38 -9.5t36.5 -23.5t27.5 -31.5t11 -32.5 q0 -19 -14 -43.5t-35.5 -51t-46 -53t-45.5 -49.5q-29 -32 -44.5 -54t-26.5 -44q12 -22 21 -50t14 -64q7 -44 9.5 -82t2.5 -73q0 -54 -7 -100.5t-20.5 -90t-34 -85.5t-48.5 -87q23 -51 45 -87t39 -47h-1q19 -13 39 -24t36 -23t26.5 -27.5t10.5 -37.5q4 -14 10 -28.5t6 -30.5 q-2 -15 -10 -32t-20 -33t-27.5 -29t-31.5 -19q-40 4 -77 24.5t-71 50t-64.5 64.5t-57.5 68q-17 22 -29.5 36t-36.5 24q-15 -5 -38.5 -9t-55.5 -12q-19 -4 -38.5 -8t-36.5 -6t-29 -3.5t-17 -1.5q-50 0 -106.5 13.5t-104.5 36.5q-29 -8 -72 -38.5t-102 -80.5 q-39 -33 -64.5 -54.5t-44 -34t-32.5 -17.5t-29 -5q-22 0 -42 13t-35 31.5t-24 40t-9 38.5zM507 703q0 -17 3 -40.5t7.5 -46.5t9.5 -43.5t10 -31.5q7 -14 30.5 -31t61.5 -37q84 -44 110 -44q80 0 131.5 27.5t82.5 77t43 117.5t12 149q0 56 -4.5 93t-20 62t-46 40.5 t-83.5 28.5q-73 19 -128 19q-28 0 -54.5 -14.5t-51 -40.5t-45.5 -62t-38 -79q-16 -42 -23 -78t-7 -66z" />
<glyph unicode="&#xa5;" horiz-adv-x="1325" d="M54 1306q0 26 10.5 43.5t28 29t40.5 16.5t48 5q34 0 58.5 -28.5t50.5 -68.5q23 -36 36.5 -57.5t18.5 -26.5q45 -61 92.5 -117.5t98.5 -110.5q9 -9 16.5 -17.5t17 -19t23.5 -25t36 -35.5q13 11 33.5 34.5t43.5 49.5t45.5 50t38.5 35q21 14 46.5 38.5t47.5 48.5 q18 20 40.5 44t45.5 47t44.5 43.5t37.5 33.5q11 9 31 18.5t42 18t43.5 14t34.5 5.5q19 0 35.5 -10t29 -24.5t19.5 -30.5t7 -28q0 -38 -43 -73q-60 -44 -115 -86.5t-110 -86.5q-49 -40 -92.5 -79t-77.5 -74t-58 -65t-35 -51q-2 -2 -4 -8t-6 -13q63 6 118 18.5t95.5 26 t65 23.5t25.5 10q22 0 41.5 -14.5t34 -35t23 -42.5t8.5 -38q0 -21 -17.5 -35.5t-50 -25.5t-80 -20.5t-107.5 -19.5q-59 -10 -88 -16.5t-43.5 -10t-20.5 -5.5t-18 -3q-2 -11 -4.5 -29t-2.5 -59q0 -9 2 -19t4 -18q31 10 46.5 13t31 5t38 4.5t67.5 11.5q64 16 99 16 q21 0 41.5 -5.5t37.5 -16.5t27.5 -26.5t10.5 -35.5q0 -11 -4 -24.5t-10.5 -26t-15 -22.5t-17.5 -14q-19 -6 -49 -13t-63.5 -13t-69.5 -11t-67.5 -9t-56 -6t-37.5 -2q-5 0 -5 -10q0 -58 10 -91t29 -57q-22 -52 -55 -75.5t-95 -23.5q-42 0 -69.5 29.5t-34.5 81.5 q-5 21 -5.5 52.5t-2.5 55.5q-19 -3 -53 -11t-74 -16.5t-80.5 -14.5t-72.5 -6q-25 0 -45.5 11t-35 27.5t-22.5 36t-8 36.5q0 18 9.5 34.5t26 28.5t39 19.5t49.5 7.5q13 0 35.5 1.5t49.5 4t55.5 6t53 7t43 7.5t25.5 7q2 1 3 26.5t1 57.5q0 43 -3 49q-28 0 -67.5 -3.5t-77.5 -7 t-69 -7t-42 -3.5q-69 0 -103 23.5t-34 92.5q0 54 30 73.5t87 19.5q7 0 30.5 -3t49 -7t46.5 -7t22 -3q34 0 59.5 1t45.5 4q0 8 -4.5 18t-10.5 19.5t-11.5 17t-7.5 9.5q-45 50 -75.5 89.5t-59.5 61.5q-31 29 -57.5 61t-50 63t-45 58.5t-42.5 46.5q-36 33 -53.5 73.5 t-20.5 77.5z" />
<glyph unicode="&#xa6;" horiz-adv-x="662" d="M201 -916l25 735q3 89 3.5 154t0.5 112q0 21 -1 49t-2.5 53.5t-3 44.5t-1.5 21q0 44 25.5 75.5t78.5 31.5q63 0 85 -49q19 -37 19 -82v-1q0 -4 -0.5 -51.5t-1 -122t-1.5 -168.5t-2.5 -191.5t-2.5 -191t-1.5 -167t-1 -119.5t-0.5 -48q-1 -98 -26.5 -140.5t-84.5 -42.5 q-27 0 -47 8.5t-33 22.5t-20 31.5t-7 35.5zM228 798q0 26 0.5 78.5t1 116.5t1.5 132t1.5 124t1 93t0.5 39q0 6 -0.5 39t-1 80.5t-1 101.5t-1 101.5t-1 82t-0.5 41.5q-1 46 -1 72v36q0 16 6 33.5t17 32.5t26 24.5t34 9.5q29 0 52.5 -11.5t40.5 -28.5t26 -38t9 -39 q0 -5 -1 -74t-2.5 -186t-2.5 -273.5t-1 -336.5q0 -17 -0.5 -54.5t-0.5 -76.5t-0.5 -69.5t-0.5 -32.5q-2 -48 -28 -76t-67 -28q-21 0 -40 7t-34 18.5t-24 27.5t-9 34z" />
<glyph unicode="&#xa7;" horiz-adv-x="858" d="M67 209q0 20 3 42t10.5 40t21 30t33.5 12q38 0 62 -7t39 -19.5t24 -29.5t16 -37q6 -16 9 -26.5t6 -18t7.5 -14t12.5 -13.5q20 -19 35 -22t41 -3q29 0 59 9.5t54 25t39.5 34.5t15.5 38q0 36 -14 60t-39.5 42.5t-60.5 34.5t-77 37q-29 15 -68.5 40.5t-78 55.5t-70 61 t-44.5 55q-14 26 -20 61t-6 71q0 27 8.5 57t25.5 59.5t41.5 57t55.5 48.5q13 7 27 16.5t28 19.5t27.5 18t24.5 12q-39 32 -68 61t-43 52v-1q-25 45 -25 111q0 7 7 31t17 51.5t22.5 53t22.5 35.5q19 18 50.5 33t69 25.5t76.5 16t72 5.5q38 0 84 -11t87 -31.5t68.5 -50.5 t27.5 -69q0 -22 -10.5 -46.5t-28.5 -45.5t-42 -35t-51 -14q-40 0 -65 58q-14 45 -34 65t-57 20q-9 0 -27.5 -4.5t-36.5 -13.5t-31.5 -21t-13.5 -27q0 -44 6.5 -73.5t36.5 -48.5q40 -29 69.5 -47t53.5 -32.5t45 -29t44 -35.5q41 -39 68 -74t43 -68t22.5 -64.5t6.5 -62.5 t-15.5 -66.5t-41 -69.5t-57.5 -62.5t-66 -46.5q4 -3 7.5 -5.5t7.5 -4.5q27 -19 51 -38.5t43 -46t30 -63.5t11 -90q0 -79 -31.5 -136t-84.5 -93.5t-122.5 -53.5t-145.5 -17q-90 0 -161.5 37t-111.5 109v-1q-13 24 -20 45.5t-7 42.5zM301 782q0 -36 8 -59.5t23.5 -40.5 t37.5 -30.5t50 -28.5q5 -3 10.5 -6t11.5 -6q6 5 12 9t14 9q20 12 38 28t32.5 33.5t23 36t8.5 37.5q0 23 -6 45.5t-15.5 41.5t-22 32t-25.5 17q-24 11 -32.5 14.5t-10.5 5.5q-30 0 -58.5 -9.5t-50 -27.5t-35 -43.5t-13.5 -57.5z" />
<glyph unicode="&#xa8;" horiz-adv-x="721" d="M20 1265q0 30 4 56t15 45t30 29.5t50 10.5q75 0 120 -39t45 -110q0 -68 -127 -68q-19 0 -42.5 6t-44.5 16.5t-35.5 24.5t-14.5 29zM419 1324q0 23 5 39.5t18.5 29.5t38 23t63.5 19q7 2 16.5 5t22.5 3q45 0 67.5 -28.5t22.5 -70.5q0 -129 -136 -129q-24 0 -45.5 8.5 t-37.5 23.5t-25.5 35t-9.5 42z" />
<glyph unicode="&#xa9;" horiz-adv-x="1958" d="M134 434q0 19 4.5 51t12.5 71.5t18.5 83.5t22 86t24.5 79t25 64q19 41 43.5 85.5t53.5 89.5q27 44 60.5 87.5t70.5 85.5q35 38 72 71t75 57t87.5 50.5t103.5 48t107.5 35.5t98.5 14q44 0 99 -27q33 -16 61.5 -36t48.5 -40t31.5 -40t11.5 -38q0 -13 -14 -44q31 -2 96 -13 t149 -25q44 -7 97.5 -28t104.5 -48.5t92.5 -59t61.5 -60.5q11 -15 23.5 -41t23 -53t18 -49.5t7.5 -30.5q0 -50 -15 -96.5t-43.5 -91.5t-68 -89.5t-89.5 -91.5q-32 -31 -90 -67.5t-132 -75.5q-68 -35 -147 -68.5t-161 -64.5q-72 -27 -141.5 -51t-139 -41.5t-139.5 -28 t-143 -10.5q-23 0 -73.5 10t-107.5 26t-108.5 37t-76.5 42q-22 23 -42.5 57t-36.5 68.5t-26 64.5t-10 45zM349 444q0 -40 27.5 -73.5t68.5 -57.5t88.5 -37.5t87.5 -13.5q200 0 441 87q115 42 242.5 106t252.5 149q22 15 53 49.5t59.5 75.5t49 81.5t20.5 67.5q0 17 -22.5 43 t-54.5 51.5t-67.5 47t-61.5 30.5q-58 21 -110.5 34t-107 22t-114.5 15t-134 12l-2 1q-24 5 -38.5 8.5t-22.5 10.5t-11 18.5t-3 31.5q0 10 1 20t2 21q21 9 41.5 15t41.5 8q-7 13 -12 20.5t-11 11.5t-15 5t-25 1q-26 0 -69 -15.5t-89.5 -40t-90.5 -54t-73 -57.5 q-35 -35 -73.5 -83t-80.5 -114q-19 -29 -38 -62t-36.5 -67t-33.5 -68t-28 -66q-26 -66 -39 -124.5t-13 -109.5zM597 635q0 45 13.5 93t36.5 93t52.5 83t61.5 63h-1q73 57 137 89.5t137 32.5q37 0 71.5 -15t61.5 -40.5t43 -59t16 -69.5q0 -11 -1 -21.5t-7 -21t-19.5 -21 t-38.5 -22.5q-41 -19 -67 -19q-22 0 -36 8t-22 21.5t-12 31.5t-6 38q-10 5 -19 5q-20 0 -40.5 -15t-38.5 -29q-32 -25 -54.5 -48t-37 -48t-21.5 -53.5t-7 -65.5q2 -42 20 -57t58 -15q41 0 73.5 5t63 13.5t62 20.5t69.5 27q22 9 42.5 21.5t37 26.5t29.5 28t20 26 q10 16 29 23.5t44 7.5q57 0 57 -54q0 -1 -0.5 -6.5t-2.5 -12.5q-7 -33 -41.5 -71.5t-83 -74t-104 -63.5t-104.5 -42q-36 -10 -66.5 -19.5t-57.5 -16.5t-52.5 -11.5t-51.5 -4.5q-54 0 -98.5 21t-76.5 55t-50 77t-18 86z" />
<glyph unicode="&#xaa;" horiz-adv-x="1069" d="M109 905q0 90 48 216q47 122 127 224q26 32 57 59.5t66 47t72 30.5t74 11q58 0 94 -43q4 1 12 1q86 0 86 -105q0 -7 -3 -30t-6.5 -50t-6.5 -51t-3 -33q0 -37 2 -64t7 -44q9 -29 21.5 -48.5t43.5 -19.5q11 0 27.5 5.5t36 18t40.5 33t41 49.5q15 22 33 32.5t35 10.5 q20 0 37 -17t17 -38q0 -19 -10.5 -47.5t-30.5 -60t-48.5 -62.5t-64.5 -56t-78.5 -40.5t-90.5 -15.5q-27 0 -53 12.5t-47.5 34t-37 50t-20.5 61.5q-20 -48 -53 -97.5t-73 -89.5t-85 -65.5t-90 -25.5q-46 0 -79.5 18t-55 47.5t-31.5 66.5t-10 75zM300 908q0 -11 5 -18.5 t12 -7.5q8 0 24 16t34.5 38.5t36 46.5t27.5 40q29 49 55 116t43 144q3 16 5 29t2 22q0 2 -15 2q-29 0 -57 -22t-53.5 -57.5t-47.5 -81t-37.5 -93t-24.5 -93.5t-9 -81z" />
<glyph unicode="&#xab;" horiz-adv-x="1497" d="M77 707q0 31 9.5 47t26 24.5t39 12t48.5 9.5q53 13 101.5 39.5t108.5 64.5q245 156 270 156q20 0 36 -8t27 -21t17 -29.5t6 -33.5q0 -25 -18 -45t-43.5 -36.5t-54.5 -30t-50 -25.5q-10 -5 -28 -16.5t-39.5 -25t-44 -26.5t-40.5 -22q-6 -3 -21 -10t-34.5 -14.5t-40 -15 t-37.5 -10.5q29 -19 69.5 -48t84.5 -62t87 -67.5t77.5 -66t56 -57.5t21.5 -41q0 -13 -8 -28t-20.5 -28t-28.5 -21t-32 -8q-24 0 -56.5 20.5t-72 54t-86.5 75t-100 83.5q-25 20 -57 47t-75 50q-55 29 -76.5 56t-21.5 57zM700 689q0 43 33 63q26 17 63.5 29.5t72.5 26.5 q72 29 152 60t170 57q4 1 24.5 11.5t48.5 22.5t58 21.5t52 9.5q38 0 66.5 -21.5t28.5 -56.5q0 -9 -5 -22.5t-14 -26.5t-21.5 -24t-28.5 -16q-7 -4 -21 -8t-30 -8.5t-30.5 -8.5t-22.5 -8l-182 -60l-49.5 -16.5t-48.5 -16.5t-41 -14.5t-29 -10.5q16 -15 44.5 -38t58.5 -47.5 t57.5 -48t41.5 -38.5q67 -59 104.5 -107t37.5 -68q0 -18 -8 -32.5t-21 -25.5t-30.5 -17t-36.5 -6q-28 0 -48 15.5t-37 32.5q-63 63 -156 148t-225 195q-28 30 -28 54z" />
<glyph unicode="&#xac;" horiz-adv-x="1475" d="M82 701q0 10 7 23.5t18.5 26.5t25 23t26.5 12q60 10 113.5 11.5t106.5 1.5q44 0 99 -9q27 -4 48.5 -6t35.5 -2t43 3t61.5 6.5t63 6.5t48.5 3q24 0 66 4t89.5 8.5t92.5 8t75 3.5q18 0 40.5 -2.5t45 -6.5t41.5 -8.5t28 -7.5q8 -3 15.5 -9t13.5 -12.5t9.5 -12t4.5 -8.5 q3 -9 3 -31q0 -7 -0.5 -22.5t-1 -35t-1.5 -39.5t-2 -37t-1.5 -28l-0.5 -11q0 -29 -1 -71.5t-3 -99.5q-5 -119 -12 -132q-3 -7 -13 -17t-24 -20t-31 -17t-35 -7t-35.5 9.5t-31.5 22.5t-23 27t-11 23q-1 5 -1 14v20q0 9 1.5 33t4 55t5.5 65t5.5 63.5t4 49.5t1.5 24 q0 14 -2 19.5t-10 9.5q-30 0 -55.5 -1t-49.5 -2.5t-47.5 -4.5t-49.5 -6q-42 -5 -82 -8t-83.5 -4.5t-94.5 -2t-116 -0.5q-62 0 -94.5 1t-54.5 1.5t-42 1.5t-57 1h-103q-24 0 -38.5 6.5t-22 19t-10 31.5t-2.5 43z" />
<glyph unicode="&#xad;" horiz-adv-x="1313" d="M198 584q0 26 15.5 44t39.5 30t53 19t56.5 10.5t50 4.5t32.5 1q12 0 34 -3.5t39 -7.5q69 0 120.5 1t90.5 2.5t68 4t52 5.5q42 6 89 6q14 0 36 -6t45 -14.5t44 -18t32 -16.5q7 -4 13.5 -12.5t11 -19t7 -21.5t2.5 -20q0 -46 -26 -69.5t-90 -23.5q-10 0 -27.5 4t-36.5 8.5 t-35.5 8.5t-23.5 4q-6 0 -17 -1t-24 -2t-26.5 -2t-23.5 -1q-13 0 -40.5 2t-57 4t-56 4t-37.5 2q-18 0 -55 -2t-78 -4t-78.5 -4t-56.5 -2q-32 0 -58 3.5t-45 12.5t-29 25.5t-10 43.5z" />
<glyph unicode="&#xae;" horiz-adv-x="1915" d="M78 554q0 47 19 99.5t47.5 105.5t61.5 102.5t61 88.5q36 51 74 85.5t67 53.5q14 9 42 26t62.5 38.5t72.5 45t70.5 44t55.5 36t30 21.5q2 28 2 54t5.5 48t20 39.5t45.5 28.5q69 25 121.5 31.5t89.5 6.5q71 0 139.5 -10t131.5 -29t116 -45.5t88 -55.5q51 -43 127 -133 q40 -46 75.5 -93t62 -91t42 -83.5t15.5 -70.5q0 -93 -17 -163t-48 -115q-18 -25 -40.5 -56t-49.5 -63.5t-57 -63t-63 -55.5q-62 -47 -136.5 -82t-157.5 -74q-76 -36 -157.5 -58t-164.5 -44q-77 -20 -153 -25.5t-138 -5.5l-122 8q-36 3 -78 19t-83.5 41t-81.5 55.5 t-72.5 62.5t-56 62.5t-33.5 53.5q-6 15 -12.5 38t-11.5 46.5t-8 44t-3 31.5zM290 605q0 -51 5.5 -90t20 -69.5t40 -54.5t65.5 -44q62 -31 129.5 -48.5t132.5 -17.5q43 0 75 1t63 5t67.5 10.5t88.5 17.5q16 4 53.5 16.5t85.5 31t101.5 40.5t102.5 44t87.5 42t56.5 35 q80 66 122 154.5t42 177.5q0 68 -30 130t-78 116.5t-109 99t-123 76.5t-120 49.5t-100 17.5q5 -4 11 -8t13 -9q60 -41 88.5 -81.5t28.5 -65.5q0 -23 -47 -98q-58 44 -85.5 62.5t-40.5 19.5q-21 3 -72 3q-33 0 -83.5 -17.5t-105.5 -44t-107 -58t-88 -59.5 q-43 -33 -86.5 -74.5t-85.5 -87.5q-51 -55 -84.5 -111.5t-33.5 -110.5zM664 936q0 12 8 26.5t21.5 27.5t30 22.5t33.5 10.5q31 5 69 9.5t74.5 7.5t66 5t43.5 2q66 0 114.5 -29.5t91.5 -83.5q23 -28 35.5 -48.5t12.5 -40.5q0 -13 -9.5 -28t-26.5 -30t-40.5 -28t-51.5 -22 q20 -6 32 -11.5t30 -12.5q66 -24 108.5 -40.5t66.5 -31t33.5 -29.5t9.5 -35q0 -12 -11 -25.5t-27 -25t-35 -19.5t-36 -8q-36 0 -74.5 13t-91.5 41q-29 13 -57.5 26.5t-55 25t-49 18.5t-39.5 7q-5 0 -8 1q0 -3 0.5 -13t1 -21.5t0.5 -21.5v-13q0 -17 -7 -41.5t-20.5 -47 t-32.5 -38.5t-44 -16q-20 0 -38.5 9t-33.5 22.5t-24.5 30t-12.5 32.5v306q0 32 -18 49q-21 20 -30 37t-9 31zM903 867q0 -19 1 -47t3 -50l6.5 3.5t17.5 9t25.5 12.5t29.5 14q35 17 81 38q0 5 -3 12.5t-11 15t-22.5 13t-38.5 5.5q-1 0 -13 -3t-27 -7.5t-29 -8.5t-20 -7z" />
<glyph unicode="&#xaf;" horiz-adv-x="854" d="M-63 1816q0 24 17.5 41.5t43.5 17.5q5 0 22 1.5t46 3.5t50.5 3.5t35.5 1.5q18 0 43.5 -1t57.5 -3t62.5 -3t59.5 -1q46 0 134 9q45 4 79.5 6t58.5 2q16 0 101 -9q43 -5 69 -7.5t35 -2.5q26 0 43.5 -19t17.5 -55q0 -30 -12.5 -40.5t-48.5 -10.5q-24 0 -104 9q-40 4 -66 6 t-39 2q-47 0 -110 -4t-129 -8.5t-129 -8.5t-111 -4q-8 0 -29 1t-54 3t-54 3t-29 1q-31 0 -46 19.5t-15 46.5z" />
<glyph unicode="&#xb0;" horiz-adv-x="1038" d="M167 1072q0 22 12 56.5t33.5 73t50 77t62 69.5t70 50.5t73.5 19.5q10 0 25 1.5l35 3.5q21 4 40.5 5.5t36.5 1.5q18 0 43.5 -4.5t50.5 -12t46 -15.5t30 -16q27 -21 59 -74q41 -68 58 -116.5t17 -73.5q0 -64 -30.5 -125.5t-85.5 -110t-130.5 -78t-165.5 -29.5 q-69 0 -129 20.5t-104.5 59t-70.5 93.5t-26 124zM371 1063q0 -45 46 -83q50 -39 94 -39q45 0 81.5 7t63.5 19q5 2 17 17.5t24 35.5t21 40.5t9 33.5v1q0 31 -5.5 61t-15 54t-21.5 38.5t-25 14.5q-12 0 -23 -5.5t-21 -11.5t-19.5 -11.5t-18.5 -5.5q-7 0 -19.5 1.5t-25.5 4 t-24 4t-17 1.5q-25 0 -47 -17.5t-38.5 -44t-26 -57.5t-9.5 -58z" />
<glyph unicode="&#xb1;" horiz-adv-x="1169" d="M54 824q14 16 33.5 25.5t43.5 15t51.5 7t57.5 1.5q66 0 110.5 0.5t74 1.5t45.5 1.5t25 0.5q9 32 9 95l-6 74q6 52 5.5 89t5.5 60.5t24.5 34.5t63.5 11q71 0 94 -26q25 -27 25 -88q0 -23 -3 -60.5t-7.5 -77t-8 -74t-5.5 -52.5q19 0 45.5 -1t54 -2.5t51.5 -2.5t37 -1 q3 0 16.5 2.5t30 6t33.5 6t27 2.5q21 0 39.5 -7t33 -20t23 -29.5t8.5 -36.5q0 -13 -5.5 -30t-16.5 -32.5t-26 -26t-35 -10.5q-9 0 -27 1.5t-37 3t-36.5 3t-25.5 1.5h-127q-11 0 -33.5 -0.5t-42.5 -0.5q-8 -37 -8 -60q0 -50 1.5 -83.5t3 -58.5t2.5 -45t1 -42q0 -18 -12 -35.5 t-30 -31t-39.5 -22t-39.5 -8.5t-35 8t-29.5 19.5t-20 25t-7.5 24.5q0 10 1.5 23t3.5 26.5t4 25.5t3 20q5 45 7.5 83t2.5 73q0 17 -0.5 32t-1.5 27h-1q-20 0 -57 -2t-76.5 -4.5t-73 -4.5t-45.5 -2h-53q-42 0 -66 3.5t-36.5 18t-17 44t-6.5 81.5zM71 83q0 15 7 32.5t19.5 32.5 t31 25t40.5 10q8 0 28.5 3t44.5 7t46.5 7t34.5 3q54 0 113 -3.5t113.5 -7.5t99.5 -7.5t72 -3.5q11 0 31.5 0.5t44.5 1.5t47.5 1.5t39.5 0.5q47 0 82.5 -3t60 -13.5t37 -32t12.5 -58.5v-2q-3 -32 -19 -50.5t-43 -28t-63.5 -12t-78.5 -2.5q-9 0 -29 1.5t-45.5 3t-55 4t-56.5 4 t-49.5 3t-35.5 1.5q-14 0 -39.5 -0.5t-59.5 -1.5t-73.5 -1.5t-81.5 -0.5q-79 0 -125 0.5t-71.5 4.5t-38 13t-23.5 25q-8 15 -13 26.5t-5 17.5z" />
<glyph unicode="&#xb2;" horiz-adv-x="901" d="M18 644q0 65 128 211q122 138 254 275q11 11 26 29.5t30 38.5t26.5 39.5t15.5 32.5q-48 -6 -131 -41q-8 -5 -18 -9t-19.5 -8t-17 -9t-10.5 -13q-14 -19 -26 -28.5t-37 -9.5t-42.5 11.5t-28.5 28.5t-16 37.5t-5 39.5q0 27 6.5 44t21.5 29t38.5 21t57.5 19q53 17 99 37 t84 26q30 8 52 12t34 4q32 0 60.5 -12t50 -32.5t34.5 -46t13 -52.5q0 -12 -5 -35t-13 -48t-18 -48t-20 -35q-13 -14 -39.5 -46t-59.5 -71.5t-68 -82t-64 -78t-48.5 -59t-20.5 -25.5q44 18 76 23t62 10q26 4 48 7l44 6t45 6.5t50 8.5q15 3 33.5 7t37.5 7.5t35 6.5t26 3 q27 0 48 -10t36 -26.5t23 -38.5t8 -46q0 -39 -39 -72q-33 -27 -80 -27q-9 0 -21 2.5t-23.5 5t-21 5t-12.5 2.5q-79 0 -194.5 -28.5t-255.5 -71.5q-39 -12 -68 -19t-58 -7q-25 0 -47 6.5t-39 19.5t-27 31.5t-10 42.5z" />
<glyph unicode="&#xb3;" horiz-adv-x="795" d="M25 644q0 73 42 106h-2q35 26 115 26q12 0 18 -1.5t14 -5.5q24 0 45 4.5t47 11.5h-1q8 3 28 6.5t51.5 15.5t74.5 37t97 70q37 31 37 54q0 5 -26 5q-14 0 -55 -5.5t-113 -16.5q-13 -2 -35 -9q-28 -12 -55 -12q-46 0 -76.5 25t-30.5 70q0 14 10.5 32.5t26 35t34.5 28.5 t36 12q9 0 14 -1t8.5 -2t6.5 -2t9 -1q1 0 27.5 15.5t60 38.5t63.5 50t37 51q-5 0 -11.5 0.5t-15.5 0.5q-23 0 -51.5 -10.5t-58 -25t-56 -30t-45.5 -24.5q-15 -8 -33.5 -11.5t-40.5 -3.5q-20 0 -37.5 10.5t-30 26.5t-20 33.5t-7.5 30.5q0 40 41 67t132 47q51 11 86.5 23 t65.5 22t59.5 16.5t68.5 6.5q35 0 64.5 -8.5t51 -25t34 -41.5t12.5 -58q0 -47 -26 -87.5t-77 -91.5q27 -5 55.5 -16t52 -29t38 -45t14.5 -63q0 -47 -41 -115t-129 -144q-32 -28 -66.5 -50t-70.5 -36h1q-238 -101 -376 -101q-18 0 -34.5 9t-29 23t-20 30.5t-7.5 31.5z" />
<glyph unicode="&#xb4;" horiz-adv-x="762" d="M93 1103q0 54 138 151q40 28 80 55t77 52t69 47.5t55 40.5q16 13 36.5 20.5t42.5 7.5q8 0 23 -9t30.5 -24t27 -33.5t11.5 -38.5q0 -11 -4 -21t-19.5 -24.5t-46.5 -36t-86 -55.5q-10 -6 -32.5 -20t-51.5 -31.5t-61.5 -37.5t-60.5 -37.5t-49.5 -30.5t-29.5 -18q2 0 -8 -5 t-22.5 -11t-24 -11.5t-14.5 -5.5q-41 0 -60.5 22.5t-19.5 53.5z" />
<glyph unicode="&#xb5;" horiz-adv-x="1518" d="M149 -234q0 20 6 62.5t16 96.5t21.5 114.5t23 117.5t20.5 105.5t14 77.5q4 23 11 66t16.5 95t19.5 108.5t19 107.5t16.5 91.5t11.5 60.5q19 91 54.5 135t105.5 44q65 0 87 -52q18 -40 18 -89q0 -29 -11 -64.5t-30 -92.5q-16 -47 -28 -98t-20 -100t-12.5 -93t-4.5 -78 q0 -9 8.5 -27.5t19 -37.5t19.5 -33.5t11 -14.5q51 0 106 21.5t109 59.5q54 40 97.5 89.5t75.5 106.5q8 14 17 42t17 61.5t15.5 68t12.5 60.5t9.5 46t6.5 34q3 15 9.5 40t18 49t29 42t41.5 18q19 0 41 -4t51 -14q76 -21 76 -63q0 -20 -7.5 -47.5t-18.5 -71.5q-2 -13 -8.5 -34 t-14.5 -49q-20 -73 -29.5 -122t-9.5 -75q0 -21 2 -51t5 -62t7.5 -63.5t9.5 -56t10.5 -40t11.5 -15.5q13 0 28 5t31 12t31 13t28 7q17 0 32 -7t25.5 -19t16.5 -27t6 -30q0 -22 -15 -49t-39 -50t-53.5 -39.5t-58.5 -17.5q-26 -4 -47 -6t-38 -2q-35 0 -64 18.5t-52.5 49.5 t-41 70t-29.5 80q-6 20 -8 26t-3 8t-2 5.5t-3 17.5q-46 -52 -98 -99t-103 -82t-97 -56t-79 -21q-17 0 -42.5 3t-52.5 11.5t-51 22.5t-39 36q0 1 -3.5 -24.5t-9 -66t-13 -90.5t-14.5 -98.5t-15 -90t-14 -64.5v2q-7 -33 -33.5 -56.5t-62.5 -23.5q-34 0 -56.5 15.5t-36.5 39.5 t-20 52t-6 53z" />
<glyph unicode="&#xb6;" horiz-adv-x="1370" d="M107 903q0 32 7.5 69t21.5 74.5t34 73.5t45 66q16 19 49 40.5t76 43.5t92 42.5t97 36.5q48 17 86 27t69 16.5t56.5 10.5t47.5 8q24 4 53 8t57.5 7t56 4.5t48.5 1.5q37 0 82.5 -12.5t86 -34.5t68 -53t27.5 -68q-2 -27 -17.5 -42t-35.5 -26q-5 -3 -8 -12t-5 -20.5t-3 -22.5 t-1 -19q-1 -21 -6.5 -64.5t-12.5 -97.5t-15.5 -112t-15.5 -108.5t-12 -88t-6 -49.5q-2 -32 -3.5 -77t-1.5 -101q0 -93 7 -176.5t22 -160.5q1 -10 7.5 -32t14.5 -44.5t14.5 -40.5t7.5 -21q-18 -29 -59 -46q-30 -14 -53 -14q-36 0 -62.5 24.5t-46 73.5t-32.5 122t-23 170 q-1 8 -2 25.5t-2 36.5t-1.5 35t-0.5 20q0 69 4 135t12 133t18 145.5t26 169.5q5 28 12 67.5t13 77t10.5 66.5t4.5 36q0 6 -29 6q-43 0 -117 -8.5t-182 -26.5q-29 -5 -73 -20t-89.5 -36.5t-85.5 -47t-61 -51.5q-57 -71 -57 -130q0 -33 25.5 -66.5t59.5 -60.5t68 -44t52 -17 q1 4 2 10q1 5 2 12t3 17q4 29 6 74.5t2 105.5q0 83 27 117.5t86 34.5q82 0 82 -89q0 -24 -2 -62t-4.5 -79.5t-5 -79t-4.5 -60.5q7 2 15.5 3t16.5 1q106 0 106 -91q0 -22 -5.5 -37t-16.5 -24.5t-27 -14.5t-38 -9q-16 -3 -26 -7.5t-16 -19.5v1q-15 -49 -15 -220v-74 q0 -68 2.5 -125.5t7.5 -107.5q9 -72 9 -93q0 -19 -9.5 -36.5t-25.5 -31t-35.5 -22t-39.5 -8.5t-41 22.5t-39.5 70t-32 121.5t-17.5 177q1 13 2 38.5t2 54t2.5 55.5t3.5 42q2 22 2.5 46.5t0.5 54.5q0 13 -13.5 20t-31.5 12t-37 8.5t-31 8.5q-31 14 -64.5 38t-64.5 51 t-56.5 52.5t-39.5 41.5q-28 35 -44.5 78.5t-16.5 101.5z" />
<glyph unicode="&#xb7;" horiz-adv-x="524" d="M106 638q0 26 28 75q11 20 22.5 37t22.5 28q27 28 132 28q59 0 88 -79l-1 1q14 -35 20 -60.5t6 -42.5q0 -27 -28 -70q-29 -32 -124 -32q-37 0 -96 36q-70 42 -70 79z" />
<glyph unicode="&#xb8;" horiz-adv-x="637" d="M34 -440q0 32 20.5 52t64.5 20q17 0 33.5 -6.5t35.5 -17.5q22 -12 39 -15.5t38 -3.5q25 0 47.5 6.5t42.5 17.5q7 4 16 11.5t16.5 16.5t13 20t5.5 22t-6.5 21t-16 17.5t-20 12t-19.5 4.5q-2 0 -28 -8q-35 -16 -60 -16q-89 0 -89 79q42 109 65.5 171.5t28.5 75.5 q5 22 30 34.5t70 12.5q15 0 28.5 -8.5t24 -21.5t16.5 -29.5t6 -33.5q0 -11 -5 -23.5t-13 -24.5q-7 -11 -18.5 -30.5t-11.5 -34.5q0 -5 6.5 -7.5t16 -4t19.5 -2t17 -2.5q20 -5 35.5 -11t26.5 -16q20 -16 31.5 -35t18.5 -43.5t9 -56.5t2 -74q0 -76 -92 -136q-27 -18 -52 -31 t-51.5 -21.5t-55.5 -12t-65 -3.5q-4 0 -13.5 2.5t-21 6t-23 6.5t-19.5 5q-29 9 -48 17t-21 9q-74 30 -74 89z" />
<glyph unicode="&#xb9;" horiz-adv-x="610" d="M166 705q0 51 7.5 135.5t20.5 184.5q14 110 34 205t50 179q23 62 58.5 91.5t81.5 29.5q18 0 32 -8t24.5 -21t16 -27.5t5.5 -28.5q0 -13 -19 -50q-1 -4 -5.5 -27t-10.5 -58t-13.5 -77t-14 -84t-12.5 -80t-9 -63q-4 -24 -6.5 -53t-4 -60t-2 -62t-2.5 -57 q-5 -76 -36.5 -113.5t-86.5 -37.5q-18 0 -37 6t-35 17t-26 26t-10 33z" />
<glyph unicode="&#xba;" horiz-adv-x="895" d="M92 923q0 80 44 191q3 9 12.5 28t21.5 40.5t23.5 41.5t16.5 30q29 58 62 101.5t75 73t94 44t118 14.5q29 0 48 -6t32 -17t21.5 -26t17.5 -33q8 -15 28 -30q20 -13 33.5 -23.5t18.5 -20.5l-1 1q59 -86 59 -214q0 -22 -6 -54.5t-15.5 -66.5t-22.5 -63.5t-28 -46.5 q-31 -36 -84 -72t-114 -65t-123 -47.5t-112 -18.5q-219 0 -219 239zM285.5 960q-2.5 -36 2.5 -60q1 -5 10.5 -12.5t21 -14t22 -11t12.5 -4.5q8 0 38.5 11t81.5 38q50 26 75.5 47.5t32.5 33.5v-1q3 5 7.5 19t8 32.5t6.5 38t3 33.5q0 29 -2.5 47.5t-7 29t-10.5 16t-13 8.5 q-36 25 -40 40q-2 10 -5 20.5t-3 19.5q0 20 -14 20q-16 0 -47.5 -27.5t-64.5 -69t-61.5 -90.5t-40.5 -92q-10 -36 -12.5 -72z" />
<glyph unicode="&#xbb;" horiz-adv-x="1493" d="M137 299q0 11 8 26.5t19 46.5q15 12 49.5 30.5t77.5 41t88.5 46.5t83 45t62 37.5t24.5 24.5q0 2 -18 19t-45 42t-59.5 55.5t-61.5 60.5q-49 50 -83 84t-34 58q0 18 8 34t21 28t31 19.5t37 7.5q10 0 28.5 -11t42 -30t51 -45t56.5 -56q30 -32 52 -57.5t38.5 -44.5t29 -31.5 t25.5 -19.5q16 -8 32 -20.5t31 -37.5q20 -24 27 -38.5t7 -28.5q0 -5 -2 -15t-5 -20t-7.5 -19t-10.5 -13q-8 -7 -41 -27t-71.5 -42.5t-71 -41t-40.5 -23.5q-25 -14 -61.5 -41t-87.5 -66q-32 -34 -66.5 -50t-52.5 -16q-58 0 -83 21t-28 67zM727 287q0 34 51.5 72t141.5 93 q39 24 77.5 45.5t73 39.5t63.5 32.5t50 24.5q-15 11 -39 29.5t-52 41.5t-57 47t-54 45t-43 36t-23 20q-52 47 -52 75q0 12 8 30t21.5 34t30.5 27.5t34 11.5q25 0 57.5 -20t70.5 -65q29 -34 62 -67t68 -62t71 -53.5t70 -41.5q14 -5 29.5 -12t28.5 -16t21.5 -20.5t8.5 -26.5 q0 -40 -35 -67.5t-103 -54.5q-6 -2 -29 -15.5t-54 -32t-66 -40t-65 -40t-52 -32t-26 -16.5q-20 -13 -38 -29t-45 -39q-25 -26 -49.5 -39.5t-59.5 -13.5q-45 0 -70.5 28.5t-25.5 70.5z" />
<glyph unicode="&#xbc;" horiz-adv-x="1700" d="M150 874q0 11 5.5 40.5t12.5 63t13.5 64.5t8.5 46q1 20 6.5 57.5t12 79.5t12.5 80t8 57q1 43 26 112q29 84 91 84q53 0 82.5 -33t29.5 -82q0 -13 -5 -49.5t-13.5 -86.5t-18.5 -109t-19.5 -117t-17.5 -110.5t-12 -89.5q-3 -31 -8 -59.5t-15.5 -50.5t-29 -34.5t-48.5 -12.5 q-28 0 -50.5 14.5t-38 36.5t-24 48.5t-8.5 50.5zM176 -23q0 17 21 67q8 18 22 47.5t31.5 65.5t37 74t37.5 73t33 63t23 42q32 55 72 121t90 137q13 18 33 49t40.5 64.5t39 64.5t27.5 49q36 69 71.5 136t69.5 134l20.5 41t26.5 57q29 66 57 113.5t58 85.5q15 19 34.5 36.5 t41 31t43 21.5t39.5 8q20 0 39 -7t34 -19t24.5 -29t9.5 -37q0 -18 -30 -60t-81 -105q-15 -18 -24 -29.5t-14.5 -19t-9.5 -12.5t-8 -9q-30 -37 -56.5 -88.5t-53 -110.5t-53.5 -120.5t-58 -117.5q-4 -7 -10.5 -16t-17.5 -25q-1 1 -14 -18t-30 -45t-34.5 -53t-26.5 -41 q-43 -58 -80 -118.5t-68 -119.5t-56.5 -114t-46.5 -103q-21 -51 -42.5 -97.5t-45.5 -82t-51 -57t-60 -21.5q-21 0 -39.5 7.5t-33 20.5t-23 30t-8.5 36zM787 288q0 11 22 42.5t60 76.5t88.5 100t107.5 112q55 55 87 86.5t41 39.5q8 8 19.5 17.5t23 20t21 20.5t13.5 17 q10 18 18 31t19.5 21.5t28 12.5t42.5 4q14 0 28 -7t25 -17t17.5 -21t6.5 -20q0 -39 -7.5 -87t-22.5 -120q-13 -62 -21 -107t-10 -85q12 -4 60 -4q14 0 34.5 1t38.5 1q160 0 160 -74q0 -12 -8.5 -27.5t-22.5 -30t-32.5 -24.5t-38.5 -10q-9 1 -32 2t-52 1q-128 0 -128 -13 v-225q0 -6 2 -15.5t4.5 -20t4.5 -20t2 -13.5q0 -37 -39 -66q-28 -26 -72 -26q-33 0 -54 14.5t-32.5 41.5t-15.5 65t-4 84v168q-13 0 -36 -3.5t-50 -8t-56 -9.5t-55 -9.5t-46 -7.5t-28 -3q-22 0 -42 7t-35.5 20t-24.5 30t-9 38zM1059 381q15 2 34.5 3.5t39.5 3t37.5 2.5 t28.5 2l32 168q-19 -18 -44 -42.5t-50 -50t-46 -48.5t-32 -38z" />
<glyph unicode="&#xbd;" horiz-adv-x="1747" d="M119 100q0 23 16.5 58.5t67.5 86.5q8 10 13 19.5t11.5 23.5t16 34t27.5 50q31 54 80 118.5t103 127.5q7 8 21 29t31.5 46t37 49.5t37.5 39.5q14 12 39.5 38.5t52.5 55.5t50 55t31 36q17 17 27.5 40.5t31.5 50.5q22 37 49 79t54.5 81t53 71.5t44.5 49.5q3 5 16 11t30 12 t35 10t31 4q62 0 62 -62q0 -45 -28 -95.5t-73 -108.5q-7 -9 -20.5 -29.5t-31 -46.5t-36.5 -55t-36.5 -56t-33 -49.5t-24.5 -34.5q-28 -37 -82 -99t-144 -157h1q-51 -60 -91 -105.5t-71 -84.5t-53.5 -75t-39.5 -76t-38 -81t-47.5 -74.5t-57.5 -54.5t-67 -21q-19 0 -36.5 6.5 t-31 18.5t-21 28.5t-7.5 35.5zM163 815q0 20 7.5 40.5t14.5 40.5l-2 -2q6 22 12 56t12.5 70t12.5 67.5t11 47.5q4 12 9.5 34t11.5 49.5t13 58t14 58t14.5 50.5t15.5 36q11 20 20.5 33t20 21.5t24 12t33.5 3.5q19 0 35.5 -8t28.5 -21.5t18.5 -30.5t6.5 -34t-21 -158 q-2 -16 -11.5 -50.5t-21.5 -76.5t-23.5 -85t-19.5 -75q-7 -30 -11 -63.5t-4 -71.5q0 -24 -25 -89q-16 -30 -88 -30q-28 0 -48.5 10t-33.5 26t-19.5 37.5t-6.5 43.5zM659 102q0 24 31 56.5t80.5 66.5t111.5 66.5t125 54.5q11 4 32.5 15.5t54.5 32.5q23 8 58.5 35.5t69.5 60.5 t58.5 62.5t24.5 40.5q0 5 -18 5q-12 0 -29 -2t-33 -4.5t-28.5 -5t-15.5 -3.5q-74 -19 -116 -30.5t-55 -14.5q-45 -15 -75 -15q-23 0 -41 11t-30.5 26.5t-19 33.5t-6.5 31q0 26 28 46.5t75 37.5t108 31t126 25q59 10 100.5 15t66.5 5q54 0 96.5 -32t68.5 -77 q8 -14 12.5 -23.5t4.5 -19.5q0 -45 -22.5 -94.5t-60 -97.5t-87 -92t-102.5 -77l-82 -35q-20 -9 -51 -20.5t-67 -29.5l148 31q89 19 167.5 25t167.5 6q7 0 17 -1l20 -2t18.5 -2t12.5 -1q25 0 46 -14.5t36 -35.5t23.5 -44t8.5 -40q0 -77 -106 -77q-16 0 -42.5 3t-62.5 10h1 q-64 12 -118 12q-46 0 -106 -6.5t-124 -14.5q-5 -1 -9.5 -1.5t-9.5 -1.5q-57 -8 -106.5 -13t-98.5 -5q-10 0 -30 -3.5t-42.5 -8t-43 -8t-31.5 -3.5q-26 0 -49.5 10.5t-41 26.5t-28 35.5t-10.5 37.5z" />
<glyph unicode="&#xbe;" horiz-adv-x="1794" d="M74 1379q0 21 35.5 46.5t100.5 48t155.5 37.5t199.5 15q71 0 134 -19q91 -26 91 -92q0 -27 -14 -53t-37.5 -51t-54.5 -47.5t-65 -42.5q75 -10 114 -31t39 -72q0 -45 -26.5 -85.5t-70 -77t-100 -69t-117.5 -62.5q-3 -1 -12.5 -7.5t-26.5 -18.5q-34 -26 -60 -36.5 t-50 -10.5t-43.5 10.5t-33.5 26t-22 33t-8 31.5q0 23 21 41.5t51.5 34.5t64.5 30t60 27q42 20 85.5 45t75.5 50q-15 -1 -38 -2.5t-47 -3.5t-46 -3.5t-35 -1.5q-137 0 -137 98q0 32 61 72q19 12 48 27.5t62 32t65.5 34.5t58.5 36q-106 -4 -226 -36q-12 -4 -35 -12 t-47.5 -15.5t-46.5 -13t-33 -5.5q-18 0 -34.5 9t-29 22.5t-19.5 29.5t-7 31zM306 59q0 24 13 58.5t33 73.5v-1q17 35 39 74.5t48 81.5q11 18 34.5 53t52.5 78t60.5 89.5t59 87t47.5 71t26 41.5q4 6 18.5 30.5t34.5 58.5t43 73t44 73.5t36.5 60t20.5 33.5q27 41 84 108 q24 29 51.5 62.5t52.5 65t46.5 58.5t33.5 44q70 100 128 156t96 56q72 0 72 -84q0 -19 -24 -59.5t-67 -98.5t-102 -133.5t-128 -165.5q-53 -68 -102 -140.5t-91 -140.5l1 1q-10 -18 -40 -65t-69.5 -108.5t-83 -130t-81.5 -128.5t-65.5 -104t-34.5 -57q-3 -6 -10 -23 t-15.5 -38t-17 -43t-13.5 -37q-26 -64 -59 -99t-67 -35q-25 0 -44.5 10.5t-33 26t-20.5 33.5t-7 33zM951 402q0 9 25.5 50.5t66 99t90 121.5t98 118.5t90.5 90t67 35.5q2 0 9 6q3 4 6.5 12.5t7 17.5l7 18t6.5 13q29 58 116 58q12 0 27 -7.5t28 -19t21.5 -24.5t8.5 -24 q0 -9 -4.5 -23t-12 -31.5t-17.5 -36.5t-21 -38q4 -20 4 -53q0 -16 -2.5 -40.5t-6 -51t-6.5 -52t-4 -43.5q20 10 42 15t41 5q18 0 32 -10.5t23.5 -25.5t14 -32t4.5 -30q0 -20 -6.5 -33.5t-17 -22.5t-24.5 -14t-28 -8q-1 0 -11.5 -2.5t-23.5 -5.5t-24.5 -5t-15.5 -2 q-14 -3 -24 -10.5t-17 -21.5t-12 -36t-10 -54v1q-3 -21 -5 -54t-3.5 -64.5t-2.5 -55t-1 -25.5q-10 -126 -92 -126q-28 0 -50 11t-37.5 29t-23.5 41t-8 47q0 6 3.5 29t9 54.5t12 67t13 65.5t12.5 49.5t9 19.5q-15 0 -39 -3.5t-49 -8.5t-47 -10.5t-31 -10.5q-1 0 -29 -28 q-35 -34 -81 -34t-76.5 30t-30.5 73zM1248 541q20 6 42.5 11.5t42 9.5t32.5 7.5t14 4.5l40 174q-16 -17 -39.5 -38.5t-48 -48t-47 -56.5t-36.5 -64z" />
<glyph unicode="&#xbf;" horiz-adv-x="987" d="M44 -200q0 61 8 119.5t26 115.5q22 69 62 127t94.5 102.5t122 75t145.5 43.5q-21 75 -21 167q0 48 8 93.5t27 81t51.5 56.5t81.5 21q27 0 46 -8.5t30.5 -23.5t16.5 -35.5t5 -44.5q0 -17 -5 -29.5t-11.5 -25t-14 -26.5t-13.5 -33q-3 -14 -5 -38t-2 -57q3 -10 8 -22 q5 -11 11 -26.5t14 -37.5q17 -46 26.5 -78t9.5 -50q0 -40 -46 -81q-38 -32 -93 -32q-20 0 -40.5 8t-45.5 27q-39 -7 -88 -34t-92 -68.5t-72.5 -96t-29.5 -115.5q0 -67 37.5 -99.5t100.5 -32.5q62 0 90 9q94 26 168 60t135 90q24 22 47.5 31.5t63.5 9.5q19 0 35 -9 t27.5 -21.5t18 -27t6.5 -25.5q0 -20 -18.5 -48t-51 -59.5t-76.5 -65t-95 -66.5q-45 -29 -76 -45.5t-59 -25t-56 -12t-67 -6.5q-29 -2 -55.5 -5t-50.5 -3q-74 0 -136 24.5t-107 64t-70 89t-25 98.5zM549 1132q0 32 6.5 64.5t22 58t42 41.5t65.5 16t62 -14t35 -39.5t16 -60.5 t4 -76q0 -13 -21.5 -42t-63.5 -59q-8 -5 -18 -8.5t-26 -3.5q-9 0 -21 2.5t-21 7.5q-42 27 -62 55.5t-20 57.5z" />
<glyph unicode="&#xc0;" horiz-adv-x="1714" d="M15 62q0 34 29 47.5t80 22.5q0 1 11 15t26 32t29.5 35.5t20.5 26.5q39 54 81.5 112.5t93.5 134.5v-1q26 38 42.5 63t31.5 47t31.5 45t40.5 57q62 87 108.5 147.5t76.5 100.5q36 56 68 107q14 22 27 44.5t25 43.5t21.5 39.5t14.5 31.5q119 291 204 291q37 0 60 -5.5 t35.5 -19t17 -35.5t4.5 -55v-48.5t-1 -30.5t-1.5 -26t-2.5 -35q24 -51 46.5 -105t42.5 -107q4 -12 17.5 -50.5t32 -90.5t39 -110t38 -109t30.5 -88t17 -47q13 -56 73 -185q8 -16 13.5 -28t13 -25t19.5 -30t32 -44q69 -94 69 -138q0 -25 -9.5 -47t-26 -38.5t-40 -26.5 t-50.5 -10q-25 0 -49 16t-46.5 41t-43 56.5t-37 63.5t-29.5 61t-21 48q-11 27 -22 50t-23 59l-10.5 30t-6 15.5t-4 9t-3.5 10.5q-20 -9 -43 -10.5t-51 -1.5q-5 0 -17 -3.5t-27.5 -8.5t-32 -10.5t-31.5 -9.5q-48 -12 -104 -23t-117 -21.5t-124.5 -21t-127.5 -21.5 q-7 -1 -12 -4t-14 -15.5t-27 -38.5t-51 -74q-38 -55 -72 -95.5t-64 -69.5q-29 -29 -61.5 -44t-67.5 -15q-46 0 -82 11.5t-60.5 29.5t-37 39t-12.5 39zM699 538q30 3 63 4.5t53 7.5q27 8 48.5 14t43 11t44.5 10t53 11q44 11 89.5 23t84.5 24q-16 49 -33 102t-35.5 105.5 t-37.5 102t-40 90.5q-85 -116 -170.5 -244t-162.5 -261zM702 2005q0 13 11 29t26.5 30t32.5 23.5t29 9.5q21 0 48 -10t56 -31q28 -20 49.5 -40t41.5 -37q22 -19 47 -40.5t59 -45.5q38 -26 60.5 -48t42.5 -36q65 -45 65 -93q0 -35 -23.5 -58.5t-69.5 -23.5q-7 0 -31 9t-45 26 q-5 3 -11 8t-12 11q-16 13 -36.5 28t-40 29t-35.5 25t-24 17q-6 5 -30 22t-58 39q-77 49 -114.5 87t-37.5 70z" />
<glyph unicode="&#xc1;" horiz-adv-x="1714" d="M15 62q0 34 29 47.5t80 22.5q0 1 11 15t26 32t29.5 35.5t20.5 26.5q39 54 81.5 112.5t93.5 134.5v-1q26 38 42.5 63t31.5 47t31.5 45t40.5 57q62 87 108.5 147.5t76.5 100.5q36 56 68 107q14 22 27 44.5t25 43.5t21.5 39.5t14.5 31.5q119 291 204 291q37 0 60 -5.5 t35.5 -19t17 -35.5t4.5 -55v-48.5t-1 -30.5t-1.5 -26t-2.5 -35q24 -51 46.5 -105t42.5 -107q4 -12 17.5 -50.5t32 -90.5t39 -110t38 -109t30.5 -88t17 -47q13 -56 73 -185q8 -16 13.5 -28t13 -25t19.5 -30t32 -44q69 -94 69 -138q0 -25 -9.5 -47t-26 -38.5t-40 -26.5 t-50.5 -10q-25 0 -49 16t-46.5 41t-43 56.5t-37 63.5t-29.5 61t-21 48q-11 27 -22 50t-23 59l-10.5 30t-6 15.5t-4 9t-3.5 10.5q-20 -9 -43 -10.5t-51 -1.5q-5 0 -17 -3.5t-27.5 -8.5t-32 -10.5t-31.5 -9.5q-48 -12 -104 -23t-117 -21.5t-124.5 -21t-127.5 -21.5 q-7 -1 -12 -4t-14 -15.5t-27 -38.5t-51 -74q-38 -55 -72 -95.5t-64 -69.5q-29 -29 -61.5 -44t-67.5 -15q-46 0 -82 11.5t-60.5 29.5t-37 39t-12.5 39zM699 538q30 3 63 4.5t53 7.5q27 8 48.5 14t43 11t44.5 10t53 11q44 11 89.5 23t84.5 24q-16 49 -33 102t-35.5 105.5 t-37.5 102t-40 90.5q-85 -116 -170.5 -244t-162.5 -261zM894 1695q0 54 138 151q40 28 80 55t77 52t69 47.5t55 40.5q16 13 36.5 20.5t42.5 7.5q8 0 23 -9t30.5 -24t27 -33.5t11.5 -38.5q0 -11 -4 -21t-19.5 -24.5t-46.5 -36t-86 -55.5q-10 -6 -32.5 -20t-51.5 -31.5 t-61.5 -37.5t-60.5 -37.5t-49.5 -30.5t-29.5 -18q2 0 -8 -5t-22.5 -11t-24 -11.5t-14.5 -5.5q-41 0 -60.5 22.5t-19.5 53.5z" />
<glyph unicode="&#xc2;" horiz-adv-x="1714" d="M15 62q0 34 29 47.5t80 22.5q0 1 11 15t26 32t29.5 35.5t20.5 26.5q39 54 81.5 112.5t93.5 134.5v-1q26 38 42.5 63t31.5 47t31.5 45t40.5 57q62 87 108.5 147.5t76.5 100.5q36 56 68 107q14 22 27 44.5t25 43.5t21.5 39.5t14.5 31.5q119 291 204 291q37 0 60 -5.5 t35.5 -19t17 -35.5t4.5 -55v-48.5t-1 -30.5t-1.5 -26t-2.5 -35q24 -51 46.5 -105t42.5 -107q4 -12 17.5 -50.5t32 -90.5t39 -110t38 -109t30.5 -88t17 -47q13 -56 73 -185q8 -16 13.5 -28t13 -25t19.5 -30t32 -44q69 -94 69 -138q0 -25 -9.5 -47t-26 -38.5t-40 -26.5 t-50.5 -10q-25 0 -49 16t-46.5 41t-43 56.5t-37 63.5t-29.5 61t-21 48q-11 27 -22 50t-23 59l-10.5 30t-6 15.5t-4 9t-3.5 10.5q-20 -9 -43 -10.5t-51 -1.5q-5 0 -17 -3.5t-27.5 -8.5t-32 -10.5t-31.5 -9.5q-48 -12 -104 -23t-117 -21.5t-124.5 -21t-127.5 -21.5 q-7 -1 -12 -4t-14 -15.5t-27 -38.5t-51 -74q-38 -55 -72 -95.5t-64 -69.5q-29 -29 -61.5 -44t-67.5 -15q-46 0 -82 11.5t-60.5 29.5t-37 39t-12.5 39zM699 538q30 3 63 4.5t53 7.5q27 8 48.5 14t43 11t44.5 10t53 11q44 11 89.5 23t84.5 24q-16 49 -33 102t-35.5 105.5 t-37.5 102t-40 90.5q-85 -116 -170.5 -244t-162.5 -261zM744 1746q0 20 10 40.5t30 39.5q11 13 21.5 26.5t21.5 24.5q33 34 57.5 61t50.5 50q28 27 54.5 56.5t49.5 56.5q63 78 122 78q20 0 45 -15.5t43 -42.5q15 -23 32 -53t37 -66q19 -36 33 -54t18 -22q6 -6 14.5 -16 t17 -22t17.5 -23.5t17 -20.5q29 -31 39 -49t13 -23q11 -17 13.5 -33t2.5 -27q0 -15 -7.5 -31t-20 -28.5t-28.5 -20.5t-34 -8q-21 0 -41 12t-37.5 29.5t-31.5 37.5t-25 36q-8 14 -18.5 28t-28.5 40q-15 21 -31.5 41t-30.5 46q-2 4 -7.5 12t-12 15.5t-13 13.5t-10.5 6 t-10 -5.5t-13 -13t-14.5 -16.5t-15.5 -16q-15 -14 -35 -34t-33 -34q-14 -15 -36 -37t-65 -63l-20 -20t-22 -20.5t-22.5 -15.5t-22.5 -6q-39 0 -56 21.5t-17 64.5z" />
<glyph unicode="&#xc3;" horiz-adv-x="1714" d="M15 62q0 34 29 47.5t80 22.5q0 1 11 15t26 32t29.5 35.5t20.5 26.5q39 54 81.5 112.5t93.5 134.5v-1q26 38 42.5 63t31.5 47t31.5 45t40.5 57q62 87 108.5 147.5t76.5 100.5q36 56 68 107q14 22 27 44.5t25 43.5t21.5 39.5t14.5 31.5q119 291 204 291q37 0 60 -5.5 t35.5 -19t17 -35.5t4.5 -55v-48.5t-1 -30.5t-1.5 -26t-2.5 -35q24 -51 46.5 -105t42.5 -107q4 -12 17.5 -50.5t32 -90.5t39 -110t38 -109t30.5 -88t17 -47q13 -56 73 -185q8 -16 13.5 -28t13 -25t19.5 -30t32 -44q69 -94 69 -138q0 -25 -9.5 -47t-26 -38.5t-40 -26.5 t-50.5 -10q-25 0 -49 16t-46.5 41t-43 56.5t-37 63.5t-29.5 61t-21 48q-11 27 -22 50t-23 59l-10.5 30t-6 15.5t-4 9t-3.5 10.5q-20 -9 -43 -10.5t-51 -1.5q-5 0 -17 -3.5t-27.5 -8.5t-32 -10.5t-31.5 -9.5q-48 -12 -104 -23t-117 -21.5t-124.5 -21t-127.5 -21.5 q-7 -1 -12 -4t-14 -15.5t-27 -38.5t-51 -74q-38 -55 -72 -95.5t-64 -69.5q-29 -29 -61.5 -44t-67.5 -15q-46 0 -82 11.5t-60.5 29.5t-37 39t-12.5 39zM691 1739q0 48 54 120q24 31 51 60t61 55q68 53 126 53q36 0 62.5 -4t44.5 -12q20 -8 38.5 -22t38.5 -34q17 -17 31.5 -34 t27.5 -25q9 -5 20 -14.5t22 -18.5t21.5 -16t17.5 -7q19 0 34.5 16t32.5 40q12 17 20.5 33.5t22.5 33.5q32 38 65 38q42 0 56.5 -22t14.5 -58q0 -15 -8.5 -36.5t-21.5 -44.5q-11 -19 -26.5 -41.5t-35.5 -46.5q-16 -19 -33 -33.5t-34 -25.5q-31 -18 -73 -18t-74.5 6.5 t-58.5 22.5q-11 8 -24.5 20.5t-33.5 29.5q-9 8 -21.5 21t-17.5 18q-7 8 -18 18.5t-22.5 19.5t-23 15t-19.5 6q-20 0 -46.5 -19t-58.5 -61q-18 -24 -34 -44t-32 -34.5t-34 -22.5t-39 -8q-38 0 -55.5 22t-17.5 54zM699 538q30 3 63 4.5t53 7.5q27 8 48.5 14t43 11t44.5 10 t53 11q44 11 89.5 23t84.5 24q-16 49 -33 102t-35.5 105.5t-37.5 102t-40 90.5q-85 -116 -170.5 -244t-162.5 -261z" />
<glyph unicode="&#xc4;" horiz-adv-x="1714" d="M15 62q0 34 29 47.5t80 22.5q0 1 11 15t26 32t29.5 35.5t20.5 26.5q39 54 81.5 112.5t93.5 134.5v-1q26 38 42.5 63t31.5 47t31.5 45t40.5 57q62 87 108.5 147.5t76.5 100.5q36 56 68 107q14 22 27 44.5t25 43.5t21.5 39.5t14.5 31.5q119 291 204 291q37 0 60 -5.5 t35.5 -19t17 -35.5t4.5 -55v-48.5t-1 -30.5t-1.5 -26t-2.5 -35q24 -51 46.5 -105t42.5 -107q4 -12 17.5 -50.5t32 -90.5t39 -110t38 -109t30.5 -88t17 -47q13 -56 73 -185q8 -16 13.5 -28t13 -25t19.5 -30t32 -44q69 -94 69 -138q0 -25 -9.5 -47t-26 -38.5t-40 -26.5 t-50.5 -10q-25 0 -49 16t-46.5 41t-43 56.5t-37 63.5t-29.5 61t-21 48q-11 27 -22 50t-23 59l-10.5 30t-6 15.5t-4 9t-3.5 10.5q-20 -9 -43 -10.5t-51 -1.5q-5 0 -17 -3.5t-27.5 -8.5t-32 -10.5t-31.5 -9.5q-48 -12 -104 -23t-117 -21.5t-124.5 -21t-127.5 -21.5 q-7 -1 -12 -4t-14 -15.5t-27 -38.5t-51 -74q-38 -55 -72 -95.5t-64 -69.5q-29 -29 -61.5 -44t-67.5 -15q-46 0 -82 11.5t-60.5 29.5t-37 39t-12.5 39zM699 538q30 3 63 4.5t53 7.5q27 8 48.5 14t43 11t44.5 10t53 11q44 11 89.5 23t84.5 24q-16 49 -33 102t-35.5 105.5 t-37.5 102t-40 90.5q-85 -116 -170.5 -244t-162.5 -261zM760 1711q0 30 4 56t15 45t30 29.5t50 10.5q75 0 120 -39t45 -110q0 -68 -127 -68q-19 0 -42.5 6t-44.5 16.5t-35.5 24.5t-14.5 29zM1159 1770q0 23 5 39.5t18.5 29.5t38 23t63.5 19q7 2 16.5 5t22.5 3 q45 0 67.5 -28.5t22.5 -70.5q0 -129 -136 -129q-24 0 -45.5 8.5t-37.5 23.5t-25.5 35t-9.5 42z" />
<glyph unicode="&#xc5;" horiz-adv-x="1778" d="M-20 93q0 14 19.5 47t50.5 76.5t69.5 94t76 98t70.5 88t52 64.5q39 48 80.5 104.5t79.5 112.5q38 58 85 132t103 165q17 23 39.5 51t52.5 61q37 48 70.5 107t59.5 112q-64 37 -97.5 83t-33.5 88q0 11 6.5 32.5t17 48t24 54.5t27.5 52q17 29 44.5 44.5t48.5 15.5 q78 0 139.5 -10t105 -34t66.5 -63.5t23 -97.5q0 -42 -4.5 -81t-15 -71.5t-28.5 -57t-45 -38.5q5 -17 8.5 -44t8.5 -53q12 -58 12 -66q3 -17 9.5 -47.5t14 -67t16 -76t16.5 -74.5t14.5 -62t10.5 -40q6 -19 14 -42t16.5 -46.5t17 -44.5t14.5 -36q43 13 80 17t59 4q45 0 71 -4 t40 -14t18 -27t4 -43q0 -45 -37.5 -72.5t-119.5 -49.5q-3 -1 -15.5 -4t-18.5 -5q23 -46 41 -79.5t34 -58t30 -43t28 -34.5q18 -18 39.5 -41.5t41.5 -43.5q24 -25 37 -43.5t13 -30.5q0 -21 -9 -44t-26 -42.5t-40.5 -32t-53.5 -12.5q-74 0 -155.5 89t-185.5 269 q-14 24 -21.5 39.5t-12 26t-8 17.5t-9.5 15q-8 0 -29 -1.5t-48 -4t-57 -5.5t-56.5 -5.5t-46 -4.5t-25.5 -2q-101 -9 -215.5 -24.5t-222.5 -42.5q-4 -4 -17.5 -22.5t-32.5 -44t-40.5 -55t-41 -56t-34.5 -46.5t-20 -27q-21 -27 -39 -48.5t-37 -36t-40.5 -22.5t-48.5 -8 q-22 0 -45.5 13.5t-42.5 32.5t-31 40.5t-12 37.5zM606 552q42 4 93.5 9t104 10.5t102.5 12t90 12.5q29 5 59.5 10t49.5 10q-16 70 -33.5 144t-32.5 146t-25 138.5t-10 121.5q0 20 -4 29q-32 -50 -71.5 -113t-81 -130t-81.5 -133t-73 -120.5t-56.5 -93.5t-30.5 -53zM934 1607 q0 -16 9.5 -28t28.5 -26q29 -15 50.5 -23.5t38.5 -8.5q19 0 24 23.5t5 72.5q0 14 -3 18t-9 5q-35 3 -59.5 9t-34.5 30q-22 -22 -36 -41.5t-14 -30.5z" />
<glyph unicode="&#xc6;" horiz-adv-x="2255" d="M-77 35q0 13 11 32t28 37t36.5 30.5t35.5 12.5q14 0 42.5 24t65.5 62.5t79.5 87.5t83.5 98.5t78.5 96t63.5 80.5q125 158 235 314t195 308q43 78 72 132.5t63 83.5q15 13 35 23t39.5 16.5t36 10t23.5 3.5q8 0 28.5 -2.5t46.5 -6t55 -8t54 -8.5t42.5 -6.5t22.5 -2.5 q56 -3 101.5 -4.5t98.5 -1.5h37t42 2q41 3 89.5 13t94 21t83.5 19.5t57 8.5q23 0 50 -5t50 -17t38 -32.5t15 -51.5q0 -19 -9 -36t-23 -31t-31 -26t-33 -21q-32 -13 -85 -13q-34 0 -80.5 -5.5t-91.5 -13t-82.5 -14.5t-55.5 -10q-20 -3 -36 -5t-37.5 -3.5t-54 -2t-85.5 -0.5 q-14 0 -34.5 1.5t-41.5 3.5t-40 4t-30 3q-1 -16 -2 -50t-2 -80t-1.5 -102t-0.5 -117q17 -3 40 -5t47 -3t45 -1.5t34 -0.5q78 0 152.5 11.5t140.5 33.5q51 17 93.5 28.5t83.5 11.5q37 0 62.5 -5.5t41 -20t22.5 -38t7 -59.5q0 -18 -25 -34t-64 -29.5t-86 -24t-91.5 -18.5 t-80.5 -12.5l-52 -6.5q-19 -2 -55.5 -6t-78.5 -8t-84 -7t-74 -3q-16 0 -38 0.5t-39 2.5q-2 -11 -3 -25.5t-1 -30.5q0 -28 1.5 -53t1.5 -33q0 -20 4 -50t10 -60t12.5 -54t10.5 -32q26 -48 53 -77.5t64 -34.5q9 -2 18 -2h17q36 0 68 7t74 14q36 6 85.5 16.5t103.5 23t107 25.5 t95 23v1q7 11 22 22t32 20t31.5 15t20.5 6q24 0 42 -8.5t30 -23.5t18.5 -34.5t6.5 -41.5q0 -29 -16.5 -54t-42.5 -42q-25 -17 -64 -32.5t-86 -30t-99.5 -27.5t-106 -24.5t-104.5 -21t-95 -17.5q-65 -11 -113 -17t-72 -6q-43 0 -78 3t-65 13t-57 29.5t-54 52.5 q-41 51 -63.5 121.5t-30.5 156.5q-30 -5 -69.5 -12t-79.5 -13t-75 -10.5t-56 -4.5q-82 -1 -142.5 1t-80.5 0q-8 -1 -15 -3t-17.5 -11t-27 -28t-44.5 -54q-24 -36 -52 -71.5t-58.5 -70t-61 -67t-59.5 -62.5q-40 -43 -81.5 -65.5t-101.5 -22.5q-22 0 -45 11.5t-41.5 28.5 t-30.5 38.5t-12 40.5zM686 561q52 1 107.5 5t107.5 10t97.5 14t76.5 16q0 16 1.5 42t3 54t3 54.5t1.5 43.5q0 21 1 55.5t1.5 75t1.5 83.5t1 82v52t-2 43q-34 -51 -64 -102.5t-57.5 -100t-54.5 -93.5t-56 -83q-17 -23 -41.5 -58.5t-49.5 -72.5t-46 -69.5t-32 -50.5z" />
<glyph unicode="&#xc7;" horiz-adv-x="1510" d="M131 329q0 87 17 182.5t48.5 189.5t76.5 181t101 156q33 40 78.5 85t97 88.5t104 82t98.5 65.5q32 19 82 42.5t105.5 44t109 34.5t92.5 14q67 0 107 -9t71 -32q15 -11 34 -34t36 -49.5t29 -53.5t12 -45t-17 -49.5t-39.5 -64.5t-45 -62t-33.5 -42q-45 -53 -113 -53 q-59 0 -87.5 24t-28.5 63q0 15 17 47.5t56 71.5q19 19 33 37.5t22 32.5q-25 9 -51 9q-31 0 -79.5 -15.5t-100 -39t-101 -52.5t-82.5 -56q-92 -75 -174 -169t-136 -205q-22 -45 -40 -100.5t-31 -113t-20.5 -114t-7.5 -102.5q0 -103 55.5 -153t152.5 -50q41 0 96 9.5t116.5 28 t125 46t122.5 62.5q63 38 113 68t93.5 57.5t82.5 54t79.5 56.5t86 66t100.5 82q41 33 86.5 80.5t91.5 95.5q23 -12 36.5 -21.5t21.5 -19t10.5 -20.5t2.5 -26q0 -29 -23 -68.5t-63 -84.5t-93.5 -93t-113.5 -94q-55 -42 -111 -82.5t-110 -77.5t-103.5 -69t-91.5 -57 q-160 -94 -300.5 -139.5t-265.5 -50.5l-16 2q-10 -14 -18 -29.5t-8 -32.5q0 -5 6.5 -7.5t16 -4t19.5 -2.5t17 -2q41 -9 65 -27.5t37 -47.5t17 -69t4 -92q0 -41 -28 -77.5t-73 -65t-101.5 -45t-113.5 -16.5q-4 0 -13.5 2.5t-21 6t-23 6.5t-19.5 5q-39 12 -66.5 23.5t-44.5 25 t-24.5 29.5t-7.5 37q0 32 20.5 52t64.5 20q17 0 33.5 -6.5t35.5 -17.5q22 -12 39 -15.5t38 -3.5q20 0 44.5 5.5t46 17.5t36 29.5t14.5 41.5q0 11 -6.5 21t-16 17.5t-20 12t-19.5 4.5q-3 0 -14 -4t-25 -8.5t-27.5 -8t-21.5 -3.5q-89 0 -89 79q21 55 37.5 98t28.5 75 q-123 38 -181.5 131.5t-58.5 254.5z" />
<glyph unicode="&#xc8;" horiz-adv-x="1536" d="M152 150q0 43 11.5 95.5t25.5 125.5q14 70 27 128t24.5 113t21 109.5t14.5 117.5q1 7 3 34t4.5 64t5.5 79t6 79t4.5 64t1.5 35q0 7 -2 20t-2 21q0 23 8.5 50.5t26.5 56.5q9 15 31 30.5t48 28.5t52.5 21t45.5 8q11 0 34.5 -4t49 -9t48.5 -9t33 -4q23 0 62.5 -1t86.5 -1 q88 0 177.5 6.5t181.5 21.5q41 7 77 18t70.5 21.5t69.5 18t74 7.5q19 0 38 -8.5t34.5 -23t25.5 -32.5t10 -37q0 -10 -5.5 -26.5t-15 -33.5t-21.5 -31.5t-25 -20.5q-26 -13 -50.5 -19t-59.5 -13q-92 -18 -180 -30t-166.5 -19.5t-143.5 -10.5t-110 -3h-148h-59t-52 2 q-3 -33 -5.5 -80t-5.5 -96t-6 -94.5t-8 -76.5q27 -3 63.5 -4t70.5 -1q49 0 97.5 3.5t80.5 6.5q16 2 50 4t72.5 5t75 7t57.5 9q20 9 37.5 16t34 11.5t34 6.5t37.5 2q27 0 45 -10.5t28 -28t14 -40t4 -46.5q0 -30 -16.5 -49t-40.5 -31.5t-50.5 -19t-45.5 -10.5q-17 -4 -60.5 -8 t-100.5 -8.5t-120.5 -8.5t-120.5 -6.5t-101.5 -4.5t-63.5 -2q-31 0 -57 -5t-55 -13q-12 -48 -19 -104t-21 -117q-5 -24 -10.5 -49t-10 -47.5t-7.5 -41.5t-4 -31q21 0 48.5 1t57.5 3t60.5 4.5t57.5 5.5q71 6 121.5 10.5t91 8t75 7.5t74.5 10q21 3 50.5 6t61 6.5t63 8 t57.5 11.5q16 4 32.5 10.5t33.5 12.5t34.5 10t35.5 4q21 0 40.5 -9t34.5 -25t24 -38.5t9 -48.5q0 -9 -9.5 -25.5t-26 -33t-39.5 -30.5t-50 -19q-88 -17 -177 -26.5t-196 -23.5l-154 -18t-143 -17.5t-116 -15t-74 -11.5q-23 -4 -49 -11.5t-52.5 -14.5t-50.5 -12t-43 -5h-2 q-36 0 -63 8.5t-45 30t-27.5 58t-9.5 91.5zM590 2030q0 13 11 29t26.5 30t32.5 23.5t29 9.5q21 0 48 -10t56 -31q28 -20 49.5 -40t41.5 -37q22 -19 47 -40.5t59 -45.5q38 -26 60.5 -48t42.5 -36q65 -45 65 -93q0 -35 -23.5 -58.5t-69.5 -23.5q-7 0 -31 9t-45 26q-5 3 -11 8 t-12 11q-16 13 -36.5 28t-40 29t-35.5 25t-24 17q-6 5 -30 22t-58 39q-77 49 -114.5 87t-37.5 70z" />
<glyph unicode="&#xc9;" horiz-adv-x="1536" d="M152 150q0 43 11.5 95.5t25.5 125.5q14 70 27 128t24.5 113t21 109.5t14.5 117.5q1 7 3 34t4.5 64t5.5 79t6 79t4.5 64t1.5 35q0 7 -2 20t-2 21q0 23 8.5 50.5t26.5 56.5q9 15 31 30.5t48 28.5t52.5 21t45.5 8q11 0 34.5 -4t49 -9t48.5 -9t33 -4q23 0 62.5 -1t86.5 -1 q88 0 177.5 6.5t181.5 21.5q41 7 77 18t70.5 21.5t69.5 18t74 7.5q19 0 38 -8.5t34.5 -23t25.5 -32.5t10 -37q0 -10 -5.5 -26.5t-15 -33.5t-21.5 -31.5t-25 -20.5q-26 -13 -50.5 -19t-59.5 -13q-92 -18 -180 -30t-166.5 -19.5t-143.5 -10.5t-110 -3h-148h-59t-52 2 q-3 -33 -5.5 -80t-5.5 -96t-6 -94.5t-8 -76.5q27 -3 63.5 -4t70.5 -1q49 0 97.5 3.5t80.5 6.5q16 2 50 4t72.5 5t75 7t57.5 9q20 9 37.5 16t34 11.5t34 6.5t37.5 2q27 0 45 -10.5t28 -28t14 -40t4 -46.5q0 -30 -16.5 -49t-40.5 -31.5t-50.5 -19t-45.5 -10.5q-17 -4 -60.5 -8 t-100.5 -8.5t-120.5 -8.5t-120.5 -6.5t-101.5 -4.5t-63.5 -2q-31 0 -57 -5t-55 -13q-12 -48 -19 -104t-21 -117q-5 -24 -10.5 -49t-10 -47.5t-7.5 -41.5t-4 -31q21 0 48.5 1t57.5 3t60.5 4.5t57.5 5.5q71 6 121.5 10.5t91 8t75 7.5t74.5 10q21 3 50.5 6t61 6.5t63 8 t57.5 11.5q16 4 32.5 10.5t33.5 12.5t34.5 10t35.5 4q21 0 40.5 -9t34.5 -25t24 -38.5t9 -48.5q0 -9 -9.5 -25.5t-26 -33t-39.5 -30.5t-50 -19q-88 -17 -177 -26.5t-196 -23.5l-154 -18t-143 -17.5t-116 -15t-74 -11.5q-23 -4 -49 -11.5t-52.5 -14.5t-50.5 -12t-43 -5h-2 q-36 0 -63 8.5t-45 30t-27.5 58t-9.5 91.5zM710 1663q0 54 138 151q40 28 80 55t77 52t69 47.5t55 40.5q16 13 36.5 20.5t42.5 7.5q8 0 23 -9t30.5 -24t27 -33.5t11.5 -38.5q0 -11 -4 -21t-19.5 -24.5t-46.5 -36t-86 -55.5q-10 -6 -32.5 -20t-51.5 -31.5t-61.5 -37.5 t-60.5 -37.5t-49.5 -30.5t-29.5 -18q2 0 -8 -5t-22.5 -11t-24 -11.5t-14.5 -5.5q-41 0 -60.5 22.5t-19.5 53.5z" />
<glyph unicode="&#xca;" horiz-adv-x="1536" d="M152 150q0 43 11.5 95.5t25.5 125.5q14 70 27 128t24.5 113t21 109.5t14.5 117.5q1 7 3 34t4.5 64t5.5 79t6 79t4.5 64t1.5 35q0 7 -2 20t-2 21q0 23 8.5 50.5t26.5 56.5q9 15 31 30.5t48 28.5t52.5 21t45.5 8q11 0 34.5 -4t49 -9t48.5 -9t33 -4q23 0 62.5 -1t86.5 -1 q88 0 177.5 6.5t181.5 21.5q41 7 77 18t70.5 21.5t69.5 18t74 7.5q19 0 38 -8.5t34.5 -23t25.5 -32.5t10 -37q0 -10 -5.5 -26.5t-15 -33.5t-21.5 -31.5t-25 -20.5q-26 -13 -50.5 -19t-59.5 -13q-92 -18 -180 -30t-166.5 -19.5t-143.5 -10.5t-110 -3h-148h-59t-52 2 q-3 -33 -5.5 -80t-5.5 -96t-6 -94.5t-8 -76.5q27 -3 63.5 -4t70.5 -1q49 0 97.5 3.5t80.5 6.5q16 2 50 4t72.5 5t75 7t57.5 9q20 9 37.5 16t34 11.5t34 6.5t37.5 2q27 0 45 -10.5t28 -28t14 -40t4 -46.5q0 -30 -16.5 -49t-40.5 -31.5t-50.5 -19t-45.5 -10.5q-17 -4 -60.5 -8 t-100.5 -8.5t-120.5 -8.5t-120.5 -6.5t-101.5 -4.5t-63.5 -2q-31 0 -57 -5t-55 -13q-12 -48 -19 -104t-21 -117q-5 -24 -10.5 -49t-10 -47.5t-7.5 -41.5t-4 -31q21 0 48.5 1t57.5 3t60.5 4.5t57.5 5.5q71 6 121.5 10.5t91 8t75 7.5t74.5 10q21 3 50.5 6t61 6.5t63 8 t57.5 11.5q16 4 32.5 10.5t33.5 12.5t34.5 10t35.5 4q21 0 40.5 -9t34.5 -25t24 -38.5t9 -48.5q0 -9 -9.5 -25.5t-26 -33t-39.5 -30.5t-50 -19q-88 -17 -177 -26.5t-196 -23.5l-154 -18t-143 -17.5t-116 -15t-74 -11.5q-23 -4 -49 -11.5t-52.5 -14.5t-50.5 -12t-43 -5h-2 q-36 0 -63 8.5t-45 30t-27.5 58t-9.5 91.5zM609 1759q0 20 10 40.5t30 39.5q11 13 21.5 26.5t21.5 24.5q33 34 57.5 61t50.5 50q28 27 54.5 56.5t49.5 56.5q63 78 122 78q20 0 45 -15.5t43 -42.5q15 -23 32 -53t37 -66q19 -36 33 -54t18 -22q6 -6 14.5 -16t17 -22 t17.5 -23.5t17 -20.5q29 -31 39 -49t13 -23q11 -17 13.5 -33t2.5 -27q0 -15 -7.5 -31t-20 -28.5t-28.5 -20.5t-34 -8q-21 0 -41 12t-37.5 29.5t-31.5 37.5t-25 36q-8 14 -18.5 28t-28.5 40q-15 21 -31.5 41t-30.5 46q-2 4 -7.5 12t-12 15.5t-13 13.5t-10.5 6t-10 -5.5 t-13 -13t-14.5 -16.5t-15.5 -16q-15 -14 -35 -34t-33 -34q-14 -15 -36 -37t-65 -63l-20 -20t-22 -20.5t-22.5 -15.5t-22.5 -6q-39 0 -56 21.5t-17 64.5z" />
<glyph unicode="&#xcb;" horiz-adv-x="1536" d="M152 150q0 43 11.5 95.5t25.5 125.5q14 70 27 128t24.5 113t21 109.5t14.5 117.5q1 7 3 34t4.5 64t5.5 79t6 79t4.5 64t1.5 35q0 7 -2 20t-2 21q0 23 8.5 50.5t26.5 56.5q9 15 31 30.5t48 28.5t52.5 21t45.5 8q11 0 34.5 -4t49 -9t48.5 -9t33 -4q23 0 62.5 -1t86.5 -1 q88 0 177.5 6.5t181.5 21.5q41 7 77 18t70.5 21.5t69.5 18t74 7.5q19 0 38 -8.5t34.5 -23t25.5 -32.5t10 -37q0 -10 -5.5 -26.5t-15 -33.5t-21.5 -31.5t-25 -20.5q-26 -13 -50.5 -19t-59.5 -13q-92 -18 -180 -30t-166.5 -19.5t-143.5 -10.5t-110 -3h-148h-59t-52 2 q-3 -33 -5.5 -80t-5.5 -96t-6 -94.5t-8 -76.5q27 -3 63.5 -4t70.5 -1q49 0 97.5 3.5t80.5 6.5q16 2 50 4t72.5 5t75 7t57.5 9q20 9 37.5 16t34 11.5t34 6.5t37.5 2q27 0 45 -10.5t28 -28t14 -40t4 -46.5q0 -30 -16.5 -49t-40.5 -31.5t-50.5 -19t-45.5 -10.5q-17 -4 -60.5 -8 t-100.5 -8.5t-120.5 -8.5t-120.5 -6.5t-101.5 -4.5t-63.5 -2q-31 0 -57 -5t-55 -13q-12 -48 -19 -104t-21 -117q-5 -24 -10.5 -49t-10 -47.5t-7.5 -41.5t-4 -31q21 0 48.5 1t57.5 3t60.5 4.5t57.5 5.5q71 6 121.5 10.5t91 8t75 7.5t74.5 10q21 3 50.5 6t61 6.5t63 8 t57.5 11.5q16 4 32.5 10.5t33.5 12.5t34.5 10t35.5 4q21 0 40.5 -9t34.5 -25t24 -38.5t9 -48.5q0 -9 -9.5 -25.5t-26 -33t-39.5 -30.5t-50 -19q-88 -17 -177 -26.5t-196 -23.5l-154 -18t-143 -17.5t-116 -15t-74 -11.5q-23 -4 -49 -11.5t-52.5 -14.5t-50.5 -12t-43 -5h-2 q-36 0 -63 8.5t-45 30t-27.5 58t-9.5 91.5zM649 1758q0 30 4 56t15 45t30 29.5t50 10.5q75 0 120 -39t45 -110q0 -68 -127 -68q-19 0 -42.5 6t-44.5 16.5t-35.5 24.5t-14.5 29zM1048 1817q0 23 5 39.5t18.5 29.5t38 23t63.5 19q7 2 16.5 5t22.5 3q45 0 67.5 -28.5 t22.5 -70.5q0 -129 -136 -129q-24 0 -45.5 8.5t-37.5 23.5t-25.5 35t-9.5 42z" />
<glyph unicode="&#xcc;" horiz-adv-x="637" d="M126 199q0 48 2.5 91.5t7.5 85.5q8 68 23 159t32 193q3 16 9.5 51t15 80.5t18 96t18.5 96.5t16 82.5t10 54.5q6 33 9 51t6 33.5t7 34.5t11 53l-1 -2q2 16 12 35.5t24.5 37t33 29t36.5 11.5q42 0 71 -19.5t46.5 -47.5t25 -59.5t7.5 -55.5v-15q0 -14 -5.5 -49.5 t-27.5 -88.5q-17 -43 -27 -73t-12 -45q-18 -114 -34.5 -245t-36.5 -284q-5 -42 -10.5 -87.5t-9.5 -85.5t-6.5 -70.5t-2.5 -41.5q0 -8 4 -19.5t9 -23.5t9 -23t4 -19q0 -23 -14 -46t-46 -45q-26 -19 -52 -28.5t-52 -11.5q-48 0 -74.5 24t-39 57t-14.5 69t-2 60zM202 2012 q0 13 11 29t26.5 30t32.5 23.5t29 9.5q21 0 48 -10t56 -31q28 -20 49.5 -40t41.5 -37q22 -19 47 -40.5t59 -45.5q38 -26 60.5 -48t42.5 -36q65 -45 65 -93q0 -35 -23.5 -58.5t-69.5 -23.5q-7 0 -31 9t-45 26q-5 3 -11 8t-12 11q-16 13 -36.5 28t-40 29t-35.5 25t-24 17 q-6 5 -30 22t-58 39q-77 49 -114.5 87t-37.5 70z" />
<glyph unicode="&#xcd;" horiz-adv-x="637" d="M126 199q0 48 2.5 91.5t7.5 85.5q8 68 23 159t32 193q3 16 9.5 51t15 80.5t18 96t18.5 96.5t16 82.5t10 54.5q6 33 9 51t6 33.5t7 34.5t11 53l-1 -2q2 16 12 35.5t24.5 37t33 29t36.5 11.5q42 0 71 -19.5t46.5 -47.5t25 -59.5t7.5 -55.5v-15q0 -14 -5.5 -49.5 t-27.5 -88.5q-17 -43 -27 -73t-12 -45q-18 -114 -34.5 -245t-36.5 -284q-5 -42 -10.5 -87.5t-9.5 -85.5t-6.5 -70.5t-2.5 -41.5q0 -8 4 -19.5t9 -23.5t9 -23t4 -19q0 -23 -14 -46t-46 -45q-26 -19 -52 -28.5t-52 -11.5q-48 0 -74.5 24t-39 57t-14.5 69t-2 60zM316 1736 q0 54 138 151q40 28 80 55t77 52t69 47.5t55 40.5q16 13 36.5 20.5t42.5 7.5q8 0 23 -9t30.5 -24t27 -33.5t11.5 -38.5q0 -11 -4 -21t-19.5 -24.5t-46.5 -36t-86 -55.5q-10 -6 -32.5 -20t-51.5 -31.5t-61.5 -37.5t-60.5 -37.5t-49.5 -30.5t-29.5 -18q2 0 -8 -5t-22.5 -11 t-24 -11.5t-14.5 -5.5q-41 0 -60.5 22.5t-19.5 53.5z" />
<glyph unicode="&#xce;" horiz-adv-x="637" d="M110 1700q0 20 10 40.5t30 39.5q11 13 21.5 26.5t21.5 24.5q33 34 57.5 61t50.5 50q28 27 54.5 56.5t49.5 56.5q63 78 122 78q20 0 45 -15.5t43 -42.5q15 -23 32 -53t37 -66q19 -36 33 -54t18 -22q6 -6 14.5 -16t17 -22t17.5 -23.5t17 -20.5q29 -31 39 -49t13 -23 q11 -17 13.5 -33t2.5 -27q0 -15 -7.5 -31t-20 -28.5t-28.5 -20.5t-34 -8q-21 0 -41 12t-37.5 29.5t-31.5 37.5t-25 36q-8 14 -18.5 28t-28.5 40q-15 21 -31.5 41t-30.5 46q-2 4 -7.5 12t-12 15.5t-13 13.5t-10.5 6t-10 -5.5t-13 -13t-14.5 -16.5t-15.5 -16q-15 -14 -35 -34 t-33 -34q-14 -15 -36 -37t-65 -63l-20 -20t-22 -20.5t-22.5 -15.5t-22.5 -6q-39 0 -56 21.5t-17 64.5zM126 199q0 48 2.5 91.5t7.5 85.5q8 68 23 159t32 193q3 16 9.5 51t15 80.5t18 96t18.5 96.5t16 82.5t10 54.5q6 33 9 51t6 33.5t7 34.5t11 53l-1 -2q2 16 12 35.5 t24.5 37t33 29t36.5 11.5q42 0 71 -19.5t46.5 -47.5t25 -59.5t7.5 -55.5v-15q0 -14 -5.5 -49.5t-27.5 -88.5q-17 -43 -27 -73t-12 -45q-18 -114 -34.5 -245t-36.5 -284q-5 -42 -10.5 -87.5t-9.5 -85.5t-6.5 -70.5t-2.5 -41.5q0 -8 4 -19.5t9 -23.5t9 -23t4 -19 q0 -23 -14 -46t-46 -45q-26 -19 -52 -28.5t-52 -11.5q-48 0 -74.5 24t-39 57t-14.5 69t-2 60z" />
<glyph unicode="&#xcf;" horiz-adv-x="637" d="M126 199q0 48 2.5 91.5t7.5 85.5q8 68 23 159t32 193q3 16 9.5 51t15 80.5t18 96t18.5 96.5t16 82.5t10 54.5q6 33 9 51t6 33.5t7 34.5t11 53l-1 -2q2 16 12 35.5t24.5 37t33 29t36.5 11.5q42 0 71 -19.5t46.5 -47.5t25 -59.5t7.5 -55.5v-15q0 -14 -5.5 -49.5 t-27.5 -88.5q-17 -43 -27 -73t-12 -45q-18 -114 -34.5 -245t-36.5 -284q-5 -42 -10.5 -87.5t-9.5 -85.5t-6.5 -70.5t-2.5 -41.5q0 -8 4 -19.5t9 -23.5t9 -23t4 -19q0 -23 -14 -46t-46 -45q-26 -19 -52 -28.5t-52 -11.5q-48 0 -74.5 24t-39 57t-14.5 69t-2 60zM138 1778 q0 30 4 56t15 45t30 29.5t50 10.5q75 0 120 -39t45 -110q0 -68 -127 -68q-19 0 -42.5 6t-44.5 16.5t-35.5 24.5t-14.5 29zM537 1837q0 23 5 39.5t18.5 29.5t38 23t63.5 19q7 2 16.5 5t22.5 3q45 0 67.5 -28.5t22.5 -70.5q0 -129 -136 -129q-24 0 -45.5 8.5t-37.5 23.5 t-25.5 35t-9.5 42z" />
<glyph unicode="&#xd0;" horiz-adv-x="1845" d="M-47 717q0 17 8.5 32.5t22 27t31 18.5t35.5 7q31 0 46 -0.5t24.5 -1t19.5 -1t31 -0.5q24 0 49.5 0.5t47.5 3t37 7.5t17 14q13 55 21.5 95t10.5 64q5 56 9.5 93t4.5 54t-3 48.5t-3 54.5q0 27 7 62t22 66.5t38 53t54 21.5q19 0 33 -6t31 -9l359 -64q54 -6 118 -15.5 t128.5 -23t124.5 -30.5t106 -37h-2q75 -29 145 -78.5t124 -114t86.5 -140.5t32.5 -158q0 -12 -2.5 -32.5t-10.5 -52.5q-12 -46 -26.5 -86.5t-37.5 -77.5t-56.5 -71.5t-81.5 -69.5q-34 -24 -75 -48.5t-77 -43.5q-21 -11 -43 -23t-43 -23.5t-39.5 -21.5t-30.5 -16 q-19 -9 -50 -23t-65.5 -28.5t-69.5 -29.5t-64 -27.5t-48 -21.5t-22 -11q-24 -20 -44 -37.5t-39.5 -30t-39.5 -19.5t-45 -7q-18 0 -36 18.5t-31.5 43t-22 49t-8.5 36.5q0 36 47 72t142 69q10 4 24 11t30.5 15t33.5 15.5t33 12.5l64 32q52 26 95.5 47.5t84.5 42.5t82.5 44 t89.5 52q21 13 47 40t48.5 59.5t38 67.5t15.5 63q0 41 -11.5 77t-30.5 66t-43.5 53t-50.5 38q-35 21 -78 44.5t-85 43.5t-78.5 34t-58.5 16q-2 0 -14.5 3t-32 6.5t-43.5 7.5t-49 6q-59 6 -88 8t-30 2q-77 14 -137 24.5t-115 12.5q-7 -28 -8 -60t-2 -70t-4 -84t-14 -102 q-2 -23 -4 -41.5t-2 -31.5q65 0 132 3.5t115 8.5q15 2 29.5 3.5t32.5 1.5q23 0 45.5 -9.5t40 -24.5t28.5 -33t11 -35q0 -9 -2.5 -21t-7.5 -24t-12 -23t-16 -17q-8 -6 -33.5 -11t-56 -9t-60 -6t-45.5 -2h-101h-49.5t-29.5 -0.5t-17.5 -1.5t-13.5 -2q-3 -17 -5 -32.5t-3 -32.5 t-1.5 -38t-0.5 -49q0 -35 2 -76t8 -88q1 -6 3 -21.5t4 -33t3.5 -34.5t1.5 -27q0 -76 -34 -107t-111 -31q-53 0 -91 65q-8 15 -18 74t-10 155q0 55 1.5 93.5t4 65.5t4 46t1.5 34q0 14 -5 17.5t-17 3.5q-6 0 -18 -0.5t-25.5 -1t-26 -1t-20.5 -0.5q-29 0 -64.5 5t-68 15 t-57.5 23.5t-34 29.5q-8 14 -12.5 29.5t-4.5 33.5z" />
<glyph unicode="&#xd1;" horiz-adv-x="1715" d="M165 84q0 17 3.5 44.5t9.5 60.5t14 67.5t16 64.5q12 44 27.5 112.5t32.5 148.5t34 167t31 169.5t24.5 154t14.5 121.5v55q0 18 5.5 43.5t21 49t43.5 39.5t74 16q37 0 60.5 -14t39.5 -39.5t27 -61t23 -79.5q11 -41 38 -101.5t65.5 -133.5t87 -155t102.5 -165t111.5 -164 t114.5 -152q13 53 25.5 113t24 121t22 119.5t19 108.5t15 89t10.5 60q14 82 25.5 144t19 116t11.5 106t4 114q0 16 3 35t8.5 37t14 34t18.5 25q18 17 33 26t28.5 13t27.5 5t31 1q36 0 56.5 -16.5t31 -42.5t13 -56.5t2.5 -59.5q0 -9 -4 -33t-9.5 -54t-12.5 -61t-13 -54 q-42 -159 -72.5 -301t-53 -266.5t-38 -231t-26.5 -193.5q-1 -13 -2.5 -24t-2 -24.5t-1 -31.5t-0.5 -45q0 -52 -16.5 -80.5t-41 -42t-52 -16t-48.5 -2.5q-43 0 -69 18.5t-48.5 52t-47 79.5t-65.5 100q-112 152 -227 324.5t-234 386.5q-19 -89 -35 -186.5t-29.5 -192.5 t-24 -182t-19.5 -156q0 -26 -3.5 -57t-8 -58.5t-9 -47.5t-6.5 -25q-5 -12 -16.5 -30t-27 -34.5t-35 -28t-40.5 -11.5q-39 0 -63 11t-38 32t-19 52.5t-5 72.5zM570 1744q0 48 54 120q24 31 51 60t61 55q68 53 126 53q36 0 62.5 -4t44.5 -12q20 -8 38.5 -22t38.5 -34 q17 -17 31.5 -34t27.5 -25q9 -5 20 -14.5t22 -18.5t21.5 -16t17.5 -7q19 0 34.5 16t32.5 40q12 17 20.5 33.5t22.5 33.5q32 38 65 38q42 0 56.5 -22t14.5 -58q0 -15 -8.5 -36.5t-21.5 -44.5q-11 -19 -26.5 -41.5t-35.5 -46.5q-16 -19 -33 -33.5t-34 -25.5q-31 -18 -73 -18 t-74.5 6.5t-58.5 22.5q-11 8 -24.5 20.5t-33.5 29.5q-9 8 -21.5 21t-17.5 18q-7 8 -18 18.5t-22.5 19.5t-23 15t-19.5 6q-20 0 -46.5 -19t-58.5 -61q-18 -24 -34 -44t-32 -34.5t-34 -22.5t-39 -8q-38 0 -55.5 22t-17.5 54z" />
<glyph unicode="&#xd2;" horiz-adv-x="1646" d="M101 429q0 95 29.5 208.5t84.5 228.5t132.5 222.5t173 191t207 133.5t233.5 50q63 0 123.5 -7.5t114.5 -22t100.5 -35.5t81.5 -48q72 -54 113.5 -102.5t62.5 -99t26.5 -106t5.5 -123.5q0 -63 -20.5 -141t-58 -161t-90.5 -164.5t-119 -151.5q-103 -109 -194 -180.5 t-181 -114t-185.5 -59t-208.5 -16.5q-60 0 -115.5 22t-103 59t-87 87t-67 105t-43 113t-15.5 112zM354 438q0 -64 20.5 -117t54.5 -90.5t77 -58.5t89 -21q75 0 146 21t136.5 57.5t124.5 85.5t108.5 105.5t89 118t67.5 121.5q27 59 46.5 137t19.5 158q0 33 -3.5 64t-14.5 60 q-9 27 -36 59.5t-71.5 60.5t-106 47t-140.5 19q-63 0 -120 -26t-108.5 -68.5t-98 -96t-88.5 -108.5q-37 -49 -72 -110.5t-61.5 -130.5t-42.5 -142t-16 -145zM677 2025q0 13 11 29t26.5 30t32.5 23.5t29 9.5q21 0 48 -10t56 -31q28 -20 49.5 -40t41.5 -37q22 -19 47 -40.5 t59 -45.5q38 -26 60.5 -48t42.5 -36q65 -45 65 -93q0 -35 -23.5 -58.5t-69.5 -23.5q-7 0 -31 9t-45 26q-5 3 -11 8t-12 11q-16 13 -36.5 28t-40 29t-35.5 25t-24 17q-6 5 -30 22t-58 39q-77 49 -114.5 87t-37.5 70z" />
<glyph unicode="&#xd3;" horiz-adv-x="1646" d="M101 429q0 95 29.5 208.5t84.5 228.5t132.5 222.5t173 191t207 133.5t233.5 50q63 0 123.5 -7.5t114.5 -22t100.5 -35.5t81.5 -48q72 -54 113.5 -102.5t62.5 -99t26.5 -106t5.5 -123.5q0 -63 -20.5 -141t-58 -161t-90.5 -164.5t-119 -151.5q-103 -109 -194 -180.5 t-181 -114t-185.5 -59t-208.5 -16.5q-60 0 -115.5 22t-103 59t-87 87t-67 105t-43 113t-15.5 112zM354 438q0 -64 20.5 -117t54.5 -90.5t77 -58.5t89 -21q75 0 146 21t136.5 57.5t124.5 85.5t108.5 105.5t89 118t67.5 121.5q27 59 46.5 137t19.5 158q0 33 -3.5 64t-14.5 60 q-9 27 -36 59.5t-71.5 60.5t-106 47t-140.5 19q-63 0 -120 -26t-108.5 -68.5t-98 -96t-88.5 -108.5q-37 -49 -72 -110.5t-61.5 -130.5t-42.5 -142t-16 -145zM843 1686q0 54 138 151q40 28 80 55t77 52t69 47.5t55 40.5q16 13 36.5 20.5t42.5 7.5q8 0 23 -9t30.5 -24 t27 -33.5t11.5 -38.5q0 -11 -4 -21t-19.5 -24.5t-46.5 -36t-86 -55.5q-10 -6 -32.5 -20t-51.5 -31.5t-61.5 -37.5t-60.5 -37.5t-49.5 -30.5t-29.5 -18q2 0 -8 -5t-22.5 -11t-24 -11.5t-14.5 -5.5q-41 0 -60.5 22.5t-19.5 53.5z" />
<glyph unicode="&#xd4;" horiz-adv-x="1646" d="M101 429q0 95 29.5 208.5t84.5 228.5t132.5 222.5t173 191t207 133.5t233.5 50q63 0 123.5 -7.5t114.5 -22t100.5 -35.5t81.5 -48q72 -54 113.5 -102.5t62.5 -99t26.5 -106t5.5 -123.5q0 -63 -20.5 -141t-58 -161t-90.5 -164.5t-119 -151.5q-103 -109 -194 -180.5 t-181 -114t-185.5 -59t-208.5 -16.5q-60 0 -115.5 22t-103 59t-87 87t-67 105t-43 113t-15.5 112zM354 438q0 -64 20.5 -117t54.5 -90.5t77 -58.5t89 -21q75 0 146 21t136.5 57.5t124.5 85.5t108.5 105.5t89 118t67.5 121.5q27 59 46.5 137t19.5 158q0 33 -3.5 64t-14.5 60 q-9 27 -36 59.5t-71.5 60.5t-106 47t-140.5 19q-63 0 -120 -26t-108.5 -68.5t-98 -96t-88.5 -108.5q-37 -49 -72 -110.5t-61.5 -130.5t-42.5 -142t-16 -145zM642 1734q0 20 10 40.5t30 39.5q11 13 21.5 26.5t21.5 24.5q33 34 57.5 61t50.5 50q28 27 54.5 56.5t49.5 56.5 q63 78 122 78q20 0 45 -15.5t43 -42.5q15 -23 32 -53t37 -66q19 -36 33 -54t18 -22q6 -6 14.5 -16t17 -22t17.5 -23.5t17 -20.5q29 -31 39 -49t13 -23q11 -17 13.5 -33t2.5 -27q0 -15 -7.5 -31t-20 -28.5t-28.5 -20.5t-34 -8q-21 0 -41 12t-37.5 29.5t-31.5 37.5t-25 36 q-8 14 -18.5 28t-28.5 40q-15 21 -31.5 41t-30.5 46q-2 4 -7.5 12t-12 15.5t-13 13.5t-10.5 6t-10 -5.5t-13 -13t-14.5 -16.5t-15.5 -16q-15 -14 -35 -34t-33 -34q-14 -15 -36 -37t-65 -63l-20 -20t-22 -20.5t-22.5 -15.5t-22.5 -6q-39 0 -56 21.5t-17 64.5z" />
<glyph unicode="&#xd5;" horiz-adv-x="1646" d="M101 429q0 95 29.5 208.5t84.5 228.5t132.5 222.5t173 191t207 133.5t233.5 50q63 0 123.5 -7.5t114.5 -22t100.5 -35.5t81.5 -48q72 -54 113.5 -102.5t62.5 -99t26.5 -106t5.5 -123.5q0 -63 -20.5 -141t-58 -161t-90.5 -164.5t-119 -151.5q-103 -109 -194 -180.5 t-181 -114t-185.5 -59t-208.5 -16.5q-60 0 -115.5 22t-103 59t-87 87t-67 105t-43 113t-15.5 112zM354 438q0 -64 20.5 -117t54.5 -90.5t77 -58.5t89 -21q75 0 146 21t136.5 57.5t124.5 85.5t108.5 105.5t89 118t67.5 121.5q27 59 46.5 137t19.5 158q0 33 -3.5 64t-14.5 60 q-9 27 -36 59.5t-71.5 60.5t-106 47t-140.5 19q-63 0 -120 -26t-108.5 -68.5t-98 -96t-88.5 -108.5q-37 -49 -72 -110.5t-61.5 -130.5t-42.5 -142t-16 -145zM646 1694q0 48 54 120q24 31 51 60t61 55q68 53 126 53q36 0 62.5 -4t44.5 -12q20 -8 38.5 -22t38.5 -34 q17 -17 31.5 -34t27.5 -25q9 -5 20 -14.5t22 -18.5t21.5 -16t17.5 -7q19 0 34.5 16t32.5 40q12 17 20.5 33.5t22.5 33.5q32 38 65 38q42 0 56.5 -22t14.5 -58q0 -15 -8.5 -36.5t-21.5 -44.5q-11 -19 -26.5 -41.5t-35.5 -46.5q-16 -19 -33 -33.5t-34 -25.5q-31 -18 -73 -18 t-74.5 6.5t-58.5 22.5q-11 8 -24.5 20.5t-33.5 29.5q-9 8 -21.5 21t-17.5 18q-7 8 -18 18.5t-22.5 19.5t-23 15t-19.5 6q-20 0 -46.5 -19t-58.5 -61q-18 -24 -34 -44t-32 -34.5t-34 -22.5t-39 -8q-38 0 -55.5 22t-17.5 54z" />
<glyph unicode="&#xd6;" horiz-adv-x="1646" d="M101 429q0 95 29.5 208.5t84.5 228.5t132.5 222.5t173 191t207 133.5t233.5 50q63 0 123.5 -7.5t114.5 -22t100.5 -35.5t81.5 -48q72 -54 113.5 -102.5t62.5 -99t26.5 -106t5.5 -123.5q0 -63 -20.5 -141t-58 -161t-90.5 -164.5t-119 -151.5q-103 -109 -194 -180.5 t-181 -114t-185.5 -59t-208.5 -16.5q-60 0 -115.5 22t-103 59t-87 87t-67 105t-43 113t-15.5 112zM354 438q0 -64 20.5 -117t54.5 -90.5t77 -58.5t89 -21q75 0 146 21t136.5 57.5t124.5 85.5t108.5 105.5t89 118t67.5 121.5q27 59 46.5 137t19.5 158q0 33 -3.5 64t-14.5 60 q-9 27 -36 59.5t-71.5 60.5t-106 47t-140.5 19q-63 0 -120 -26t-108.5 -68.5t-98 -96t-88.5 -108.5q-37 -49 -72 -110.5t-61.5 -130.5t-42.5 -142t-16 -145zM688 1700q0 30 4 56t15 45t30 29.5t50 10.5q75 0 120 -39t45 -110q0 -68 -127 -68q-19 0 -42.5 6t-44.5 16.5 t-35.5 24.5t-14.5 29zM1087 1759q0 23 5 39.5t18.5 29.5t38 23t63.5 19q7 2 16.5 5t22.5 3q45 0 67.5 -28.5t22.5 -70.5q0 -129 -136 -129q-24 0 -45.5 8.5t-37.5 23.5t-25.5 35t-9.5 42z" />
<glyph unicode="&#xd7;" horiz-adv-x="1169" d="M154 182q0 15 5.5 27.5t20 28t38 36.5t59.5 51q9 7 30.5 29t46 46.5t46 46.5t29.5 30l51 50q-1 0 -13 11.5t-29.5 28.5t-37 37t-36.5 36q-66 66 -104.5 102.5t-57.5 56.5t-24 32.5t-5 30.5q0 21 8.5 38.5t23 30t34.5 20t42 7.5q11 0 24.5 -4t21.5 -10q40 -26 64 -45.5 t37 -36.5q41 -56 80 -111t90 -109q15 14 29 28t31 33.5t40 47.5t54 69q44 58 86 93t88 35q18 0 36 -5.5t32 -15.5t23 -23.5t9 -29.5q0 -23 -9 -47t-26 -44q-2 -3 -31 -30t-77 -66q-32 -26 -61.5 -52t-53 -47.5t-38 -36t-15.5 -17.5q1 0 9.5 -9t20 -20.5t22.5 -23t16 -17.5 q6 -6 27.5 -30t48 -53.5t51.5 -57.5t38 -43q22 -17 37.5 -31t26 -27.5t15.5 -26.5t5 -29q0 -10 -5.5 -25.5t-16 -30.5t-26.5 -26t-36 -11q-71 0 -110 40h1q-13 14 -31 34.5t-35 41t-30.5 37t-18.5 21.5q-19 19 -39.5 43.5t-38.5 48t-32.5 43t-22.5 27.5q-12 -13 -32 -35.5 t-39 -44.5t-33 -38t-13 -16q-8 -8 -16 -17.5t-19 -20.5q-15 -16 -31 -33t-31 -33t-28 -29l-21 -21h1q-33 -35 -71 -35q-19 0 -37.5 10.5t-33.5 25.5t-24 31.5t-9 28.5z" />
<glyph unicode="&#xd8;" horiz-adv-x="1745" d="M92 520q0 34 6 77.5t16.5 89t25.5 88.5t33 75q44 75 98 149.5t114 141.5t123.5 123t126.5 95q85 52 176.5 84t199.5 32q27 0 53.5 -9.5t48.5 -25.5q28 46 58 102q15 35 30 73.5t36.5 71t52.5 54t78 21.5q18 0 37 -5t34.5 -14t25.5 -21.5t10 -27.5q0 -13 -7 -35.5t-19 -50 t-29 -58.5t-37 -61q-31 -47 -63 -99t-58 -103q5 1 11 1h11q39 0 83 -14.5t87.5 -39.5t84 -59.5t71.5 -73.5q15 -19 33 -52t33.5 -69.5t25.5 -72.5t10 -60q0 -72 -26.5 -146.5t-70.5 -144.5t-100.5 -132t-116.5 -108q-44 -34 -93.5 -67.5t-101 -65t-104 -58.5t-101.5 -48 q-33 -14 -82 -26t-101 -21.5t-101 -16.5t-82 -12q-17 -11 -35 -37.5t-35 -59.5t-31.5 -68.5t-24.5 -63.5q-13 -36 -30 -67t-40 -53.5t-54.5 -35t-74.5 -12.5q-56 0 -81.5 38t-25.5 97q29 41 58 85t53 84t42.5 74t26.5 55q-6 13 -12.5 21.5t-17.5 16.5q-60 44 -107.5 98 t-81 113t-51.5 119t-18 115zM341 534q0 -39 11.5 -81t31.5 -79t47.5 -65t59.5 -37q7 13 21 39.5t31 60t36 70.5t36.5 71t31 60.5t20.5 39.5q8 15 26 51.5t42 84t50 101t50 101.5t42.5 85.5t27.5 52.5l84 155q4 5 7.5 10t3.5 12q-45 0 -100.5 -18.5t-112.5 -49.5t-110 -72.5 t-94 -86.5q-45 -49 -88 -109t-77.5 -125.5t-55.5 -134t-21 -136.5zM709 207q22 1 54.5 7.5t67 16t65.5 20.5t50 20q23 11 53.5 27.5t64.5 36.5t67.5 41.5t60.5 41.5q46 34 97 81.5t93.5 99.5t70.5 102.5t28 90.5q0 75 -30.5 136t-76.5 103.5t-99 66t-97 24.5q0 -4 -18.5 -38 t-44.5 -82t-54.5 -101.5t-49.5 -97.5q-35 -74 -74.5 -156t-95.5 -182q-16 -30 -36.5 -67t-39 -73.5t-34 -68t-22.5 -49.5z" />
<glyph unicode="&#xd9;" horiz-adv-x="1582" d="M165 622q0 34 4 75.5t10 86t14 89t15 84.5q10 53 17 100.5t15 92.5q12 69 22.5 137t29.5 122t52 87.5t88 33.5q20 0 40 -17.5t35.5 -41t25.5 -47.5t10 -37q0 -6 -4.5 -27t-12 -49t-16 -60t-16 -60t-13 -49t-6.5 -27q-4 -21 -10 -58t-13.5 -82t-15 -95t-13 -96.5t-9.5 -86 t-4 -64.5q0 -148 50 -267q12 -30 42.5 -59.5t67.5 -53.5t75 -38.5t65 -14.5q150 0 251 42.5t152 138.5q24 45 37.5 93t21.5 95.5t13 93t12 85.5q10 102 16.5 195t14.5 174t20 146.5t32.5 112.5t52.5 72.5t80 25.5q30 0 50 -11t32 -29.5t17 -43t5 -51.5q0 -37 -6.5 -88.5 t-15 -105.5t-17.5 -104.5t-15 -84.5q-5 -32 -9 -77.5t-7 -94.5q-4 -66 -12.5 -143t-24.5 -162q-21 -109 -82 -200.5t-153 -157.5t-209.5 -103t-250.5 -37q-44 0 -96 12.5t-101.5 32t-91.5 43.5t-68 48q-51 48 -88 108t-60 126.5t-34 135.5t-11 135zM572 1998q0 13 11 29 t26.5 30t32.5 23.5t29 9.5q21 0 48 -10t56 -31q28 -20 49.5 -40t41.5 -37q22 -19 47 -40.5t59 -45.5q38 -26 60.5 -48t42.5 -36q65 -45 65 -93q0 -35 -23.5 -58.5t-69.5 -23.5q-7 0 -31 9t-45 26q-5 3 -11 8t-12 11q-16 13 -36.5 28t-40 29t-35.5 25t-24 17q-6 5 -30 22 t-58 39q-77 49 -114.5 87t-37.5 70z" />
<glyph unicode="&#xda;" horiz-adv-x="1582" d="M165 622q0 34 4 75.5t10 86t14 89t15 84.5q10 53 17 100.5t15 92.5q12 69 22.5 137t29.5 122t52 87.5t88 33.5q20 0 40 -17.5t35.5 -41t25.5 -47.5t10 -37q0 -6 -4.5 -27t-12 -49t-16 -60t-16 -60t-13 -49t-6.5 -27q-4 -21 -10 -58t-13.5 -82t-15 -95t-13 -96.5t-9.5 -86 t-4 -64.5q0 -148 50 -267q12 -30 42.5 -59.5t67.5 -53.5t75 -38.5t65 -14.5q150 0 251 42.5t152 138.5q24 45 37.5 93t21.5 95.5t13 93t12 85.5q10 102 16.5 195t14.5 174t20 146.5t32.5 112.5t52.5 72.5t80 25.5q30 0 50 -11t32 -29.5t17 -43t5 -51.5q0 -37 -6.5 -88.5 t-15 -105.5t-17.5 -104.5t-15 -84.5q-5 -32 -9 -77.5t-7 -94.5q-4 -66 -12.5 -143t-24.5 -162q-21 -109 -82 -200.5t-153 -157.5t-209.5 -103t-250.5 -37q-44 0 -96 12.5t-101.5 32t-91.5 43.5t-68 48q-51 48 -88 108t-60 126.5t-34 135.5t-11 135zM769 1638q0 54 138 151 q40 28 80 55t77 52t69 47.5t55 40.5q16 13 36.5 20.5t42.5 7.5q8 0 23 -9t30.5 -24t27 -33.5t11.5 -38.5q0 -11 -4 -21t-19.5 -24.5t-46.5 -36t-86 -55.5q-10 -6 -32.5 -20t-51.5 -31.5t-61.5 -37.5t-60.5 -37.5t-49.5 -30.5t-29.5 -18q2 0 -8 -5t-22.5 -11t-24 -11.5 t-14.5 -5.5q-41 0 -60.5 22.5t-19.5 53.5z" />
<glyph unicode="&#xdb;" horiz-adv-x="1582" d="M165 622q0 34 4 75.5t10 86t14 89t15 84.5q10 53 17 100.5t15 92.5q12 69 22.5 137t29.5 122t52 87.5t88 33.5q20 0 40 -17.5t35.5 -41t25.5 -47.5t10 -37q0 -6 -4.5 -27t-12 -49t-16 -60t-16 -60t-13 -49t-6.5 -27q-4 -21 -10 -58t-13.5 -82t-15 -95t-13 -96.5t-9.5 -86 t-4 -64.5q0 -148 50 -267q12 -30 42.5 -59.5t67.5 -53.5t75 -38.5t65 -14.5q150 0 251 42.5t152 138.5q24 45 37.5 93t21.5 95.5t13 93t12 85.5q10 102 16.5 195t14.5 174t20 146.5t32.5 112.5t52.5 72.5t80 25.5q30 0 50 -11t32 -29.5t17 -43t5 -51.5q0 -37 -6.5 -88.5 t-15 -105.5t-17.5 -104.5t-15 -84.5q-5 -32 -9 -77.5t-7 -94.5q-4 -66 -12.5 -143t-24.5 -162q-21 -109 -82 -200.5t-153 -157.5t-209.5 -103t-250.5 -37q-44 0 -96 12.5t-101.5 32t-91.5 43.5t-68 48q-51 48 -88 108t-60 126.5t-34 135.5t-11 135zM610 1759q0 20 10 40.5 t30 39.5q11 13 21.5 26.5t21.5 24.5q33 34 57.5 61t50.5 50q28 27 54.5 56.5t49.5 56.5q63 78 122 78q20 0 45 -15.5t43 -42.5q15 -23 32 -53t37 -66q19 -36 33 -54t18 -22q6 -6 14.5 -16t17 -22t17.5 -23.5t17 -20.5q29 -31 39 -49t13 -23q11 -17 13.5 -33t2.5 -27 q0 -15 -7.5 -31t-20 -28.5t-28.5 -20.5t-34 -8q-21 0 -41 12t-37.5 29.5t-31.5 37.5t-25 36q-8 14 -18.5 28t-28.5 40q-15 21 -31.5 41t-30.5 46q-2 4 -7.5 12t-12 15.5t-13 13.5t-10.5 6t-10 -5.5t-13 -13t-14.5 -16.5t-15.5 -16q-15 -14 -35 -34t-33 -34q-14 -15 -36 -37 t-65 -63l-20 -20t-22 -20.5t-22.5 -15.5t-22.5 -6q-39 0 -56 21.5t-17 64.5z" />
<glyph unicode="&#xdc;" horiz-adv-x="1582" d="M165 622q0 34 4 75.5t10 86t14 89t15 84.5q10 53 17 100.5t15 92.5q12 69 22.5 137t29.5 122t52 87.5t88 33.5q20 0 40 -17.5t35.5 -41t25.5 -47.5t10 -37q0 -6 -4.5 -27t-12 -49t-16 -60t-16 -60t-13 -49t-6.5 -27q-4 -21 -10 -58t-13.5 -82t-15 -95t-13 -96.5t-9.5 -86 t-4 -64.5q0 -148 50 -267q12 -30 42.5 -59.5t67.5 -53.5t75 -38.5t65 -14.5q150 0 251 42.5t152 138.5q24 45 37.5 93t21.5 95.5t13 93t12 85.5q10 102 16.5 195t14.5 174t20 146.5t32.5 112.5t52.5 72.5t80 25.5q30 0 50 -11t32 -29.5t17 -43t5 -51.5q0 -37 -6.5 -88.5 t-15 -105.5t-17.5 -104.5t-15 -84.5q-5 -32 -9 -77.5t-7 -94.5q-4 -66 -12.5 -143t-24.5 -162q-21 -109 -82 -200.5t-153 -157.5t-209.5 -103t-250.5 -37q-44 0 -96 12.5t-101.5 32t-91.5 43.5t-68 48q-51 48 -88 108t-60 126.5t-34 135.5t-11 135zM634 1741q0 30 4 56 t15 45t30 29.5t50 10.5q75 0 120 -39t45 -110q0 -68 -127 -68q-19 0 -42.5 6t-44.5 16.5t-35.5 24.5t-14.5 29zM1033 1800q0 23 5 39.5t18.5 29.5t38 23t63.5 19q7 2 16.5 5t22.5 3q45 0 67.5 -28.5t22.5 -70.5q0 -129 -136 -129q-24 0 -45.5 8.5t-37.5 23.5t-25.5 35 t-9.5 42z" />
<glyph unicode="&#xdd;" horiz-adv-x="1395" d="M52 1375q0 17 16 38.5t52 41.5q31 17 53 20.5t38 3.5q29 0 57 -15.5t61 -47t72 -79t89 -110.5q88 -111 151.5 -176t96.5 -76q-2 1 13 24t41 60t59.5 84t69 96.5t69.5 96.5t60.5 84.5t43 60.5t16.5 24q24 32 49 66t51 71l25 37.5t24 27.5t29 16.5t38 5.5q44 0 75 -17 q24 -12 37 -31.5t13 -40.5q0 -6 -2 -19.5t-5 -24.5q-25 -57 -72.5 -124t-105 -139t-119 -146.5t-113.5 -146.5q-21 -29 -38.5 -57.5t-45.5 -72.5q-8 -13 -21 -34t-27.5 -44.5t-29.5 -46t-27 -38.5q-8 -130 -14 -265.5t-14 -278.5q-5 -73 -7 -116.5t-5 -54.5 q-10 -45 -49.5 -67t-92.5 -22q-24 0 -45 13t-36.5 32t-24.5 40.5t-9 39.5q0 17 2 47t5.5 66.5t7 77t7.5 78.5t7.5 70.5t5.5 52.5q10 98 15 162.5t5 96.5q0 17 -3 33t-8 28q-49 29 -95 71.5t-87 87.5q-11 13 -29 33.5t-38 43.5t-40 47t-36 44l-26 32.5t-10 14.5 q-35 41 -67.5 75.5t-57 62.5t-39.5 49t-15 34zM543 1679q0 54 138 151q40 28 80 55t77 52t69 47.5t55 40.5q16 13 36.5 20.5t42.5 7.5q8 0 23 -9t30.5 -24t27 -33.5t11.5 -38.5q0 -11 -4 -21t-19.5 -24.5t-46.5 -36t-86 -55.5q-10 -6 -32.5 -20t-51.5 -31.5t-61.5 -37.5 t-60.5 -37.5t-49.5 -30.5t-29.5 -18q2 0 -8 -5t-22.5 -11t-24 -11.5t-14.5 -5.5q-41 0 -60.5 22.5t-19.5 53.5z" />
<glyph unicode="&#xde;" horiz-adv-x="1620" d="M163 102q0 12 1.5 29t4.5 38t6.5 43.5t7.5 44.5q9 52 20 110q6 56 12.5 103.5t13.5 87.5q6 33 15 67t18 69t17.5 70.5t12.5 72.5q3 26 7 62.5t7 68.5q7 72 21.5 152t32.5 162q12 52 21 94t14 90v-1q3 55 13.5 86t28 46t41.5 18t53 3q25 0 49 -5t42.5 -15.5t30 -26 t11.5 -37.5q-1 -12 -6.5 -36t-12 -50.5t-11.5 -50.5t-5 -35q0 -9 8 -9q13 0 35.5 0.5t51 1.5t61.5 1.5t67 0.5q52 0 111 -12.5t123 -29.5q43 -11 83 -19.5t79 -17.5t77.5 -20t79.5 -27q115 -46 180 -120.5t65 -174.5q-2 -48 -23 -96t-69 -99q-42 -44 -98 -85t-125 -78h1 q-63 -35 -126.5 -64t-132.5 -52q-67 -23 -123 -36t-103 -17q-8 -1 -30 -6t-50 -12t-59.5 -16t-60 -17t-50.5 -14t-31 -9q-11 -3 -28 -7t-35.5 -9.5t-36.5 -12t-30 -15.5q-8 -30 -13.5 -54t-5.5 -46q0 -4 0.5 -13t2 -26.5t4 -46t5.5 -70.5q-1 -32 -6.5 -55t-18 -37t-35 -20.5 t-58.5 -6.5q-38 0 -66.5 18t-47.5 45.5t-28.5 60.5t-9.5 62zM457 543q0 -11 3 -13.5t11 -2.5q44 0 101 10.5t111 24t99 26.5t65 18q9 2 32.5 6.5t48.5 9.5t45.5 9.5t24.5 5.5q47 17 92.5 34.5t87.5 37t79 42.5t66 50q6 6 21.5 26t45.5 51l-4 -2q13 11 20.5 19.5t7.5 17.5 q0 36 -30 65t-78.5 52t-110.5 41t-126 31.5t-124.5 22.5t-107.5 14q-69 8 -120 11.5t-86 3.5q-19 0 -34.5 -7.5t-18.5 -21.5v1q-11 -42 -15 -59.5t-4 -27.5q0 -54 -15.5 -124.5t-39.5 -158.5q-17 -47 -26.5 -78t-14 -53.5t-5.5 -41t-1 -40.5z" />
<glyph unicode="&#xdf;" horiz-adv-x="1185" d="M-149 -403q0 29 25.5 55.5t58.5 50.5q19 14 34 27t27 32.5t22.5 49t22.5 76.5q8 32 15 65.5t12 65t9 59.5t5 49q1 18 5 51t9.5 72t12 81.5t12 80t10 66.5t6.5 41q8 45 11 76.5l5 52.5q7 111 27.5 219t49.5 216q23 84 54.5 148t78.5 118q19 22 49.5 50t72.5 63 q21 18 50 32.5t61.5 24t67 14.5t68.5 5q93 0 172.5 -36.5t127.5 -116.5q32 -53 48 -103t16 -105q0 -109 -66 -187t-203 -137q-13 -6 -31.5 -12t-36 -12t-31.5 -10t-18 -5q6 0 16.5 -1.5t23 -3.5t26 -4t24.5 -5q29 -7 46.5 -10.5t29 -7t19 -8t16.5 -12.5q24 -13 56 -40 t60.5 -71t48.5 -106t20 -145q0 -79 -44.5 -152t-116 -129t-160 -89.5t-176.5 -33.5q-43 0 -81.5 14t-68 39t-47 60.5t-17.5 78.5q0 42 8.5 69.5t24.5 45.5t39 29t51 19q9 -27 22 -56.5t28 -54t32 -41t33 -16.5q22 0 48.5 6.5t52 17t47.5 24t34 28.5t26 36.5t25.5 45t19 45 t7.5 36.5q0 29 -13.5 63.5t-41 68.5t-70 65t-100.5 52q-23 8 -46 8q-18 0 -33.5 -3.5t-29.5 -3.5q-27 0 -43 14.5t-23.5 35t-9.5 42t-2 36.5q0 31 15.5 51t36.5 32.5t42.5 20t34.5 13.5q32 15 60.5 29.5t55.5 31.5t54.5 39.5t57.5 53.5q24 24 29 54.5t5 68.5q0 45 -15.5 77 t-41.5 53t-59.5 31t-68.5 10q-9 0 -22.5 -7t-28 -17t-27 -21t-19.5 -20q-28 -35 -54 -89t-49 -129q-22 -71 -40.5 -149t-34.5 -157.5t-28.5 -158.5t-22.5 -153q-15 -117 -31.5 -226t-31 -197t-26 -148t-16.5 -77q-8 -29 -22 -63t-32.5 -68.5t-41.5 -67t-49.5 -57.5 t-56.5 -40t-62 -15q-42 0 -67.5 6t-40 18t-19 29t-4.5 39z" />
<glyph unicode="&#xe0;" horiz-adv-x="1343" d="M61 261q0 66 19.5 134.5t50 133.5t68 124t73.5 105q38 48 91 95.5t111 85t114.5 60.5t100.5 23q24 0 49.5 -1.5t50.5 -4.5t48 -9t41 -15q12 -8 26.5 -28.5t27 -44t21.5 -46.5t9 -36q0 -28 -8.5 -66.5t-19 -80.5t-19.5 -86t-9 -84q0 -28 8 -57t23 -52.5t36 -38.5t47 -15 q59 0 117 22t116 60.5t116 91t117 113.5q2 0 16 15t33.5 33t41 33t37.5 15q29 0 38 -17t9 -52q0 -12 -4.5 -28.5t-11.5 -33t-15.5 -32t-16.5 -26.5q-5 -7 -16 -19.5t-25 -28t-31.5 -33.5t-35.5 -36q-58 -54 -117.5 -106.5t-124.5 -93t-136 -65.5t-151 -25q-34 0 -69 15 t-65 41t-52.5 62.5t-31.5 78.5q-18 -30 -47 -64.5t-63.5 -68.5t-71.5 -64.5t-69 -52.5q-22 -15 -53.5 -31t-66.5 -29.5t-70.5 -22t-65.5 -8.5q-48 0 -84 27.5t-59.5 67.5t-35 85t-11.5 81zM266 266q0 -12 1.5 -23.5t6 -20.5t12.5 -15t21 -6q38 0 86 24.5t96.5 64t94 91 t76.5 105.5q38 66 65 138t27 150q0 9 -3.5 21t-9 22.5t-12.5 18t-13 7.5q-66 0 -120.5 -35.5t-113.5 -96.5q-33 -33 -70.5 -89t-69.5 -119t-53 -126t-21 -111zM338 1529q0 13 11 29t26.5 30t32.5 23.5t29 9.5q21 0 48 -10t56 -31q28 -20 49.5 -40t41.5 -37q22 -19 47 -40.5 t59 -45.5q38 -26 60.5 -48t42.5 -36q65 -45 65 -93q0 -35 -23.5 -58.5t-69.5 -23.5q-7 0 -31 9t-45 26q-5 3 -11 8t-12 11q-16 13 -36.5 28t-40 29t-35.5 25t-24 17q-6 5 -30 22t-58 39q-77 49 -114.5 87t-37.5 70z" />
<glyph unicode="&#xe1;" horiz-adv-x="1343" d="M61 261q0 66 19.5 134.5t50 133.5t68 124t73.5 105q38 48 91 95.5t111 85t114.5 60.5t100.5 23q24 0 49.5 -1.5t50.5 -4.5t48 -9t41 -15q12 -8 26.5 -28.5t27 -44t21.5 -46.5t9 -36q0 -28 -8.5 -66.5t-19 -80.5t-19.5 -86t-9 -84q0 -28 8 -57t23 -52.5t36 -38.5t47 -15 q59 0 117 22t116 60.5t116 91t117 113.5q2 0 16 15t33.5 33t41 33t37.5 15q29 0 38 -17t9 -52q0 -12 -4.5 -28.5t-11.5 -33t-15.5 -32t-16.5 -26.5q-5 -7 -16 -19.5t-25 -28t-31.5 -33.5t-35.5 -36q-58 -54 -117.5 -106.5t-124.5 -93t-136 -65.5t-151 -25q-34 0 -69 15 t-65 41t-52.5 62.5t-31.5 78.5q-18 -30 -47 -64.5t-63.5 -68.5t-71.5 -64.5t-69 -52.5q-22 -15 -53.5 -31t-66.5 -29.5t-70.5 -22t-65.5 -8.5q-48 0 -84 27.5t-59.5 67.5t-35 85t-11.5 81zM266 266q0 -12 1.5 -23.5t6 -20.5t12.5 -15t21 -6q38 0 86 24.5t96.5 64t94 91 t76.5 105.5q38 66 65 138t27 150q0 9 -3.5 21t-9 22.5t-12.5 18t-13 7.5q-66 0 -120.5 -35.5t-113.5 -96.5q-33 -33 -70.5 -89t-69.5 -119t-53 -126t-21 -111zM543 1250q0 54 138 151q40 28 80 55t77 52t69 47.5t55 40.5q16 13 36.5 20.5t42.5 7.5q8 0 23 -9t30.5 -24 t27 -33.5t11.5 -38.5q0 -11 -4 -21t-19.5 -24.5t-46.5 -36t-86 -55.5q-10 -6 -32.5 -20t-51.5 -31.5t-61.5 -37.5t-60.5 -37.5t-49.5 -30.5t-29.5 -18q2 0 -8 -5t-22.5 -11t-24 -11.5t-14.5 -5.5q-41 0 -60.5 22.5t-19.5 53.5z" />
<glyph unicode="&#xe2;" horiz-adv-x="1343" d="M61 261q0 66 19.5 134.5t50 133.5t68 124t73.5 105q38 48 91 95.5t111 85t114.5 60.5t100.5 23q24 0 49.5 -1.5t50.5 -4.5t48 -9t41 -15q12 -8 26.5 -28.5t27 -44t21.5 -46.5t9 -36q0 -28 -8.5 -66.5t-19 -80.5t-19.5 -86t-9 -84q0 -28 8 -57t23 -52.5t36 -38.5t47 -15 q59 0 117 22t116 60.5t116 91t117 113.5q2 0 16 15t33.5 33t41 33t37.5 15q29 0 38 -17t9 -52q0 -12 -4.5 -28.5t-11.5 -33t-15.5 -32t-16.5 -26.5q-5 -7 -16 -19.5t-25 -28t-31.5 -33.5t-35.5 -36q-58 -54 -117.5 -106.5t-124.5 -93t-136 -65.5t-151 -25q-34 0 -69 15 t-65 41t-52.5 62.5t-31.5 78.5q-18 -30 -47 -64.5t-63.5 -68.5t-71.5 -64.5t-69 -52.5q-22 -15 -53.5 -31t-66.5 -29.5t-70.5 -22t-65.5 -8.5q-48 0 -84 27.5t-59.5 67.5t-35 85t-11.5 81zM266 266q0 -12 1.5 -23.5t6 -20.5t12.5 -15t21 -6q38 0 86 24.5t96.5 64t94 91 t76.5 105.5q38 66 65 138t27 150q0 9 -3.5 21t-9 22.5t-12.5 18t-13 7.5q-66 0 -120.5 -35.5t-113.5 -96.5q-33 -33 -70.5 -89t-69.5 -119t-53 -126t-21 -111zM325 1243q0 20 10 40.5t30 39.5q11 13 21.5 26.5t21.5 24.5q33 34 57.5 61t50.5 50q28 27 54.5 56.5t49.5 56.5 q63 78 122 78q20 0 45 -15.5t43 -42.5q15 -23 32 -53t37 -66q19 -36 33 -54t18 -22q6 -6 14.5 -16t17 -22t17.5 -23.5t17 -20.5q29 -31 39 -49t13 -23q11 -17 13.5 -33t2.5 -27q0 -15 -7.5 -31t-20 -28.5t-28.5 -20.5t-34 -8q-21 0 -41 12t-37.5 29.5t-31.5 37.5t-25 36 q-8 14 -18.5 28t-28.5 40q-15 21 -31.5 41t-30.5 46q-2 4 -7.5 12t-12 15.5t-13 13.5t-10.5 6t-10 -5.5t-13 -13t-14.5 -16.5t-15.5 -16q-15 -14 -35 -34t-33 -34q-14 -15 -36 -37t-65 -63l-20 -20t-22 -20.5t-22.5 -15.5t-22.5 -6q-39 0 -56 21.5t-17 64.5z" />
<glyph unicode="&#xe3;" horiz-adv-x="1343" d="M61 261q0 66 19.5 134.5t50 133.5t68 124t73.5 105q38 48 91 95.5t111 85t114.5 60.5t100.5 23q24 0 49.5 -1.5t50.5 -4.5t48 -9t41 -15q12 -8 26.5 -28.5t27 -44t21.5 -46.5t9 -36q0 -28 -8.5 -66.5t-19 -80.5t-19.5 -86t-9 -84q0 -28 8 -57t23 -52.5t36 -38.5t47 -15 q59 0 117 22t116 60.5t116 91t117 113.5q2 0 16 15t33.5 33t41 33t37.5 15q29 0 38 -17t9 -52q0 -12 -4.5 -28.5t-11.5 -33t-15.5 -32t-16.5 -26.5q-5 -7 -16 -19.5t-25 -28t-31.5 -33.5t-35.5 -36q-58 -54 -117.5 -106.5t-124.5 -93t-136 -65.5t-151 -25q-34 0 -69 15 t-65 41t-52.5 62.5t-31.5 78.5q-18 -30 -47 -64.5t-63.5 -68.5t-71.5 -64.5t-69 -52.5q-22 -15 -53.5 -31t-66.5 -29.5t-70.5 -22t-65.5 -8.5q-48 0 -84 27.5t-59.5 67.5t-35 85t-11.5 81zM266 266q0 -12 1.5 -23.5t6 -20.5t12.5 -15t21 -6q38 0 86 24.5t96.5 64t94 91 t76.5 105.5q38 66 65 138t27 150q0 9 -3.5 21t-9 22.5t-12.5 18t-13 7.5q-66 0 -120.5 -35.5t-113.5 -96.5q-33 -33 -70.5 -89t-69.5 -119t-53 -126t-21 -111zM286 1219q0 48 54 120q24 31 51 60t61 55q68 53 126 53q36 0 62.5 -4t44.5 -12q20 -8 38.5 -22t38.5 -34 q17 -17 31.5 -34t27.5 -25q9 -5 20 -14.5t22 -18.5t21.5 -16t17.5 -7q19 0 34.5 16t32.5 40q12 17 20.5 33.5t22.5 33.5q32 38 65 38q42 0 56.5 -22t14.5 -58q0 -15 -8.5 -36.5t-21.5 -44.5q-11 -19 -26.5 -41.5t-35.5 -46.5q-16 -19 -33 -33.5t-34 -25.5q-31 -18 -73 -18 t-74.5 6.5t-58.5 22.5q-11 8 -24.5 20.5t-33.5 29.5q-9 8 -21.5 21t-17.5 18q-7 8 -18 18.5t-22.5 19.5t-23 15t-19.5 6q-20 0 -46.5 -19t-58.5 -61q-18 -24 -34 -44t-32 -34.5t-34 -22.5t-39 -8q-38 0 -55.5 22t-17.5 54z" />
<glyph unicode="&#xe4;" horiz-adv-x="1343" d="M61 261q0 66 19.5 134.5t50 133.5t68 124t73.5 105q38 48 91 95.5t111 85t114.5 60.5t100.5 23q24 0 49.5 -1.5t50.5 -4.5t48 -9t41 -15q12 -8 26.5 -28.5t27 -44t21.5 -46.5t9 -36q0 -28 -8.5 -66.5t-19 -80.5t-19.5 -86t-9 -84q0 -28 8 -57t23 -52.5t36 -38.5t47 -15 q59 0 117 22t116 60.5t116 91t117 113.5q2 0 16 15t33.5 33t41 33t37.5 15q29 0 38 -17t9 -52q0 -12 -4.5 -28.5t-11.5 -33t-15.5 -32t-16.5 -26.5q-5 -7 -16 -19.5t-25 -28t-31.5 -33.5t-35.5 -36q-58 -54 -117.5 -106.5t-124.5 -93t-136 -65.5t-151 -25q-34 0 -69 15 t-65 41t-52.5 62.5t-31.5 78.5q-18 -30 -47 -64.5t-63.5 -68.5t-71.5 -64.5t-69 -52.5q-22 -15 -53.5 -31t-66.5 -29.5t-70.5 -22t-65.5 -8.5q-48 0 -84 27.5t-59.5 67.5t-35 85t-11.5 81zM266 266q0 -12 1.5 -23.5t6 -20.5t12.5 -15t21 -6q38 0 86 24.5t96.5 64t94 91 t76.5 105.5q38 66 65 138t27 150q0 9 -3.5 21t-9 22.5t-12.5 18t-13 7.5q-66 0 -120.5 -35.5t-113.5 -96.5q-33 -33 -70.5 -89t-69.5 -119t-53 -126t-21 -111zM372 1265q0 30 4 56t15 45t30 29.5t50 10.5q75 0 120 -39t45 -110q0 -68 -127 -68q-19 0 -42.5 6t-44.5 16.5 t-35.5 24.5t-14.5 29zM771 1324q0 23 5 39.5t18.5 29.5t38 23t63.5 19q7 2 16.5 5t22.5 3q45 0 67.5 -28.5t22.5 -70.5q0 -129 -136 -129q-24 0 -45.5 8.5t-37.5 23.5t-25.5 35t-9.5 42z" />
<glyph unicode="&#xe5;" horiz-adv-x="1343" d="M61 261q0 66 19.5 134.5t50 133.5t68 124t73.5 105q38 48 91 95.5t111 85t114.5 60.5t100.5 23q24 0 49.5 -1.5t50.5 -4.5t48 -9t41 -15q12 -8 26.5 -28.5t27 -44t21.5 -46.5t9 -36q0 -28 -8.5 -66.5t-19 -80.5t-19.5 -86t-9 -84q0 -28 8 -57t23 -52.5t36 -38.5t47 -15 q59 0 117 22t116 60.5t116 91t117 113.5q2 0 16 15t33.5 33t41 33t37.5 15q29 0 38 -17t9 -52q0 -12 -4.5 -28.5t-11.5 -33t-15.5 -32t-16.5 -26.5q-5 -7 -16 -19.5t-25 -28t-31.5 -33.5t-35.5 -36q-58 -54 -117.5 -106.5t-124.5 -93t-136 -65.5t-151 -25q-34 0 -69 15 t-65 41t-52.5 62.5t-31.5 78.5q-18 -30 -47 -64.5t-63.5 -68.5t-71.5 -64.5t-69 -52.5q-22 -15 -53.5 -31t-66.5 -29.5t-70.5 -22t-65.5 -8.5q-48 0 -84 27.5t-59.5 67.5t-35 85t-11.5 81zM266 266q0 -12 1.5 -23.5t6 -20.5t12.5 -15t21 -6q38 0 86 24.5t96.5 64t94 91 t76.5 105.5q38 66 65 138t27 150q0 9 -3.5 21t-9 22.5t-12.5 18t-13 7.5q-66 0 -120.5 -35.5t-113.5 -96.5q-33 -33 -70.5 -89t-69.5 -119t-53 -126t-21 -111zM439 1381q0 39 18 78.5t47.5 72.5t67 57.5t75.5 34.5q60 17 120 17q20 0 45.5 -8t49.5 -19.5t44 -24.5t29 -23 t19.5 -29t19.5 -46v1q13 -31 17 -52t4 -35q0 -52 -28 -100.5t-72 -85.5t-98 -59.5t-106 -22.5q-57 0 -103.5 20t-79.5 53.5t-51 78t-18 92.5zM628 1374q0 -18 7.5 -36.5t18.5 -34.5t23.5 -26t22.5 -10q3 0 13 3.5t22 9t24 11.5t18 10q18 13 27 37.5t9 57.5q0 5 -3.5 17 t-7 25.5t-7 24.5t-3.5 14q0 5 -10.5 8.5t-23.5 5.5q-15 3 -35 4q-7 0 -18 -1t-26 -6q-10 -1 -19.5 -13t-16.5 -28.5t-11 -36t-4 -36.5z" />
<glyph unicode="&#xe6;" horiz-adv-x="1493" d="M79 200q0 65 13 135.5t39 148.5q26 76 56.5 143.5t68.5 127.5q29 47 70 93.5t90 84.5t102.5 61.5t106.5 23.5q51 0 93.5 -6.5t73 -21t48 -36.5t17.5 -54q0 -3 -0.5 -10.5t-2.5 -23t-5.5 -40t-9.5 -61.5q9 17 25 42.5t37 53t45.5 55t50 50t50 36t46.5 13.5q17 0 42.5 -3 t52 -6.5t49.5 -7.5t33 -7q10 -1 24 -12t28.5 -28t29 -37t25.5 -39.5t18 -35.5t7 -25q0 -52 -19.5 -102t-54.5 -95t-84 -83.5t-109 -67.5q-33 -16 -63 -27t-59.5 -20t-60 -17t-65.5 -17q2 -32 14 -54t35 -39q25 -19 59 -31t60 -12q54 0 109 13.5t107 36t99.5 53t87.5 64.5 q27 23 59 55.5t70 70.5q5 6 23 26t40.5 41.5t44 39t34.5 17.5q21 0 31 -20t10 -43q0 -36 -30.5 -83.5t-78 -99t-105.5 -101.5t-114 -90q-37 -26 -84.5 -54.5t-97.5 -57.5q-62 -31 -115 -48.5t-101 -17.5q-137 0 -204 41q-54 33 -85 68.5t-46 71t-19 68.5t-4 61 q-8 -15 -18 -35t-21.5 -41.5t-22.5 -42t-21 -35.5q-64 -101 -156 -182q-93 -82 -200 -82q-19 0 -41 10.5t-42 26t-35 32.5t-21 29q-7 14 -12 35.5t-9 44t-6 43.5t-2 36zM268 181q0 -35 10.5 -46t22.5 -11q7 0 20 11t29.5 29.5t35.5 41t36.5 45t32.5 43.5t24 35 q26 48 60 110.5t72 143.5q36 76 52.5 123t16.5 66q0 26 -3.5 40t-9 21.5t-12 9t-13.5 1.5q-30 0 -53 -6.5t-42 -20.5t-36.5 -35.5t-38.5 -51.5q-17 -25 -33.5 -51t-30 -48t-23 -39t-12.5 -24q-9 -19 -22 -50t-25 -63.5t-22 -60t-14 -40.5q-8 -28 -15 -67.5t-7 -105.5z M882 528q62 11 123 40.5t110 68t79.5 80t30.5 75.5v4q0 10 -7.5 19.5t-19 16.5t-25 11.5t-24.5 4.5q-29 0 -80.5 -45t-111.5 -120q-13 -16 -25 -38t-22 -44.5t-17 -42t-11 -30.5z" />
<glyph unicode="&#xe7;" horiz-adv-x="1075" d="M67 -433q0 32 20.5 52t64.5 20q17 0 33.5 -6.5t35.5 -17.5q22 -12 39 -15.5t38 -3.5q25 0 47.5 6.5t42.5 17.5q7 4 16 11.5t16.5 16.5t13 20t5.5 22t-6.5 21t-16 17.5t-20 12t-19.5 4.5q-2 0 -28 -8q-35 -16 -60 -16q-89 0 -89 79q30 79 51 133.5t32 83.5 q-47 18 -83 50.5t-60.5 74.5t-37 92t-12.5 104q0 131 55 263.5t151 260.5q24 32 56.5 67t68.5 63.5t74 47t74 18.5q24 0 46.5 -13.5t44 -36.5t40.5 -53.5t35 -65.5q32 -70 32 -102q0 -17 -3.5 -41.5t-13 -46.5t-25.5 -37.5t-41 -15.5q-37 0 -61 23.5t-40 54.5t-25.5 61 t-17.5 43q-24 -9 -50.5 -35t-52.5 -64t-49 -85.5t-40.5 -101t-28 -109.5t-10.5 -111q0 -51 37 -89q42 -42 78 -42q114 0 219.5 42t203.5 112q66 47 138 105.5t158 140.5q31 30 62.5 57.5t62 48.5t58 34t51.5 13q52 0 52 -55q0 -20 -5.5 -34.5t-17 -29t-29.5 -31.5t-44 -43 l-88 -88q-28 -28 -49 -47t-40.5 -35.5t-40.5 -34l-51 -42.5q-65 -55 -128 -103t-123 -86q-76 -48 -161.5 -78t-179.5 -38q-5 -7 -10 -13.5t-9 -13.5l-8.5 -17t-11 -23.5t-9 -24.5t-3.5 -19q0 -5 6.5 -7.5t16 -4t19.5 -2t17 -2.5q20 -5 35.5 -11t26.5 -16q20 -16 31.5 -35 t18.5 -43.5t9 -56.5t2 -74q0 -76 -92 -136q-27 -18 -52 -31t-51.5 -21.5t-55.5 -12t-65 -3.5q-4 0 -13.5 2.5t-21 6t-23 6.5t-19.5 5q-29 9 -48 17t-21 9q-74 30 -74 89z" />
<glyph unicode="&#xe8;" horiz-adv-x="1078" d="M146 417q0 78 11 153.5t36.5 149t66.5 144.5t101 138q22 25 51.5 48t63 41t70 29t72.5 11q53 0 91.5 -20t63.5 -53.5t37 -77t12 -91.5q0 -89 -66 -184.5t-183 -195.5q-38 -32 -88 -69.5t-112 -84.5q2 -25 14.5 -47t34 -38.5t51.5 -26t68 -9.5q49 0 104 12.5t109 33.5 t105 48.5t93 57.5q74 53 142.5 114.5t132.5 125.5l53 53q55 49 94 49q20 0 27.5 -13.5t7.5 -23.5q0 -18 -27 -66q-52 -75 -115.5 -148.5t-135.5 -139.5t-150 -122.5t-158 -97.5t-159.5 -64.5t-155.5 -23.5q-171 0 -266.5 96.5t-95.5 291.5zM228 1575q0 13 11 29t26.5 30 t32.5 23.5t29 9.5q21 0 48 -10t56 -31q28 -20 49.5 -40t41.5 -37q22 -19 47 -40.5t59 -45.5q38 -26 60.5 -48t42.5 -36q65 -45 65 -93q0 -35 -23.5 -58.5t-69.5 -23.5q-7 0 -31 9t-45 26q-5 3 -11 8t-12 11q-16 13 -36.5 28t-40 29t-35.5 25t-24 17q-6 5 -30 22t-58 39 q-77 49 -114.5 87t-37.5 70zM361 534q47 35 94.5 73.5t86 80.5t63 88.5t24.5 98.5q0 22 -4.5 42t-14.5 25q-34 0 -72.5 -29t-73.5 -82.5t-62.5 -129t-40.5 -167.5z" />
<glyph unicode="&#xe9;" horiz-adv-x="1078" d="M146 417q0 78 11 153.5t36.5 149t66.5 144.5t101 138q22 25 51.5 48t63 41t70 29t72.5 11q53 0 91.5 -20t63.5 -53.5t37 -77t12 -91.5q0 -89 -66 -184.5t-183 -195.5q-38 -32 -88 -69.5t-112 -84.5q2 -25 14.5 -47t34 -38.5t51.5 -26t68 -9.5q49 0 104 12.5t109 33.5 t105 48.5t93 57.5q74 53 142.5 114.5t132.5 125.5l53 53q55 49 94 49q20 0 27.5 -13.5t7.5 -23.5q0 -18 -27 -66q-52 -75 -115.5 -148.5t-135.5 -139.5t-150 -122.5t-158 -97.5t-159.5 -64.5t-155.5 -23.5q-171 0 -266.5 96.5t-95.5 291.5zM361 534q47 35 94.5 73.5t86 80.5 t63 88.5t24.5 98.5q0 22 -4.5 42t-14.5 25q-34 0 -72.5 -29t-73.5 -82.5t-62.5 -129t-40.5 -167.5zM388 1289q0 54 138 151q40 28 80 55t77 52t69 47.5t55 40.5q16 13 36.5 20.5t42.5 7.5q8 0 23 -9t30.5 -24t27 -33.5t11.5 -38.5q0 -11 -4 -21t-19.5 -24.5t-46.5 -36 t-86 -55.5q-10 -6 -32.5 -20t-51.5 -31.5t-61.5 -37.5t-60.5 -37.5t-49.5 -30.5t-29.5 -18q2 0 -8 -5t-22.5 -11t-24 -11.5t-14.5 -5.5q-41 0 -60.5 22.5t-19.5 53.5z" />
<glyph unicode="&#xea;" horiz-adv-x="1078" d="M146 417q0 78 11 153.5t36.5 149t66.5 144.5t101 138q22 25 51.5 48t63 41t70 29t72.5 11q53 0 91.5 -20t63.5 -53.5t37 -77t12 -91.5q0 -89 -66 -184.5t-183 -195.5q-38 -32 -88 -69.5t-112 -84.5q2 -25 14.5 -47t34 -38.5t51.5 -26t68 -9.5q49 0 104 12.5t109 33.5 t105 48.5t93 57.5q74 53 142.5 114.5t132.5 125.5l53 53q55 49 94 49q20 0 27.5 -13.5t7.5 -23.5q0 -18 -27 -66q-52 -75 -115.5 -148.5t-135.5 -139.5t-150 -122.5t-158 -97.5t-159.5 -64.5t-155.5 -23.5q-171 0 -266.5 96.5t-95.5 291.5zM250 1279q0 20 10 40.5t30 39.5 q11 13 21.5 26.5t21.5 24.5q33 34 57.5 61t50.5 50q28 27 54.5 56.5t49.5 56.5q63 78 122 78q20 0 45 -15.5t43 -42.5q15 -23 32 -53t37 -66q19 -36 33 -54t18 -22q6 -6 14.5 -16t17 -22t17.5 -23.5t17 -20.5q29 -31 39 -49t13 -23q11 -17 13.5 -33t2.5 -27q0 -15 -7.5 -31 t-20 -28.5t-28.5 -20.5t-34 -8q-21 0 -41 12t-37.5 29.5t-31.5 37.5t-25 36q-8 14 -18.5 28t-28.5 40q-15 21 -31.5 41t-30.5 46q-2 4 -7.5 12t-12 15.5t-13 13.5t-10.5 6t-10 -5.5t-13 -13t-14.5 -16.5t-15.5 -16q-15 -14 -35 -34t-33 -34q-14 -15 -36 -37t-65 -63l-20 -20 t-22 -20.5t-22.5 -15.5t-22.5 -6q-39 0 -56 21.5t-17 64.5zM361 534q47 35 94.5 73.5t86 80.5t63 88.5t24.5 98.5q0 22 -4.5 42t-14.5 25q-34 0 -72.5 -29t-73.5 -82.5t-62.5 -129t-40.5 -167.5z" />
<glyph unicode="&#xeb;" horiz-adv-x="1078" d="M146 417q0 78 11 153.5t36.5 149t66.5 144.5t101 138q22 25 51.5 48t63 41t70 29t72.5 11q53 0 91.5 -20t63.5 -53.5t37 -77t12 -91.5q0 -89 -66 -184.5t-183 -195.5q-38 -32 -88 -69.5t-112 -84.5q2 -25 14.5 -47t34 -38.5t51.5 -26t68 -9.5q49 0 104 12.5t109 33.5 t105 48.5t93 57.5q74 53 142.5 114.5t132.5 125.5l53 53q55 49 94 49q20 0 27.5 -13.5t7.5 -23.5q0 -18 -27 -66q-52 -75 -115.5 -148.5t-135.5 -139.5t-150 -122.5t-158 -97.5t-159.5 -64.5t-155.5 -23.5q-171 0 -266.5 96.5t-95.5 291.5zM271 1276q0 30 4 56t15 45 t30 29.5t50 10.5q75 0 120 -39t45 -110q0 -68 -127 -68q-19 0 -42.5 6t-44.5 16.5t-35.5 24.5t-14.5 29zM361 534q47 35 94.5 73.5t86 80.5t63 88.5t24.5 98.5q0 22 -4.5 42t-14.5 25q-34 0 -72.5 -29t-73.5 -82.5t-62.5 -129t-40.5 -167.5zM670 1335q0 23 5 39.5t18.5 29.5 t38 23t63.5 19q7 2 16.5 5t22.5 3q45 0 67.5 -28.5t22.5 -70.5q0 -129 -136 -129q-24 0 -45.5 8.5t-37.5 23.5t-25.5 35t-9.5 42z" />
<glyph unicode="&#xec;" horiz-adv-x="924" d="M55 1449q0 13 11 29t26.5 30t32.5 23.5t29 9.5q21 0 48 -10t56 -31q28 -20 49.5 -40t41.5 -37q22 -19 47 -40.5t59 -45.5q38 -26 60.5 -48t42.5 -36q65 -45 65 -93q0 -35 -23.5 -58.5t-69.5 -23.5q-7 0 -31 9t-45 26q-5 3 -11 8t-12 11q-16 13 -36.5 28t-40 29t-35.5 25 t-24 17q-6 5 -30 22t-58 39q-77 49 -114.5 87t-37.5 70zM220 462q0 12 0.5 32t2 43.5t3.5 50t5 52.5q5 50 11 88.5t14 66.5q15 51 70 94q51 41 116 41q64 0 64 -78q0 -33 -5.5 -70.5t-10.5 -74.5q-17 -71 -22 -138.5t-5 -111.5q0 -27 1.5 -71.5t8.5 -88t22 -75t42 -31.5 q14 0 33 4.5t41 12.5t44 18.5t42 23.5q52 33 102 76t96.5 89t88.5 92.5t76 85.5q29 32 55 67t52 67q9 12 17.5 22t15.5 19q8 14 23 27.5t39 13.5q9 0 18 -7t13 -18q5 -13 6 -21.5t1 -16.5q0 -22 -18.5 -66t-51 -100t-77 -119t-97.5 -123q-25 -29 -55 -62t-63.5 -66.5 t-68.5 -66t-70 -60.5q-30 -25 -66 -46t-72.5 -36.5t-72.5 -24.5t-66 -9q-88 0 -146.5 36.5t-93 102.5t-48.5 157t-14 199z" />
<glyph unicode="&#xed;" horiz-adv-x="924" d="M220 462q0 12 0.5 32t2 43.5t3.5 50t5 52.5q5 50 11 88.5t14 66.5q15 51 70 94q51 41 116 41q64 0 64 -78q0 -33 -5.5 -70.5t-10.5 -74.5q-17 -71 -22 -138.5t-5 -111.5q0 -27 1.5 -71.5t8.5 -88t22 -75t42 -31.5q14 0 33 4.5t41 12.5t44 18.5t42 23.5q52 33 102 76 t96.5 89t88.5 92.5t76 85.5q29 32 55 67t52 67q9 12 17.5 22t15.5 19q8 14 23 27.5t39 13.5q9 0 18 -7t13 -18q5 -13 6 -21.5t1 -16.5q0 -22 -18.5 -66t-51 -100t-77 -119t-97.5 -123q-25 -29 -55 -62t-63.5 -66.5t-68.5 -66t-70 -60.5q-30 -25 -66 -46t-72.5 -36.5 t-72.5 -24.5t-66 -9q-88 0 -146.5 36.5t-93 102.5t-48.5 157t-14 199zM242 1190q0 54 138 151q40 28 80 55t77 52t69 47.5t55 40.5q16 13 36.5 20.5t42.5 7.5q8 0 23 -9t30.5 -24t27 -33.5t11.5 -38.5q0 -11 -4 -21t-19.5 -24.5t-46.5 -36t-86 -55.5q-10 -6 -32.5 -20 t-51.5 -31.5t-61.5 -37.5t-60.5 -37.5t-49.5 -30.5t-29.5 -18q2 0 -8 -5t-22.5 -11t-24 -11.5t-14.5 -5.5q-41 0 -60.5 22.5t-19.5 53.5z" />
<glyph unicode="&#xee;" horiz-adv-x="924" d="M40 1202q0 20 10 40.5t30 39.5q11 13 21.5 26.5t21.5 24.5q33 34 57.5 61t50.5 50q28 27 54.5 56.5t49.5 56.5q63 78 122 78q20 0 45 -15.5t43 -42.5q15 -23 32 -53t37 -66q19 -36 33 -54t18 -22q6 -6 14.5 -16t17 -22t17.5 -23.5t17 -20.5q29 -31 39 -49t13 -23 q11 -17 13.5 -33t2.5 -27q0 -15 -7.5 -31t-20 -28.5t-28.5 -20.5t-34 -8q-21 0 -41 12t-37.5 29.5t-31.5 37.5t-25 36q-8 14 -18.5 28t-28.5 40q-15 21 -31.5 41t-30.5 46q-2 4 -7.5 12t-12 15.5t-13 13.5t-10.5 6t-10 -5.5t-13 -13t-14.5 -16.5t-15.5 -16q-15 -14 -35 -34 t-33 -34q-14 -15 -36 -37t-65 -63l-20 -20t-22 -20.5t-22.5 -15.5t-22.5 -6q-39 0 -56 21.5t-17 64.5zM220 462q0 12 0.5 32t2 43.5t3.5 50t5 52.5q5 50 11 88.5t14 66.5q15 51 70 94q51 41 116 41q64 0 64 -78q0 -33 -5.5 -70.5t-10.5 -74.5q-17 -71 -22 -138.5t-5 -111.5 q0 -27 1.5 -71.5t8.5 -88t22 -75t42 -31.5q14 0 33 4.5t41 12.5t44 18.5t42 23.5q52 33 102 76t96.5 89t88.5 92.5t76 85.5q29 32 55 67t52 67q9 12 17.5 22t15.5 19q8 14 23 27.5t39 13.5q9 0 18 -7t13 -18q5 -13 6 -21.5t1 -16.5q0 -22 -18.5 -66t-51 -100t-77 -119 t-97.5 -123q-25 -29 -55 -62t-63.5 -66.5t-68.5 -66t-70 -60.5q-30 -25 -66 -46t-72.5 -36.5t-72.5 -24.5t-66 -9q-88 0 -146.5 36.5t-93 102.5t-48.5 157t-14 199z" />
<glyph unicode="&#xef;" horiz-adv-x="924" d="M136 1270q0 30 4 56t15 45t30 29.5t50 10.5q75 0 120 -39t45 -110q0 -68 -127 -68q-19 0 -42.5 6t-44.5 16.5t-35.5 24.5t-14.5 29zM220 462q0 12 0.5 32t2 43.5t3.5 50t5 52.5q5 50 11 88.5t14 66.5q15 51 70 94q51 41 116 41q64 0 64 -78q0 -33 -5.5 -70.5t-10.5 -74.5 q-17 -71 -22 -138.5t-5 -111.5q0 -27 1.5 -71.5t8.5 -88t22 -75t42 -31.5q14 0 33 4.5t41 12.5t44 18.5t42 23.5q52 33 102 76t96.5 89t88.5 92.5t76 85.5q29 32 55 67t52 67q9 12 17.5 22t15.5 19q8 14 23 27.5t39 13.5q9 0 18 -7t13 -18q5 -13 6 -21.5t1 -16.5 q0 -22 -18.5 -66t-51 -100t-77 -119t-97.5 -123q-25 -29 -55 -62t-63.5 -66.5t-68.5 -66t-70 -60.5q-30 -25 -66 -46t-72.5 -36.5t-72.5 -24.5t-66 -9q-88 0 -146.5 36.5t-93 102.5t-48.5 157t-14 199zM535 1329q0 23 5 39.5t18.5 29.5t38 23t63.5 19q7 2 16.5 5t22.5 3 q45 0 67.5 -28.5t22.5 -70.5q0 -129 -136 -129q-24 0 -45.5 8.5t-37.5 23.5t-25.5 35t-9.5 42z" />
<glyph unicode="&#xf0;" horiz-adv-x="1030" d="M47 432v73q0 32 11 71t32.5 81.5t52.5 86.5t71 86q38 40 86.5 74.5t107.5 65.5q46 24 104 41t112 26q-11 27 -21.5 44.5t-22.5 32t-25.5 27t-30.5 28.5q-24 -9 -59.5 -33t-75 -49.5t-78.5 -45t-71 -19.5q-19 0 -34 10t-25.5 24.5t-16 31.5t-5.5 32q0 25 29.5 45.5 t86.5 48.5h-1q29 15 56 32t39 32q-30 15 -60 28.5t-54.5 26.5t-39.5 25t-15 23q0 20 14 44t35.5 45t48.5 35.5t53 14.5q18 0 46.5 -13.5t59.5 -34t61.5 -44t52.5 -44.5q6 0 36.5 19.5t69.5 50.5q5 3 8.5 6.5t7.5 6.5q26 20 44.5 34t34.5 23t32 13t36 4q41 0 60.5 -26.5 t19.5 -64.5q0 -16 -9 -32.5t-29 -33.5t-51.5 -36t-77.5 -42q-17 -8 -26 -16.5t-14 -10.5q-6 -2 -6 -5q21 -25 38 -47t31 -40q18 -25 38 -51.5t38.5 -56.5t36 -64.5t31.5 -75.5q13 -40 24 -85.5t18.5 -89.5t12 -84.5t4.5 -70.5q0 -51 -5 -89.5t-16 -64.5v1q-20 -56 -58 -113 t-101 -107q-57 -44 -128 -90t-156 -92q-38 -20 -79.5 -26t-77.5 -6q-116 0 -187 85q-33 41 -64 87.5t-45 99.5q-9 35 -12 70t-3 68zM278 513q0 -43 2.5 -78.5t10.5 -64.5t22 -52.5t37 -41.5q45 -36 58 -36q7 0 28.5 10.5t47.5 25.5t52.5 32t42.5 30q32 26 63.5 53.5t57 59 t41.5 67t16 75.5q0 29 -2 56t-6 53l1 -1q-3 3 -6.5 17t-7.5 32.5t-8.5 39.5t-9 38.5t-9 29t-8.5 11.5q-11 0 -32 -6t-47 -15.5t-54.5 -21t-54.5 -23t-46 -21t-30 -15.5q-28 -16 -56 -47.5t-51 -68t-37.5 -73.5t-14.5 -65z" />
<glyph unicode="&#xf1;" horiz-adv-x="1553" d="M177 353q0 54 12 159q6 47 13.5 99t19 104.5t27.5 103t37 93.5q12 24 27 38t30.5 21t32.5 9t34 2q15 0 29 -7.5t25 -21.5t17.5 -34t6.5 -46q0 -23 -4 -44t-11 -43.5t-14.5 -47.5t-15.5 -57q-5 -21 -14.5 -54t-19 -68.5t-17.5 -69.5t-10 -57q18 21 41.5 52.5t49.5 68 t53 74.5t54 72q35 44 69 83t71.5 67.5t81.5 45t99 16.5q65 0 106 -26.5t65.5 -73.5t36.5 -111.5t19 -140.5q4 -39 10.5 -80t19.5 -74.5t34 -55t52 -21.5q46 0 100.5 24.5t114.5 67.5t123 100t126 122q20 21 38.5 41.5t35.5 37t33 26.5t32 10q6 0 14 -1.5t15 -6t11.5 -12.5 t4.5 -22q0 -19 -7 -41.5t-17.5 -44.5t-23 -41.5t-23.5 -32.5q-32 -40 -71.5 -85t-82.5 -89t-88 -84.5t-90 -70.5q-35 -24 -67.5 -44.5t-67 -36.5t-73 -25t-84.5 -9q-75 0 -124.5 30t-80.5 80t-47.5 114.5t-25.5 134.5q-13 95 -29 150.5t-39 55.5q-20 0 -39 -9.5t-47.5 -40.5 t-72 -90.5t-113.5 -158.5q-24 -34 -58.5 -76t-72.5 -80.5t-75.5 -68t-69.5 -40.5q-126 28 -126 241zM486 1248q0 48 54 120q24 31 51 60t61 55q68 53 126 53q36 0 62.5 -4t44.5 -12q20 -8 38.5 -22t38.5 -34q17 -17 31.5 -34t27.5 -25q9 -5 20 -14.5t22 -18.5t21.5 -16 t17.5 -7q19 0 34.5 16t32.5 40q12 17 20.5 33.5t22.5 33.5q32 38 65 38q42 0 56.5 -22t14.5 -58q0 -15 -8.5 -36.5t-21.5 -44.5q-11 -19 -26.5 -41.5t-35.5 -46.5q-16 -19 -33 -33.5t-34 -25.5q-31 -18 -73 -18t-74.5 6.5t-58.5 22.5q-11 8 -24.5 20.5t-33.5 29.5 q-9 8 -21.5 21t-17.5 18q-7 8 -18 18.5t-22.5 19.5t-23 15t-19.5 6q-20 0 -46.5 -19t-58.5 -61q-18 -24 -34 -44t-32 -34.5t-34 -22.5t-39 -8q-38 0 -55.5 22t-17.5 54z" />
<glyph unicode="&#xf2;" horiz-adv-x="1184" d="M71 278q0 80 21.5 154t57.5 143t84 135.5t101 131.5q31 38 71 74t84.5 64.5t90 45.5t87.5 17q35 0 60.5 -8t47 -22.5t41.5 -35.5t42 -47l21 -23q8 -8 43.5 -24t84.5 -31.5t103 -27.5t98 -12q45 0 85 1t80.5 7.5t85 20t98.5 37.5q5 -9 7.5 -23t2.5 -22q0 -18 -7.5 -38 t-20.5 -38.5t-29.5 -34.5t-33.5 -27q-36 -24 -104.5 -42t-165.5 -18q-28 0 -59.5 4t-64 11t-64 17.5t-60.5 23.5q6 -9 10 -24.5t5.5 -32.5t2 -32.5t0.5 -24.5q0 -64 -22.5 -127.5t-59.5 -121.5t-84 -107.5t-96 -85.5q-39 -29 -86.5 -50t-100 -35t-108 -21t-112.5 -7 q-47 0 -90 23t-75.5 59.5t-52 82.5t-19.5 91zM300 310q0 -17 4 -34.5t12 -31.5t21 -23t32 -9q46 0 77 4.5t58 16t54.5 31t66.5 48.5q18 14 36 32.5t36 40t35 45t31 45.5q8 12 13.5 31.5t9 39.5t5 37t1.5 24v1q0 25 -2.5 52t-10.5 50.5t-22 41t-37 23.5q-35 9 -57 19.5 t-35 19.5t-18 15t-7 6q-8 0 -22.5 -13.5t-32 -34.5t-36 -45t-35.5 -45q-21 -26 -39.5 -50.5t-36 -51t-34.5 -55.5t-35 -64q-16 -32 -24 -78.5t-8 -87.5zM341 1523q0 13 11 29t26.5 30t32.5 23.5t29 9.5q21 0 48 -10t56 -31q28 -20 49.5 -40t41.5 -37q22 -19 47 -40.5 t59 -45.5q38 -26 60.5 -48t42.5 -36q65 -45 65 -93q0 -35 -23.5 -58.5t-69.5 -23.5q-7 0 -31 9t-45 26q-5 3 -11 8t-12 11q-16 13 -36.5 28t-40 29t-35.5 25t-24 17q-6 5 -30 22t-58 39q-77 49 -114.5 87t-37.5 70z" />
<glyph unicode="&#xf3;" horiz-adv-x="1184" d="M71 278q0 80 21.5 154t57.5 143t84 135.5t101 131.5q31 38 71 74t84.5 64.5t90 45.5t87.5 17q35 0 60.5 -8t47 -22.5t41.5 -35.5t42 -47l21 -23q8 -8 43.5 -24t84.5 -31.5t103 -27.5t98 -12q45 0 85 1t80.5 7.5t85 20t98.5 37.5q5 -9 7.5 -23t2.5 -22q0 -18 -7.5 -38 t-20.5 -38.5t-29.5 -34.5t-33.5 -27q-36 -24 -104.5 -42t-165.5 -18q-28 0 -59.5 4t-64 11t-64 17.5t-60.5 23.5q6 -9 10 -24.5t5.5 -32.5t2 -32.5t0.5 -24.5q0 -64 -22.5 -127.5t-59.5 -121.5t-84 -107.5t-96 -85.5q-39 -29 -86.5 -50t-100 -35t-108 -21t-112.5 -7 q-47 0 -90 23t-75.5 59.5t-52 82.5t-19.5 91zM300 310q0 -17 4 -34.5t12 -31.5t21 -23t32 -9q46 0 77 4.5t58 16t54.5 31t66.5 48.5q18 14 36 32.5t36 40t35 45t31 45.5q8 12 13.5 31.5t9 39.5t5 37t1.5 24v1q0 25 -2.5 52t-10.5 50.5t-22 41t-37 23.5q-35 9 -57 19.5 t-35 19.5t-18 15t-7 6q-8 0 -22.5 -13.5t-32 -34.5t-36 -45t-35.5 -45q-21 -26 -39.5 -50.5t-36 -51t-34.5 -55.5t-35 -64q-16 -32 -24 -78.5t-8 -87.5zM543 1228q0 54 138 151q40 28 80 55t77 52t69 47.5t55 40.5q16 13 36.5 20.5t42.5 7.5q8 0 23 -9t30.5 -24t27 -33.5 t11.5 -38.5q0 -11 -4 -21t-19.5 -24.5t-46.5 -36t-86 -55.5q-10 -6 -32.5 -20t-51.5 -31.5t-61.5 -37.5t-60.5 -37.5t-49.5 -30.5t-29.5 -18q2 0 -8 -5t-22.5 -11t-24 -11.5t-14.5 -5.5q-41 0 -60.5 22.5t-19.5 53.5z" />
<glyph unicode="&#xf4;" horiz-adv-x="1184" d="M71 278q0 80 21.5 154t57.5 143t84 135.5t101 131.5q31 38 71 74t84.5 64.5t90 45.5t87.5 17q35 0 60.5 -8t47 -22.5t41.5 -35.5t42 -47l21 -23q8 -8 43.5 -24t84.5 -31.5t103 -27.5t98 -12q45 0 85 1t80.5 7.5t85 20t98.5 37.5q5 -9 7.5 -23t2.5 -22q0 -18 -7.5 -38 t-20.5 -38.5t-29.5 -34.5t-33.5 -27q-36 -24 -104.5 -42t-165.5 -18q-28 0 -59.5 4t-64 11t-64 17.5t-60.5 23.5q6 -9 10 -24.5t5.5 -32.5t2 -32.5t0.5 -24.5q0 -64 -22.5 -127.5t-59.5 -121.5t-84 -107.5t-96 -85.5q-39 -29 -86.5 -50t-100 -35t-108 -21t-112.5 -7 q-47 0 -90 23t-75.5 59.5t-52 82.5t-19.5 91zM300 310q0 -17 4 -34.5t12 -31.5t21 -23t32 -9q46 0 77 4.5t58 16t54.5 31t66.5 48.5q18 14 36 32.5t36 40t35 45t31 45.5q8 12 13.5 31.5t9 39.5t5 37t1.5 24v1q0 25 -2.5 52t-10.5 50.5t-22 41t-37 23.5q-35 9 -57 19.5 t-35 19.5t-18 15t-7 6q-8 0 -22.5 -13.5t-32 -34.5t-36 -45t-35.5 -45q-21 -26 -39.5 -50.5t-36 -51t-34.5 -55.5t-35 -64q-16 -32 -24 -78.5t-8 -87.5zM300 1243q0 20 10 40.5t30 39.5q11 13 21.5 26.5t21.5 24.5q33 34 57.5 61t50.5 50q28 27 54.5 56.5t49.5 56.5 q63 78 122 78q20 0 45 -15.5t43 -42.5q15 -23 32 -53t37 -66q19 -36 33 -54t18 -22q6 -6 14.5 -16t17 -22t17.5 -23.5t17 -20.5q29 -31 39 -49t13 -23q11 -17 13.5 -33t2.5 -27q0 -15 -7.5 -31t-20 -28.5t-28.5 -20.5t-34 -8q-21 0 -41 12t-37.5 29.5t-31.5 37.5t-25 36 q-8 14 -18.5 28t-28.5 40q-15 21 -31.5 41t-30.5 46q-2 4 -7.5 12t-12 15.5t-13 13.5t-10.5 6t-10 -5.5t-13 -13t-14.5 -16.5t-15.5 -16q-15 -14 -35 -34t-33 -34q-14 -15 -36 -37t-65 -63l-20 -20t-22 -20.5t-22.5 -15.5t-22.5 -6q-39 0 -56 21.5t-17 64.5z" />
<glyph unicode="&#xf5;" horiz-adv-x="1184" d="M71 278q0 80 21.5 154t57.5 143t84 135.5t101 131.5q31 38 71 74t84.5 64.5t90 45.5t87.5 17q35 0 60.5 -8t47 -22.5t41.5 -35.5t42 -47l21 -23q8 -8 43.5 -24t84.5 -31.5t103 -27.5t98 -12q45 0 85 1t80.5 7.5t85 20t98.5 37.5q5 -9 7.5 -23t2.5 -22q0 -18 -7.5 -38 t-20.5 -38.5t-29.5 -34.5t-33.5 -27q-36 -24 -104.5 -42t-165.5 -18q-28 0 -59.5 4t-64 11t-64 17.5t-60.5 23.5q6 -9 10 -24.5t5.5 -32.5t2 -32.5t0.5 -24.5q0 -64 -22.5 -127.5t-59.5 -121.5t-84 -107.5t-96 -85.5q-39 -29 -86.5 -50t-100 -35t-108 -21t-112.5 -7 q-47 0 -90 23t-75.5 59.5t-52 82.5t-19.5 91zM254 1222q0 48 54 120q24 31 51 60t61 55q68 53 126 53q36 0 62.5 -4t44.5 -12q20 -8 38.5 -22t38.5 -34q17 -17 31.5 -34t27.5 -25q9 -5 20 -14.5t22 -18.5t21.5 -16t17.5 -7q19 0 34.5 16t32.5 40q12 17 20.5 33.5t22.5 33.5 q32 38 65 38q42 0 56.5 -22t14.5 -58q0 -15 -8.5 -36.5t-21.5 -44.5q-11 -19 -26.5 -41.5t-35.5 -46.5q-16 -19 -33 -33.5t-34 -25.5q-31 -18 -73 -18t-74.5 6.5t-58.5 22.5q-11 8 -24.5 20.5t-33.5 29.5q-9 8 -21.5 21t-17.5 18q-7 8 -18 18.5t-22.5 19.5t-23 15t-19.5 6 q-20 0 -46.5 -19t-58.5 -61q-18 -24 -34 -44t-32 -34.5t-34 -22.5t-39 -8q-38 0 -55.5 22t-17.5 54zM300 310q0 -17 4 -34.5t12 -31.5t21 -23t32 -9q46 0 77 4.5t58 16t54.5 31t66.5 48.5q18 14 36 32.5t36 40t35 45t31 45.5q8 12 13.5 31.5t9 39.5t5 37t1.5 24v1 q0 25 -2.5 52t-10.5 50.5t-22 41t-37 23.5q-35 9 -57 19.5t-35 19.5t-18 15t-7 6q-8 0 -22.5 -13.5t-32 -34.5t-36 -45t-35.5 -45q-21 -26 -39.5 -50.5t-36 -51t-34.5 -55.5t-35 -64q-16 -32 -24 -78.5t-8 -87.5z" />
<glyph unicode="&#xf6;" horiz-adv-x="1184" d="M71 278q0 80 21.5 154t57.5 143t84 135.5t101 131.5q31 38 71 74t84.5 64.5t90 45.5t87.5 17q35 0 60.5 -8t47 -22.5t41.5 -35.5t42 -47l21 -23q8 -8 43.5 -24t84.5 -31.5t103 -27.5t98 -12q45 0 85 1t80.5 7.5t85 20t98.5 37.5q5 -9 7.5 -23t2.5 -22q0 -18 -7.5 -38 t-20.5 -38.5t-29.5 -34.5t-33.5 -27q-36 -24 -104.5 -42t-165.5 -18q-28 0 -59.5 4t-64 11t-64 17.5t-60.5 23.5q6 -9 10 -24.5t5.5 -32.5t2 -32.5t0.5 -24.5q0 -64 -22.5 -127.5t-59.5 -121.5t-84 -107.5t-96 -85.5q-39 -29 -86.5 -50t-100 -35t-108 -21t-112.5 -7 q-47 0 -90 23t-75.5 59.5t-52 82.5t-19.5 91zM300 310q0 -17 4 -34.5t12 -31.5t21 -23t32 -9q46 0 77 4.5t58 16t54.5 31t66.5 48.5q18 14 36 32.5t36 40t35 45t31 45.5q8 12 13.5 31.5t9 39.5t5 37t1.5 24v1q0 25 -2.5 52t-10.5 50.5t-22 41t-37 23.5q-35 9 -57 19.5 t-35 19.5t-18 15t-7 6q-8 0 -22.5 -13.5t-32 -34.5t-36 -45t-35.5 -45q-21 -26 -39.5 -50.5t-36 -51t-34.5 -55.5t-35 -64q-16 -32 -24 -78.5t-8 -87.5zM350 1274q0 30 4 56t15 45t30 29.5t50 10.5q75 0 120 -39t45 -110q0 -68 -127 -68q-19 0 -42.5 6t-44.5 16.5 t-35.5 24.5t-14.5 29zM749 1333q0 23 5 39.5t18.5 29.5t38 23t63.5 19q7 2 16.5 5t22.5 3q45 0 67.5 -28.5t22.5 -70.5q0 -129 -136 -129q-24 0 -45.5 8.5t-37.5 23.5t-25.5 35t-9.5 42z" />
<glyph unicode="&#xf7;" horiz-adv-x="1184" d="M114 536q0 38 11 59t34.5 32t59.5 13.5t87 2.5q15 0 38.5 -0.5t47.5 -1.5t45 -1.5t32 -0.5q13 0 42 1.5t67.5 4t81.5 5.5t83 5.5t73 4t51 1.5q11 0 33 -3t46 -7t45 -7t30 -3q23 0 41 -10t30.5 -25t19.5 -32.5t7 -31.5q0 -6 -5 -18.5t-13.5 -25t-20 -23.5t-24.5 -14 q-19 -5 -57.5 -6.5t-97.5 -1.5q-38 0 -86 -1t-95 -1.5t-86.5 -1.5t-60.5 -1t-60 -2.5t-81 -6t-78.5 -6t-51.5 -2.5q-188 0 -188 105zM440 133q0 22 15.5 44t39.5 39.5t53 28.5t56 11q114 0 114 -76q0 -24 -8 -50t-23 -47.5t-37 -36t-51 -14.5q-25 0 -53 9.5t-51.5 24 t-39 32.5t-15.5 35zM461 948q0 12 10.5 26t27 25t37 18.5t39.5 7.5q8 0 13.5 -1.5t12 -3.5t15.5 -4t24 -4q48 -1 77 -12.5t29 -46.5q0 -44 -21 -95q-25 -60 -87 -60q-53 0 -87.5 16.5t-54.5 39.5t-27.5 49t-7.5 45z" />
<glyph unicode="&#xf8;" horiz-adv-x="1194" d="M70 -194q0 12 6.5 33.5t14.5 45.5q17 42 29 55q16 16 35.5 43.5t45.5 63.5q13 15 20 26t18 25q-7 6 -18 14t-21.5 16t-19 15t-11.5 11q-26 27 -42 67q-9 24 -17 47.5t-13 45.5q-13 49 -13 77q0 89 41 186q18 42 42.5 84t53.5 80q20 26 43.5 56t50.5 58.5t59 53t68 40.5 q29 13 59.5 24t59 18.5t54.5 11.5t45 4q23 0 39 -0.5t29 -3t24.5 -7t26.5 -12.5q5 11 12 25t16 34q39 84 73.5 132t72.5 48q24 0 43 -2t34.5 -9t28.5 -20t26 -36q0 -7 -1 -16t-6 -19q-5 -12 -16.5 -31t-24.5 -38.5l-24 -36t-16 -21.5q-10 -14 -23.5 -32t-20.5 -31 q11 -6 22.5 -11.5t22.5 -13.5q2 -1 5 -3q6 -4 10 -7q7 -4 16 -11q16 -11 29.5 -24.5l27.5 -27.5q74 -83 74 -161q0 -53 -22 -121t-64 -137q-40 -66 -94.5 -124.5t-121.5 -102.5q-32 -20 -80.5 -40t-112.5 -40q-63 -20 -120.5 -33.5t-95.5 -13.5q1 0 -3 -6.5t-20 -24.5 q-17 -19 -30.5 -43t-30.5 -51q-14 -22 -21 -37t-9 -21q-4 -9 -9 -22t-11 -26t-12.5 -25t-12.5 -19q-8 -9 -18.5 -22.5t-25.5 -24.5q-32 -26 -63 -26q-37 0 -73 30q-19 17 -29.5 33t-10.5 31zM292 416q0 -31 5 -60t15 -64q6 -21 14.5 -28t17.5 -7q4 0 12 9t17 22q21 30 43 65 t48 77q23 36 41 64.5t35.5 56.5t36 59.5t41.5 73.5q23 40 45.5 76t35.5 67q-7 2 -19.5 2.5t-21.5 0.5q-2 0 -13 -2.5t-28 -7.5t-29 -8.5t-17 -5.5q-71 -28 -123.5 -74.5t-87 -101t-51.5 -110.5t-17 -104zM549 236q13 3 28.5 8t34.5 12q39 14 64 25.5t32 19.5 q45 24 78.5 54.5t59.5 60.5q23 28 48 67t42 74q17 34 20.5 67.5t3.5 62.5q0 12 -7.5 23.5t-19.5 22.5t-26.5 20.5t-27.5 16.5q-19 -32 -36 -59.5t-34 -52.5q-14 -20 -27 -40.5t-26.5 -42.5t-28.5 -47t-34 -55q-21 -34 -39.5 -64t-35.5 -58l-34 -56t-35 -59z" />
<glyph unicode="&#xf9;" horiz-adv-x="1565" d="M191 258q0 38 6.5 78.5t14.5 82t15.5 82t10.5 78.5q2 29 4 62t4 66.5t5.5 67t8.5 62.5q4 21 11.5 40t21.5 33.5t35.5 23t52.5 8.5q63 0 88.5 -37.5t25.5 -113.5q0 -23 -3 -53t-8 -62.5t-11.5 -65.5t-14.5 -63q-17 -67 -32 -130.5t-15 -113.5q0 -32 11.5 -53t28.5 -21 q43 0 89.5 26.5t90.5 66t83.5 86t67.5 85.5q26 36 52.5 89t52 111.5t49.5 116t43 101.5q26 59 60 91t66 32q38 0 56 -15t18 -55q0 -16 -4 -49t-9 -69.5t-9 -70t-4 -50.5q0 -16 0.5 -39t1.5 -47.5t3.5 -47.5t5.5 -39q4 -17 13 -44t22.5 -52.5t29.5 -44t34 -18.5 q52 0 110.5 27t119.5 70.5t122.5 98.5t119.5 110q24 23 47.5 46.5t45.5 42t41 30.5t33 12q16 0 25.5 -10t9.5 -18q0 -56 -39.5 -123.5t-103 -135.5t-142 -132t-157 -113.5t-148.5 -79.5t-116 -30q-64 0 -108.5 27.5t-74 73t-46.5 104t-25 120.5q-15 -36 -40 -78t-54 -83 t-58.5 -77.5t-54.5 -62.5q-35 -37 -77 -71.5t-90 -60.5t-101.5 -41.5t-111.5 -15.5q-49 0 -86.5 20.5t-62.5 53.5t-37.5 75.5t-12.5 85.5zM371 1503q0 13 11 29t26.5 30t32.5 23.5t29 9.5q21 0 48 -10t56 -31q28 -20 49.5 -40t41.5 -37q22 -19 47 -40.5t59 -45.5 q38 -26 60.5 -48t42.5 -36q65 -45 65 -93q0 -35 -23.5 -58.5t-69.5 -23.5q-7 0 -31 9t-45 26q-5 3 -11 8t-12 11q-16 13 -36.5 28t-40 29t-35.5 25t-24 17q-6 5 -30 22t-58 39q-77 49 -114.5 87t-37.5 70z" />
<glyph unicode="&#xfa;" horiz-adv-x="1565" d="M191 258q0 38 6.5 78.5t14.5 82t15.5 82t10.5 78.5q2 29 4 62t4 66.5t5.5 67t8.5 62.5q4 21 11.5 40t21.5 33.5t35.5 23t52.5 8.5q63 0 88.5 -37.5t25.5 -113.5q0 -23 -3 -53t-8 -62.5t-11.5 -65.5t-14.5 -63q-17 -67 -32 -130.5t-15 -113.5q0 -32 11.5 -53t28.5 -21 q43 0 89.5 26.5t90.5 66t83.5 86t67.5 85.5q26 36 52.5 89t52 111.5t49.5 116t43 101.5q26 59 60 91t66 32q38 0 56 -15t18 -55q0 -16 -4 -49t-9 -69.5t-9 -70t-4 -50.5q0 -16 0.5 -39t1.5 -47.5t3.5 -47.5t5.5 -39q4 -17 13 -44t22.5 -52.5t29.5 -44t34 -18.5 q52 0 110.5 27t119.5 70.5t122.5 98.5t119.5 110q24 23 47.5 46.5t45.5 42t41 30.5t33 12q16 0 25.5 -10t9.5 -18q0 -56 -39.5 -123.5t-103 -135.5t-142 -132t-157 -113.5t-148.5 -79.5t-116 -30q-64 0 -108.5 27.5t-74 73t-46.5 104t-25 120.5q-15 -36 -40 -78t-54 -83 t-58.5 -77.5t-54.5 -62.5q-35 -37 -77 -71.5t-90 -60.5t-101.5 -41.5t-111.5 -15.5q-49 0 -86.5 20.5t-62.5 53.5t-37.5 75.5t-12.5 85.5zM572 1212q0 54 138 151q40 28 80 55t77 52t69 47.5t55 40.5q16 13 36.5 20.5t42.5 7.5q8 0 23 -9t30.5 -24t27 -33.5t11.5 -38.5 q0 -11 -4 -21t-19.5 -24.5t-46.5 -36t-86 -55.5q-10 -6 -32.5 -20t-51.5 -31.5t-61.5 -37.5t-60.5 -37.5t-49.5 -30.5t-29.5 -18q2 0 -8 -5t-22.5 -11t-24 -11.5t-14.5 -5.5q-41 0 -60.5 22.5t-19.5 53.5z" />
<glyph unicode="&#xfb;" horiz-adv-x="1565" d="M191 258q0 38 6.5 78.5t14.5 82t15.5 82t10.5 78.5q2 29 4 62t4 66.5t5.5 67t8.5 62.5q4 21 11.5 40t21.5 33.5t35.5 23t52.5 8.5q63 0 88.5 -37.5t25.5 -113.5q0 -23 -3 -53t-8 -62.5t-11.5 -65.5t-14.5 -63q-17 -67 -32 -130.5t-15 -113.5q0 -32 11.5 -53t28.5 -21 q43 0 89.5 26.5t90.5 66t83.5 86t67.5 85.5q26 36 52.5 89t52 111.5t49.5 116t43 101.5q26 59 60 91t66 32q38 0 56 -15t18 -55q0 -16 -4 -49t-9 -69.5t-9 -70t-4 -50.5q0 -16 0.5 -39t1.5 -47.5t3.5 -47.5t5.5 -39q4 -17 13 -44t22.5 -52.5t29.5 -44t34 -18.5 q52 0 110.5 27t119.5 70.5t122.5 98.5t119.5 110q24 23 47.5 46.5t45.5 42t41 30.5t33 12q16 0 25.5 -10t9.5 -18q0 -56 -39.5 -123.5t-103 -135.5t-142 -132t-157 -113.5t-148.5 -79.5t-116 -30q-64 0 -108.5 27.5t-74 73t-46.5 104t-25 120.5q-15 -36 -40 -78t-54 -83 t-58.5 -77.5t-54.5 -62.5q-35 -37 -77 -71.5t-90 -60.5t-101.5 -41.5t-111.5 -15.5q-49 0 -86.5 20.5t-62.5 53.5t-37.5 75.5t-12.5 85.5zM422 1300q0 20 10 40.5t30 39.5q11 13 21.5 26.5t21.5 24.5q33 34 57.5 61t50.5 50q28 27 54.5 56.5t49.5 56.5q63 78 122 78 q20 0 45 -15.5t43 -42.5q15 -23 32 -53t37 -66q19 -36 33 -54t18 -22q6 -6 14.5 -16t17 -22t17.5 -23.5t17 -20.5q29 -31 39 -49t13 -23q11 -17 13.5 -33t2.5 -27q0 -15 -7.5 -31t-20 -28.5t-28.5 -20.5t-34 -8q-21 0 -41 12t-37.5 29.5t-31.5 37.5t-25 36q-8 14 -18.5 28 t-28.5 40q-15 21 -31.5 41t-30.5 46q-2 4 -7.5 12t-12 15.5t-13 13.5t-10.5 6t-10 -5.5t-13 -13t-14.5 -16.5t-15.5 -16q-15 -14 -35 -34t-33 -34q-14 -15 -36 -37t-65 -63l-20 -20t-22 -20.5t-22.5 -15.5t-22.5 -6q-39 0 -56 21.5t-17 64.5z" />
<glyph unicode="&#xfc;" horiz-adv-x="1565" d="M191 258q0 38 6.5 78.5t14.5 82t15.5 82t10.5 78.5q2 29 4 62t4 66.5t5.5 67t8.5 62.5q4 21 11.5 40t21.5 33.5t35.5 23t52.5 8.5q63 0 88.5 -37.5t25.5 -113.5q0 -23 -3 -53t-8 -62.5t-11.5 -65.5t-14.5 -63q-17 -67 -32 -130.5t-15 -113.5q0 -32 11.5 -53t28.5 -21 q43 0 89.5 26.5t90.5 66t83.5 86t67.5 85.5q26 36 52.5 89t52 111.5t49.5 116t43 101.5q26 59 60 91t66 32q38 0 56 -15t18 -55q0 -16 -4 -49t-9 -69.5t-9 -70t-4 -50.5q0 -16 0.5 -39t1.5 -47.5t3.5 -47.5t5.5 -39q4 -17 13 -44t22.5 -52.5t29.5 -44t34 -18.5 q52 0 110.5 27t119.5 70.5t122.5 98.5t119.5 110q24 23 47.5 46.5t45.5 42t41 30.5t33 12q16 0 25.5 -10t9.5 -18q0 -56 -39.5 -123.5t-103 -135.5t-142 -132t-157 -113.5t-148.5 -79.5t-116 -30q-64 0 -108.5 27.5t-74 73t-46.5 104t-25 120.5q-15 -36 -40 -78t-54 -83 t-58.5 -77.5t-54.5 -62.5q-35 -37 -77 -71.5t-90 -60.5t-101.5 -41.5t-111.5 -15.5q-49 0 -86.5 20.5t-62.5 53.5t-37.5 75.5t-12.5 85.5zM462 1269q0 30 4 56t15 45t30 29.5t50 10.5q75 0 120 -39t45 -110q0 -68 -127 -68q-19 0 -42.5 6t-44.5 16.5t-35.5 24.5t-14.5 29z M861 1328q0 23 5 39.5t18.5 29.5t38 23t63.5 19q7 2 16.5 5t22.5 3q45 0 67.5 -28.5t22.5 -70.5q0 -129 -136 -129q-24 0 -45.5 8.5t-37.5 23.5t-25.5 35t-9.5 42z" />
<glyph unicode="&#xfd;" horiz-adv-x="1289" d="M128 -238q0 18 3 36.5t11 33.5t21.5 24.5t35.5 9.5q16 0 28 -7t23 -18q38 -40 78 -68.5t84.5 -47t95 -27t108.5 -8.5q33 0 63 20.5t56 55t48.5 79t40.5 93.5t31.5 99t22.5 94q11 52 17 103t12 111q-31 -26 -71.5 -54.5t-85 -56t-92 -52.5t-94 -44t-89.5 -30.5t-78 -11.5 q-57 0 -98.5 23.5t-68.5 61t-40 85.5t-13 97q0 33 5 75.5t12.5 86t17.5 85t20 73.5q2 5 9 27.5t15 50t15.5 52t9.5 31.5q12 36 24.5 63t30.5 45.5t44 28t64 9.5q27 0 48 -11t33 -35q12 -23 14 -43t2 -41q0 -8 -11 -33t-25 -54t-27 -54t-16 -33q-30 -73 -49.5 -130.5 t-19.5 -117.5q0 -29 6 -53.5t15 -42.5t20.5 -28t23.5 -10q33 0 77.5 12.5t93 35t97.5 53.5t90 68t71 78t40 83q3 10 4.5 31.5t2.5 49t2 59t3 60t4.5 52.5t6.5 37q17 54 45 82t73 28q37 0 60 -9t35.5 -27t17 -45.5t4.5 -65.5q0 -22 -3 -61.5t-6.5 -83.5t-7 -85.5t-4.5 -67.5 q-3 -64 -10.5 -133t-18 -138.5t-24.5 -138t-29 -130.5q-12 -50 -28 -101.5t-35.5 -101t-42.5 -96t-48 -85.5q-106 -163 -302 -163q-123 0 -243 47q-42 16 -87.5 42t-82.5 55t-61 59.5t-24 57.5zM595 1212q0 54 138 151q40 28 80 55t77 52t69 47.5t55 40.5q16 13 36.5 20.5 t42.5 7.5q8 0 23 -9t30.5 -24t27 -33.5t11.5 -38.5q0 -11 -4 -21t-19.5 -24.5t-46.5 -36t-86 -55.5q-10 -6 -32.5 -20t-51.5 -31.5t-61.5 -37.5t-60.5 -37.5t-49.5 -30.5t-29.5 -18q2 0 -8 -5t-22.5 -11t-24 -11.5t-14.5 -5.5q-41 0 -60.5 22.5t-19.5 53.5z" />
<glyph unicode="&#xfe;" horiz-adv-x="1380" d="M142 -378q0 69 9 136t23 144q5 30 12 77.5t14 106t14.5 123.5t14.5 130.5t13.5 127.5t11.5 113.5t9 89t5 53.5q10 110 25 214.5t30 195.5q17 102 25 179t22 115q9 26 17.5 46t20.5 33.5t30 20.5t45 7q22 0 39.5 -5.5t29.5 -19t18.5 -37t6.5 -58.5v-22t-2 -24 q-5 -56 -15 -125t-21 -130q-6 -31 -12.5 -72t-14.5 -89t-17.5 -100.5t-20.5 -108.5q-14 -71 -22 -117t-13 -67q13 23 29.5 53.5t35.5 63.5t39.5 66t39.5 60q32 44 71 86t81.5 74.5t87.5 52.5t90 20q53 0 108.5 -16.5t101 -48t75 -76.5t29.5 -102q0 -42 -12 -84.5t-33 -78.5 q-10 -17 -29.5 -42t-45 -52.5t-53.5 -55t-54 -49.5q52 21 112 47.5t120 54.5t117 57.5t102 56.5q5 3 18.5 12l31.5 21t37.5 24.5t36.5 23.5t29 18t14 7q5 0 14 -2t17.5 -7.5t15 -15t6.5 -24.5v-21q0 -20 -24 -47.5t-69 -65.5q-41 -34 -75 -59t-72 -48q-48 -29 -122.5 -67.5 t-167.5 -82.5q-88 -41 -180 -80t-181 -71q-45 -16 -88.5 -30.5t-82.5 -25.5t-72 -17.5t-58 -6.5q-17 0 -31 1.5t-28 9.5q-13 -80 -21.5 -148.5t-16.5 -141.5q-8 -81 -15.5 -143t-20.5 -104.5t-34.5 -64t-57.5 -21.5t-58 11t-34 31t-16 48t-4 63zM479 287q0 -14 7 -18.5 t19 -4.5q10 0 31 10t48.5 26.5t58 36.5t59 40t51.5 38t35 30q98 94 148.5 173.5t50.5 150.5q0 6 -2.5 16.5t-10.5 20.5t-24 17t-43 7q-25 0 -55.5 -19t-64 -52t-69 -76.5t-69.5 -92.5t-66 -100t-58 -99q-9 -16 -17 -33t-14.5 -32t-10.5 -25.5t-4 -13.5z" />
<glyph unicode="&#xff;" horiz-adv-x="1289" d="M128 -238q0 18 3 36.5t11 33.5t21.5 24.5t35.5 9.5q16 0 28 -7t23 -18q38 -40 78 -68.5t84.5 -47t95 -27t108.5 -8.5q33 0 63 20.5t56 55t48.5 79t40.5 93.5t31.5 99t22.5 94q11 52 17 103t12 111q-31 -26 -71.5 -54.5t-85 -56t-92 -52.5t-94 -44t-89.5 -30.5t-78 -11.5 q-57 0 -98.5 23.5t-68.5 61t-40 85.5t-13 97q0 33 5 75.5t12.5 86t17.5 85t20 73.5q2 5 9 27.5t15 50t15.5 52t9.5 31.5q12 36 24.5 63t30.5 45.5t44 28t64 9.5q27 0 48 -11t33 -35q12 -23 14 -43t2 -41q0 -8 -11 -33t-25 -54t-27 -54t-16 -33q-30 -73 -49.5 -130.5 t-19.5 -117.5q0 -29 6 -53.5t15 -42.5t20.5 -28t23.5 -10q33 0 77.5 12.5t93 35t97.5 53.5t90 68t71 78t40 83q3 10 4.5 31.5t2.5 49t2 59t3 60t4.5 52.5t6.5 37q17 54 45 82t73 28q37 0 60 -9t35.5 -27t17 -45.5t4.5 -65.5q0 -22 -3 -61.5t-6.5 -83.5t-7 -85.5t-4.5 -67.5 q-3 -64 -10.5 -133t-18 -138.5t-24.5 -138t-29 -130.5q-12 -50 -28 -101.5t-35.5 -101t-42.5 -96t-48 -85.5q-106 -163 -302 -163q-123 0 -243 47q-42 16 -87.5 42t-82.5 55t-61 59.5t-24 57.5zM441 1287q0 30 4 56t15 45t30 29.5t50 10.5q75 0 120 -39t45 -110 q0 -68 -127 -68q-19 0 -42.5 6t-44.5 16.5t-35.5 24.5t-14.5 29zM840 1346q0 23 5 39.5t18.5 29.5t38 23t63.5 19q7 2 16.5 5t22.5 3q45 0 67.5 -28.5t22.5 -70.5q0 -129 -136 -129q-24 0 -45.5 8.5t-37.5 23.5t-25.5 35t-9.5 42z" />
</font>
</defs>
</svg>
